<?xml version="1.0" encoding="utf-8"?>
<svg version="1.1" xmlns:xlink="http://www.w3.org/1999/xlink" width="16px" height="16px" xmlns="http://www.w3.org/2000/svg">
  <defs>
    <pattern id="BGPattern" patternUnits="userSpaceOnUse" alignment="0 0" imageRepeat="None" />
    <mask fill="white" id="Clip77">
      <path d="M 0 8  C 0 3.5199999999999996  3.5199999999999996 0  8 0  C 12.48 0  16 3.5199999999999996  16 8  C 16 12.48  12.48 16  8 16  C 3.5199999999999996 16  0 12.48  0 8  Z " fill-rule="evenodd" />
    </mask>
  </defs>
  <g transform="matrix(1 0 0 1 -24 -188 )">
    <path d="M 0 8  C 0 3.5199999999999996  3.5199999999999996 0  8 0  C 12.48 0  16 3.5199999999999996  16 8  C 16 12.48  12.48 16  8 16  C 3.5199999999999996 16  0 12.48  0 8  Z " fill-rule="nonzero" fill="rgba(255, 255, 255, 1)" stroke="none" transform="matrix(1 0 0 1 24 188 )" class="fill" />
    <path d="M 0 8  C 0 3.5199999999999996  3.5199999999999996 0  8 0  C 12.48 0  16 3.5199999999999996  16 8  C 16 12.48  12.48 16  8 16  C 3.5199999999999996 16  0 12.48  0 8  Z " stroke-width="2" stroke-dasharray="0" stroke="rgba(221, 221, 221, 1)" fill="none" transform="matrix(1 0 0 1 24 188 )" class="stroke" mask="url(#Clip77)" />
  </g>
</svg>