<?xml version="1.0" encoding="utf-8"?>
<svg version="1.1" xmlns:xlink="http://www.w3.org/1999/xlink" width="16px" height="16px" xmlns="http://www.w3.org/2000/svg">
  <defs>
    <pattern id="BGPattern" patternUnits="userSpaceOnUse" alignment="0 0" imageRepeat="None" />
    <mask fill="white" id="Clip75">
      <path d="M 16 6.156899224806201  C 16 5.2757829457364345  15.288 4.569302325581396  14.4 4.569302325581396  L 12.728 4.569302325581396  L 8.448 0.3066046511627907  C 8.200000000000001 0.060527131782945734  7.800000000000001 0.060527131782945734  7.5520000000000005 0.3066046511627907  L 3.264 4.569302325581396  L 1.6 4.569302325581396  C 0.7200000000000001 4.569302325581396  0 5.283720930232558  0 6.156899224806201  L 0 14.412403100775194  C 0 15.285581395348839  0.72 16  1.6 16  L 14.4 16  C 15.280000000000001 16  16 15.285581395348837  16 14.412403100775194  L 16 6.156899224806201  Z M 5.048 4.569302325581396  L 8 1.6322480620155044  L 10.943999999999999 4.569302325581396  L 5.048 4.569302325581396  Z M 14.719999999999999 6.156899224806201  L 14.719999999999999 14.412403100775196  C 14.719999999999999 14.587038759689925  14.575999999999999 14.729922480620157  14.399999999999999 14.729922480620157  L 1.5999999999999979 14.729922480620157  C 1.423999999999998 14.729922480620157  1.2799999999999978 14.587038759689925  1.2799999999999978 14.412403100775196  L 1.2799999999999978 6.156899224806201  C 1.2799999999999978 5.982263565891473  1.4239999999999977 5.83937984496124  1.5999999999999979 6  L 14.399999999999999 6  C 14.575999999999999 5.83937984496124  14.719999999999999 5.982263565891473  14.719999999999999 6.156899224806201  Z M 13.440000000000001 9.014573643410852  C 13.440000000000001 9.363844961240309  13.160000000000002 9.649612403100775  12.8 9.649612403100775  L 3.200000000000001 9.649612403100775  C 2.848000000000001 9.649612403100775  2.560000000000001 9.363844961240309  2.560000000000001 9.014573643410852  C 2.560000000000001 8.665302325581393  2.8480000000000008 8.379534883720929  3.200000000000001 8.379534883720929  L 12.8 8.379534883720929  C 13.152000000000001 8.379534883720929  13.440000000000001 8.665302325581393  13.440000000000001 9.014573643410852  Z M 10.88 11.554728682170543  C 10.88 11.904  10.600000000000001 12.189767441860464  10.24 12.189767441860464  L 3.2 12.189767441860464  C 2.8480000000000003 12.189767441860464  2.56 11.904  2.56 11.554728682170543  C 2.56 11.205457364341084  2.848 10.91968992248062  3.2 10.91968992248062  L 10.24 10.91968992248062  C 10.592 10.91968992248062  10.88 11.205457364341084  10.88 11.554728682170543  Z " fill-rule="evenodd" />
    </mask>
  </defs>
  <g transform="matrix(1 0 0 1 -43 -321 )">
    <path d="M 16 6.156899224806201  C 16 5.2757829457364345  15.288 4.569302325581396  14.4 4.569302325581396  L 12.728 4.569302325581396  L 8.448 0.3066046511627907  C 8.200000000000001 0.060527131782945734  7.800000000000001 0.060527131782945734  7.5520000000000005 0.3066046511627907  L 3.264 4.569302325581396  L 1.6 4.569302325581396  C 0.7200000000000001 4.569302325581396  0 5.283720930232558  0 6.156899224806201  L 0 14.412403100775194  C 0 15.285581395348839  0.72 16  1.6 16  L 14.4 16  C 15.280000000000001 16  16 15.285581395348837  16 14.412403100775194  L 16 6.156899224806201  Z M 5.048 4.569302325581396  L 8 1.6322480620155044  L 10.943999999999999 4.569302325581396  L 5.048 4.569302325581396  Z M 14.719999999999999 6.156899224806201  L 14.719999999999999 14.412403100775196  C 14.719999999999999 14.587038759689925  14.575999999999999 14.729922480620157  14.399999999999999 14.729922480620157  L 1.5999999999999979 14.729922480620157  C 1.423999999999998 14.729922480620157  1.2799999999999978 14.587038759689925  1.2799999999999978 14.412403100775196  L 1.2799999999999978 6.156899224806201  C 1.2799999999999978 5.982263565891473  1.4239999999999977 5.83937984496124  1.5999999999999979 6  L 14.399999999999999 6  C 14.575999999999999 5.83937984496124  14.719999999999999 5.982263565891473  14.719999999999999 6.156899224806201  Z M 13.440000000000001 9.014573643410852  C 13.440000000000001 9.363844961240309  13.160000000000002 9.649612403100775  12.8 9.649612403100775  L 3.200000000000001 9.649612403100775  C 2.848000000000001 9.649612403100775  2.560000000000001 9.363844961240309  2.560000000000001 9.014573643410852  C 2.560000000000001 8.665302325581393  2.8480000000000008 8.379534883720929  3.200000000000001 8.379534883720929  L 12.8 8.379534883720929  C 13.152000000000001 8.379534883720929  13.440000000000001 8.665302325581393  13.440000000000001 9.014573643410852  Z M 10.88 11.554728682170543  C 10.88 11.904  10.600000000000001 12.189767441860464  10.24 12.189767441860464  L 3.2 12.189767441860464  C 2.8480000000000003 12.189767441860464  2.56 11.904  2.56 11.554728682170543  C 2.56 11.205457364341084  2.848 10.91968992248062  3.2 10.91968992248062  L 10.24 10.91968992248062  C 10.592 10.91968992248062  10.88 11.205457364341084  10.88 11.554728682170543  Z " fill-rule="nonzero" fill="rgba(85, 85, 85, 1)" stroke="none" transform="matrix(1 0 0 1 43 321 )" class="fill" />
    <path d="M 16 6.156899224806201  C 16 5.2757829457364345  15.288 4.569302325581396  14.4 4.569302325581396  L 12.728 4.569302325581396  L 8.448 0.3066046511627907  C 8.200000000000001 0.060527131782945734  7.800000000000001 0.060527131782945734  7.5520000000000005 0.3066046511627907  L 3.264 4.569302325581396  L 1.6 4.569302325581396  C 0.7200000000000001 4.569302325581396  0 5.283720930232558  0 6.156899224806201  L 0 14.412403100775194  C 0 15.285581395348839  0.72 16  1.6 16  L 14.4 16  C 15.280000000000001 16  16 15.285581395348837  16 14.412403100775194  L 16 6.156899224806201  Z " stroke-width="0" stroke-dasharray="0" stroke="rgba(255, 255, 255, 0)" fill="none" transform="matrix(1 0 0 1 43 321 )" class="stroke" mask="url(#Clip75)" />
    <path d="M 5.048 4.569302325581396  L 8 1.6322480620155044  L 10.943999999999999 4.569302325581396  L 5.048 4.569302325581396  Z " stroke-width="0" stroke-dasharray="0" stroke="rgba(255, 255, 255, 0)" fill="none" transform="matrix(1 0 0 1 43 321 )" class="stroke" mask="url(#Clip75)" />
    <path d="M 14.719999999999999 6.156899224806201  L 14.719999999999999 14.412403100775196  C 14.719999999999999 14.587038759689925  14.575999999999999 14.729922480620157  14.399999999999999 14.729922480620157  L 1.5999999999999979 14.729922480620157  C 1.423999999999998 14.729922480620157  1.2799999999999978 14.587038759689925  1.2799999999999978 14.412403100775196  L 1.2799999999999978 6.156899224806201  C 1.2799999999999978 5.982263565891473  1.4239999999999977 5.83937984496124  1.5999999999999979 6  L 14.399999999999999 6  C 14.575999999999999 5.83937984496124  14.719999999999999 5.982263565891473  14.719999999999999 6.156899224806201  Z " stroke-width="0" stroke-dasharray="0" stroke="rgba(255, 255, 255, 0)" fill="none" transform="matrix(1 0 0 1 43 321 )" class="stroke" mask="url(#Clip75)" />
    <path d="M 13.440000000000001 9.014573643410852  C 13.440000000000001 9.363844961240309  13.160000000000002 9.649612403100775  12.8 9.649612403100775  L 3.200000000000001 9.649612403100775  C 2.848000000000001 9.649612403100775  2.560000000000001 9.363844961240309  2.560000000000001 9.014573643410852  C 2.560000000000001 8.665302325581393  2.8480000000000008 8.379534883720929  3.200000000000001 8.379534883720929  L 12.8 8.379534883720929  C 13.152000000000001 8.379534883720929  13.440000000000001 8.665302325581393  13.440000000000001 9.014573643410852  Z " stroke-width="0" stroke-dasharray="0" stroke="rgba(255, 255, 255, 0)" fill="none" transform="matrix(1 0 0 1 43 321 )" class="stroke" mask="url(#Clip75)" />
    <path d="M 10.88 11.554728682170543  C 10.88 11.904  10.600000000000001 12.189767441860464  10.24 12.189767441860464  L 3.2 12.189767441860464  C 2.8480000000000003 12.189767441860464  2.56 11.904  2.56 11.554728682170543  C 2.56 11.205457364341084  2.848 10.91968992248062  3.2 10.91968992248062  L 10.24 10.91968992248062  C 10.592 10.91968992248062  10.88 11.205457364341084  10.88 11.554728682170543  Z " stroke-width="0" stroke-dasharray="0" stroke="rgba(255, 255, 255, 0)" fill="none" transform="matrix(1 0 0 1 43 321 )" class="stroke" mask="url(#Clip75)" />
  </g>
</svg>