<?xml version="1.0" encoding="utf-8"?>
<svg version="1.1" xmlns:xlink="http://www.w3.org/1999/xlink" width="18px" height="16px" xmlns="http://www.w3.org/2000/svg">
  <defs>
    <pattern id="BGPattern" patternUnits="userSpaceOnUse" alignment="0 0" imageRepeat="None" />
    <mask fill="white" id="Clip76">
      <path d="M 13.444444437500001 8  C 13.444444437500001 10.450666666666665  11.450666666666669 12.444444437500001  9 12.444444437500001  C 6.549333333333333 12.444444437500001  4.555555562499999 10.450666666666669  4.555555562499999 8  C 4.555555562499999 5.549333333333332  6.549333333333333 3.5555555625000004  9 3.5555555625000004  C 11.450666666666669 3.5555555625000004  13.444444437500001 5.549333333333334  13.444444437500001 8  Z M 12.111111104166667 8  C 12.111111104166667 6.284444458333333  10.7155555625 4.888888895833333  9 4.888888895833333  C 7.2844444374999995 4.888888895833333  5.8888888958333325 6.284444458333334  5.8888888958333325 8  C 5.8888888958333325 9.715555541666665  7.284444458333333 11.111111104166667  9 11.111111104166667  C 10.715555541666667 11.111111104166667  12.111111104166667 9.715555541666667  12.111111104166667 8  Z M 6.623111104166667 15.726666666666661  C 6.377938370807181 15.903158756634298  6.083646056812626 15.998432686846948  5.7815555624999995 15.999111104166666  C 5.5762222291666665 15.999111104166666  5.370666666666666 15.954666666666666  5.179111104166667 15.864888895833332  C 4.757429678129067 15.667564495248483  4.351563985599312 15.438071698325357  3.9651111041666667 15.178444437499996  C 3.534873688906668 14.890172349477444  3.3015029091676453 14.385878833441282  3.3602222291666664 13.87133333333333  C 3.4536034140647365 13.04789727376943  3.2748732764720296 12.216528979414873  2.851333333333333 11.504222229166663  L 2.8395555624999993 11.484222229166662  C 2.411111124999999 10.757999999999996  1.7724444583333323 10.196888895833327  0.9919999999999998 9.859999999999994  C 0.5092691664237025 9.652513001240338  0.1808737523178487 9.195068451747579  0.13866666666666622 8.671333333333328  C 0.10337335412133353 8.236249616279009  0.10196169032161044 7.79908034363984  0.13444443749999943 7.363777770833327  C 0.1748154339600315 6.819503875863158  0.5152484696721619 6.343137611550599  1.0171111041666663 6.1286666666666605  C 1.7855555416666664 5.796888895833327  2.4137777708333337 5.243777770833327  2.8335555624999995 4.5295555624999935  L 2.8468888958333327 4.50711110416666  C 3.2768888958333333 3.7799999999999927  3.4526666666666666 2.965777770833327  3.3611111041666666 2.1419999999999937  C 3.3028888749999994 1.6151111041666606  3.543333333333333 1.10266666666666  3.9884444375 0.8042222291666595  C 4.365036294296654 0.5525329911204313  4.760423966765205 0.33017385387689363  5.171111104166668 0.13911110416666025  C 5.642461595687184 -0.08113228969347297  6.195873576623201 -0.03061370380920773  6.6195555624999995 0.2713333333333268  C 7.307086149586165 0.7644506611832753  8.132360024054684 1.0287093437866364  8.9784444375 1.0266666666666602  L 9.018888895833332 1.0266666666666602  C 9.866810077302612 1.0290379064314379  10.693912357653687 0.7641194659324372  11.382666666666665 0.2695555624999937  C 11.802272134540871 -0.03276476219740795  12.352615573100154 -0.08437274706014097  12.821111104166665 0.13466666666666013  C 13.239492760224577 0.3303627182582076  13.642296733862164 0.5577664380637989  14.025999999999998 0.8148888958333268  C 14.462888895833332 1.1077777916666598  14.698222229166666 1.6111111249999936  14.640666666666663 2.1282222291666595  C 14.547235346809272 2.951774717409569  14.72588264280921 3.7832768058402757  15.149333333333333 4.495777770833327  L 15.163111104166667 4.519111104166661  C 15.589555541666668 5.24155554166666  16.228 5.802888874999994  17.00866666666667 6.1397777708333265  C 17.491528652901305 6.3472211935606495  17.819968928071187 6.804813767108207  17.862000000000002 7.32866666666666  C 17.898 7.773111104166659  17.898666666666667 8.223333333333327  17.864 8.666888895833326  C 17.823411263263193 9.191922250522536  17.4950356241221 9.651151770816869  17.011333333333337 9.859333333333327  L 16.985777770833334 9.87066666666666  C 16.215555541666667 10.20311110416666  15.587333333333337 10.75622222916666  15.167333333333335 11.470444437499992  L 15.155555562500002 11.490444437499994  C 14.730222229166667 12.209333333333326  14.549333333333335 13.045555541666658  14.639333333333333 13.857777770833328  C 14.697777770833333 14.38466666666666  14.457555562500001 14.897333333333329  14.012 15.195555562499996  C 13.635547038261006 15.447280131430645  13.240224605022538 15.669570058603812  12.829555562500003 15.860444437499998  C 12.35829874394299 16.080197182975027  11.805309259613416 16.029786539375923  11.3815555625 15.728444437499995  C 10.693962665176752 15.235258157168019  9.868619857219564 14.970924558924834  9.022444437499999 14.972888895833329  L 8.9764444375 14.972888895833329  C 8.132261943067896 14.97048924554482  7.308801399646015 15.23424544361412  6.623111104166667 15.726666666666661  Z M 5.843111104166663 1.355777770833334  C 5.825602328237549 1.3435336806277096  5.804697146314619 1.3370833845389072  5.783333333333332 1.337333333333331  C 5.76619360523867 1.3373014961495133  5.749263083099306 1.3410975744421674  5.733777770833333 1.3484444374999978  C 5.385221606546316 1.5103807752138831  5.049703782947635 1.6990166867266658  4.730222229166666 1.912666666666664  C 4.699999999999999 1.9328888958333306  4.682888895833333 1.9648888958333306  4.686444437499999 1.99577777083333  C 4.806046964886782 3.101985990854107  4.565457061769145 4.217256970320718  4.0004444375 5.175777770833331  L 3.981333333333333 5.208222229166664  C 3.418888895833333 6.165555562499997  2.5759999999999996 6.908222229166664  1.545333333333333 7.353333333333331  C 1.4986666666666664 7.37333333333333  1.4675555625 7.415555562499997  1.463999999999999 7.4633333333333285  C 1.4367396306863778 7.8296886472671625  1.4379283813667971 8.197606261946069  1.4675555624999994 8.563777770833331  C 1.4703947700973259 8.59586231417665  1.4907498962120205 8.623743718076538  1.5204444375000001 8.636222229166664  C 2.5620000000000003 9.085555562499998  3.4148888750000004 9.835999999999999  3.9871111041666674 10.805999999999997  L 3.998888895833333 10.825999999999995  C 4.565348672775112 11.789093335892112  4.806007022026096 12.909230163545272  4.685111104166667 14.019999999999998  C 4.682429360485919 14.040465157763963  4.691550741905148 14.060687084996294  4.708666666666668 14.072222229166668  C 5.0380840533126285 14.293558892801334  5.384071754141996 14.489175298074814  5.743555562500001 14.657333333333332  C 5.772041926211752 14.671537425876203  5.805905151915166 14.669679590260847  5.832666666666668 14.6524444375  C 6.761555562500002 13.987111104166665  7.8435555625000015 13.639999999999999  8.975111104166668 13.639999999999999  L 9.022 13.639999999999999  C 10.146522378993605 13.637476052194486  11.243311228159754 13.988974058581094  12.156888895833333 14.644666666666666  C 12.186888895833334 14.666222229166666  12.229777791666665 14.669111104166666  12.266666666666666 14.651777770833332  C 12.614970167007117 14.489710805339913  12.95032484295581 14.301157377459965  13.26977777083333 14.087777770833332  C 13.30022220833333 14.067333333333332  13.316888874999998 14.035777770833333  13.313555562499996 14.005111104166666  C 13.193890685779113 12.898578811125427  13.434565966653096 11.783195384370194  13.999777770833331 10.824666666666666  L 14.017555562499998 10.7944444375  C 14.581555562499998 9.835111104166666  15.42444445833333 9.0924444375  16.45511110416666 8.647333333333334  L 16.480222229166664 8.636222229166668  C 16.510412435422857 8.623632584802676  16.5310673320213 8.595264231306524  16.53377777083333 8.562666666666667  C 16.56333333333333 8.189333333333336  16.56266666666666 7.810666666666667  16.532222229166663 7.436666666666667  C 16.529628470561097 7.404490439099867  16.509189982574707 7.376494869478024  16.47933333333333 7.364222229166668  C 15.437777770833328 6.914666666666668  14.585111104166662 6.164444458333334  14.012666666666664 5.194666666666667  L 13.998888895833328 5.171333333333334  C 13.433638498015885 4.209032738706747  13.193768742252551 3.090108127514437  13.314888895833331 1.980666666666668  C 13.31733333333333 1.9597777708333346  13.304666666666662 1.9375555625000012  13.282444437499997 1.9224444375000005  C 12.955441995163653 1.7037750051459504  12.612392437611051 1.5101132016285213  12.256222229166662 1.343111104166668  C 12.227931209454338 1.3288289599873415  12.194191047631554 1.330604757978015  12.167555562499999 1.3477777708333345  C 11.250841514734601 2.008346062024763  10.14902697290517 2.3627340380953057  9.019111104166663 2.3604444375000013  L 8.977999999999996 2.3604444375000013  C 7.853510357783236 2.362757482836012  6.756784722289121 2.01127973511607  5.843111104166663 1.355777770833334  Z " fill-rule="evenodd" />
    </mask>
  </defs>
  <g transform="matrix(1 0 0 1 -42 -366 )">
    <path d="M 13.444444437500001 8  C 13.444444437500001 10.450666666666665  11.450666666666669 12.444444437500001  9 12.444444437500001  C 6.549333333333333 12.444444437500001  4.555555562499999 10.450666666666669  4.555555562499999 8  C 4.555555562499999 5.549333333333332  6.549333333333333 3.5555555625000004  9 3.5555555625000004  C 11.450666666666669 3.5555555625000004  13.444444437500001 5.549333333333334  13.444444437500001 8  Z M 12.111111104166667 8  C 12.111111104166667 6.284444458333333  10.7155555625 4.888888895833333  9 4.888888895833333  C 7.2844444374999995 4.888888895833333  5.8888888958333325 6.284444458333334  5.8888888958333325 8  C 5.8888888958333325 9.715555541666665  7.284444458333333 11.111111104166667  9 11.111111104166667  C 10.715555541666667 11.111111104166667  12.111111104166667 9.715555541666667  12.111111104166667 8  Z M 6.623111104166667 15.726666666666661  C 6.377938370807181 15.903158756634298  6.083646056812626 15.998432686846948  5.7815555624999995 15.999111104166666  C 5.5762222291666665 15.999111104166666  5.370666666666666 15.954666666666666  5.179111104166667 15.864888895833332  C 4.757429678129067 15.667564495248483  4.351563985599312 15.438071698325357  3.9651111041666667 15.178444437499996  C 3.534873688906668 14.890172349477444  3.3015029091676453 14.385878833441282  3.3602222291666664 13.87133333333333  C 3.4536034140647365 13.04789727376943  3.2748732764720296 12.216528979414873  2.851333333333333 11.504222229166663  L 2.8395555624999993 11.484222229166662  C 2.411111124999999 10.757999999999996  1.7724444583333323 10.196888895833327  0.9919999999999998 9.859999999999994  C 0.5092691664237025 9.652513001240338  0.1808737523178487 9.195068451747579  0.13866666666666622 8.671333333333328  C 0.10337335412133353 8.236249616279009  0.10196169032161044 7.79908034363984  0.13444443749999943 7.363777770833327  C 0.1748154339600315 6.819503875863158  0.5152484696721619 6.343137611550599  1.0171111041666663 6.1286666666666605  C 1.7855555416666664 5.796888895833327  2.4137777708333337 5.243777770833327  2.8335555624999995 4.5295555624999935  L 2.8468888958333327 4.50711110416666  C 3.2768888958333333 3.7799999999999927  3.4526666666666666 2.965777770833327  3.3611111041666666 2.1419999999999937  C 3.3028888749999994 1.6151111041666606  3.543333333333333 1.10266666666666  3.9884444375 0.8042222291666595  C 4.365036294296654 0.5525329911204313  4.760423966765205 0.33017385387689363  5.171111104166668 0.13911110416666025  C 5.642461595687184 -0.08113228969347297  6.195873576623201 -0.03061370380920773  6.6195555624999995 0.2713333333333268  C 7.307086149586165 0.7644506611832753  8.132360024054684 1.0287093437866364  8.9784444375 1.0266666666666602  L 9.018888895833332 1.0266666666666602  C 9.866810077302612 1.0290379064314379  10.693912357653687 0.7641194659324372  11.382666666666665 0.2695555624999937  C 11.802272134540871 -0.03276476219740795  12.352615573100154 -0.08437274706014097  12.821111104166665 0.13466666666666013  C 13.239492760224577 0.3303627182582076  13.642296733862164 0.5577664380637989  14.025999999999998 0.8148888958333268  C 14.462888895833332 1.1077777916666598  14.698222229166666 1.6111111249999936  14.640666666666663 2.1282222291666595  C 14.547235346809272 2.951774717409569  14.72588264280921 3.7832768058402757  15.149333333333333 4.495777770833327  L 15.163111104166667 4.519111104166661  C 15.589555541666668 5.24155554166666  16.228 5.802888874999994  17.00866666666667 6.1397777708333265  C 17.491528652901305 6.3472211935606495  17.819968928071187 6.804813767108207  17.862000000000002 7.32866666666666  C 17.898 7.773111104166659  17.898666666666667 8.223333333333327  17.864 8.666888895833326  C 17.823411263263193 9.191922250522536  17.4950356241221 9.651151770816869  17.011333333333337 9.859333333333327  L 16.985777770833334 9.87066666666666  C 16.215555541666667 10.20311110416666  15.587333333333337 10.75622222916666  15.167333333333335 11.470444437499992  L 15.155555562500002 11.490444437499994  C 14.730222229166667 12.209333333333326  14.549333333333335 13.045555541666658  14.639333333333333 13.857777770833328  C 14.697777770833333 14.38466666666666  14.457555562500001 14.897333333333329  14.012 15.195555562499996  C 13.635547038261006 15.447280131430645  13.240224605022538 15.669570058603812  12.829555562500003 15.860444437499998  C 12.35829874394299 16.080197182975027  11.805309259613416 16.029786539375923  11.3815555625 15.728444437499995  C 10.693962665176752 15.235258157168019  9.868619857219564 14.970924558924834  9.022444437499999 14.972888895833329  L 8.9764444375 14.972888895833329  C 8.132261943067896 14.97048924554482  7.308801399646015 15.23424544361412  6.623111104166667 15.726666666666661  Z M 5.843111104166663 1.355777770833334  C 5.825602328237549 1.3435336806277096  5.804697146314619 1.3370833845389072  5.783333333333332 1.337333333333331  C 5.76619360523867 1.3373014961495133  5.749263083099306 1.3410975744421674  5.733777770833333 1.3484444374999978  C 5.385221606546316 1.5103807752138831  5.049703782947635 1.6990166867266658  4.730222229166666 1.912666666666664  C 4.699999999999999 1.9328888958333306  4.682888895833333 1.9648888958333306  4.686444437499999 1.99577777083333  C 4.806046964886782 3.101985990854107  4.565457061769145 4.217256970320718  4.0004444375 5.175777770833331  L 3.981333333333333 5.208222229166664  C 3.418888895833333 6.165555562499997  2.5759999999999996 6.908222229166664  1.545333333333333 7.353333333333331  C 1.4986666666666664 7.37333333333333  1.4675555625 7.415555562499997  1.463999999999999 7.4633333333333285  C 1.4367396306863778 7.8296886472671625  1.4379283813667971 8.197606261946069  1.4675555624999994 8.563777770833331  C 1.4703947700973259 8.59586231417665  1.4907498962120205 8.623743718076538  1.5204444375000001 8.636222229166664  C 2.5620000000000003 9.085555562499998  3.4148888750000004 9.835999999999999  3.9871111041666674 10.805999999999997  L 3.998888895833333 10.825999999999995  C 4.565348672775112 11.789093335892112  4.806007022026096 12.909230163545272  4.685111104166667 14.019999999999998  C 4.682429360485919 14.040465157763963  4.691550741905148 14.060687084996294  4.708666666666668 14.072222229166668  C 5.0380840533126285 14.293558892801334  5.384071754141996 14.489175298074814  5.743555562500001 14.657333333333332  C 5.772041926211752 14.671537425876203  5.805905151915166 14.669679590260847  5.832666666666668 14.6524444375  C 6.761555562500002 13.987111104166665  7.8435555625000015 13.639999999999999  8.975111104166668 13.639999999999999  L 9.022 13.639999999999999  C 10.146522378993605 13.637476052194486  11.243311228159754 13.988974058581094  12.156888895833333 14.644666666666666  C 12.186888895833334 14.666222229166666  12.229777791666665 14.669111104166666  12.266666666666666 14.651777770833332  C 12.614970167007117 14.489710805339913  12.95032484295581 14.301157377459965  13.26977777083333 14.087777770833332  C 13.30022220833333 14.067333333333332  13.316888874999998 14.035777770833333  13.313555562499996 14.005111104166666  C 13.193890685779113 12.898578811125427  13.434565966653096 11.783195384370194  13.999777770833331 10.824666666666666  L 14.017555562499998 10.7944444375  C 14.581555562499998 9.835111104166666  15.42444445833333 9.0924444375  16.45511110416666 8.647333333333334  L 16.480222229166664 8.636222229166668  C 16.510412435422857 8.623632584802676  16.5310673320213 8.595264231306524  16.53377777083333 8.562666666666667  C 16.56333333333333 8.189333333333336  16.56266666666666 7.810666666666667  16.532222229166663 7.436666666666667  C 16.529628470561097 7.404490439099867  16.509189982574707 7.376494869478024  16.47933333333333 7.364222229166668  C 15.437777770833328 6.914666666666668  14.585111104166662 6.164444458333334  14.012666666666664 5.194666666666667  L 13.998888895833328 5.171333333333334  C 13.433638498015885 4.209032738706747  13.193768742252551 3.090108127514437  13.314888895833331 1.980666666666668  C 13.31733333333333 1.9597777708333346  13.304666666666662 1.9375555625000012  13.282444437499997 1.9224444375000005  C 12.955441995163653 1.7037750051459504  12.612392437611051 1.5101132016285213  12.256222229166662 1.343111104166668  C 12.227931209454338 1.3288289599873415  12.194191047631554 1.330604757978015  12.167555562499999 1.3477777708333345  C 11.250841514734601 2.008346062024763  10.14902697290517 2.3627340380953057  9.019111104166663 2.3604444375000013  L 8.977999999999996 2.3604444375000013  C 7.853510357783236 2.362757482836012  6.756784722289121 2.01127973511607  5.843111104166663 1.355777770833334  Z " fill-rule="nonzero" fill="rgba(85, 85, 85, 1)" stroke="none" transform="matrix(1 0 0 1 42 366 )" class="fill" />
    <path d="M 13.444444437500001 8  C 13.444444437500001 10.450666666666665  11.450666666666669 12.444444437500001  9 12.444444437500001  C 6.549333333333333 12.444444437500001  4.555555562499999 10.450666666666669  4.555555562499999 8  C 4.555555562499999 5.549333333333332  6.549333333333333 3.5555555625000004  9 3.5555555625000004  C 11.450666666666669 3.5555555625000004  13.444444437500001 5.549333333333334  13.444444437500001 8  Z " stroke-width="0" stroke-dasharray="0" stroke="rgba(255, 255, 255, 0)" fill="none" transform="matrix(1 0 0 1 42 366 )" class="stroke" mask="url(#Clip76)" />
    <path d="M 12.111111104166667 8  C 12.111111104166667 6.284444458333333  10.7155555625 4.888888895833333  9 4.888888895833333  C 7.2844444374999995 4.888888895833333  5.8888888958333325 6.284444458333334  5.8888888958333325 8  C 5.8888888958333325 9.715555541666665  7.284444458333333 11.111111104166667  9 11.111111104166667  C 10.715555541666667 11.111111104166667  12.111111104166667 9.715555541666667  12.111111104166667 8  Z " stroke-width="0" stroke-dasharray="0" stroke="rgba(255, 255, 255, 0)" fill="none" transform="matrix(1 0 0 1 42 366 )" class="stroke" mask="url(#Clip76)" />
    <path d="M 6.623111104166667 15.726666666666661  C 6.377938370807181 15.903158756634298  6.083646056812626 15.998432686846948  5.7815555624999995 15.999111104166666  C 5.5762222291666665 15.999111104166666  5.370666666666666 15.954666666666666  5.179111104166667 15.864888895833332  C 4.757429678129067 15.667564495248483  4.351563985599312 15.438071698325357  3.9651111041666667 15.178444437499996  C 3.534873688906668 14.890172349477444  3.3015029091676453 14.385878833441282  3.3602222291666664 13.87133333333333  C 3.4536034140647365 13.04789727376943  3.2748732764720296 12.216528979414873  2.851333333333333 11.504222229166663  L 2.8395555624999993 11.484222229166662  C 2.411111124999999 10.757999999999996  1.7724444583333323 10.196888895833327  0.9919999999999998 9.859999999999994  C 0.5092691664237025 9.652513001240338  0.1808737523178487 9.195068451747579  0.13866666666666622 8.671333333333328  C 0.10337335412133353 8.236249616279009  0.10196169032161044 7.79908034363984  0.13444443749999943 7.363777770833327  C 0.1748154339600315 6.819503875863158  0.5152484696721619 6.343137611550599  1.0171111041666663 6.1286666666666605  C 1.7855555416666664 5.796888895833327  2.4137777708333337 5.243777770833327  2.8335555624999995 4.5295555624999935  L 2.8468888958333327 4.50711110416666  C 3.2768888958333333 3.7799999999999927  3.4526666666666666 2.965777770833327  3.3611111041666666 2.1419999999999937  C 3.3028888749999994 1.6151111041666606  3.543333333333333 1.10266666666666  3.9884444375 0.8042222291666595  C 4.365036294296654 0.5525329911204313  4.760423966765205 0.33017385387689363  5.171111104166668 0.13911110416666025  C 5.642461595687184 -0.08113228969347297  6.195873576623201 -0.03061370380920773  6.6195555624999995 0.2713333333333268  C 7.307086149586165 0.7644506611832753  8.132360024054684 1.0287093437866364  8.9784444375 1.0266666666666602  L 9.018888895833332 1.0266666666666602  C 9.866810077302612 1.0290379064314379  10.693912357653687 0.7641194659324372  11.382666666666665 0.2695555624999937  C 11.802272134540871 -0.03276476219740795  12.352615573100154 -0.08437274706014097  12.821111104166665 0.13466666666666013  C 13.239492760224577 0.3303627182582076  13.642296733862164 0.5577664380637989  14.025999999999998 0.8148888958333268  C 14.462888895833332 1.1077777916666598  14.698222229166666 1.6111111249999936  14.640666666666663 2.1282222291666595  C 14.547235346809272 2.951774717409569  14.72588264280921 3.7832768058402757  15.149333333333333 4.495777770833327  L 15.163111104166667 4.519111104166661  C 15.589555541666668 5.24155554166666  16.228 5.802888874999994  17.00866666666667 6.1397777708333265  C 17.491528652901305 6.3472211935606495  17.819968928071187 6.804813767108207  17.862000000000002 7.32866666666666  C 17.898 7.773111104166659  17.898666666666667 8.223333333333327  17.864 8.666888895833326  C 17.823411263263193 9.191922250522536  17.4950356241221 9.651151770816869  17.011333333333337 9.859333333333327  L 16.985777770833334 9.87066666666666  C 16.215555541666667 10.20311110416666  15.587333333333337 10.75622222916666  15.167333333333335 11.470444437499992  L 15.155555562500002 11.490444437499994  C 14.730222229166667 12.209333333333326  14.549333333333335 13.045555541666658  14.639333333333333 13.857777770833328  C 14.697777770833333 14.38466666666666  14.457555562500001 14.897333333333329  14.012 15.195555562499996  C 13.635547038261006 15.447280131430645  13.240224605022538 15.669570058603812  12.829555562500003 15.860444437499998  C 12.35829874394299 16.080197182975027  11.805309259613416 16.029786539375923  11.3815555625 15.728444437499995  C 10.693962665176752 15.235258157168019  9.868619857219564 14.970924558924834  9.022444437499999 14.972888895833329  L 8.9764444375 14.972888895833329  C 8.132261943067896 14.97048924554482  7.308801399646015 15.23424544361412  6.623111104166667 15.726666666666661  Z " stroke-width="0" stroke-dasharray="0" stroke="rgba(255, 255, 255, 0)" fill="none" transform="matrix(1 0 0 1 42 366 )" class="stroke" mask="url(#Clip76)" />
    <path d="M 5.843111104166663 1.355777770833334  C 5.825602328237549 1.3435336806277096  5.804697146314619 1.3370833845389072  5.783333333333332 1.337333333333331  C 5.76619360523867 1.3373014961495133  5.749263083099306 1.3410975744421674  5.733777770833333 1.3484444374999978  C 5.385221606546316 1.5103807752138831  5.049703782947635 1.6990166867266658  4.730222229166666 1.912666666666664  C 4.699999999999999 1.9328888958333306  4.682888895833333 1.9648888958333306  4.686444437499999 1.99577777083333  C 4.806046964886782 3.101985990854107  4.565457061769145 4.217256970320718  4.0004444375 5.175777770833331  L 3.981333333333333 5.208222229166664  C 3.418888895833333 6.165555562499997  2.5759999999999996 6.908222229166664  1.545333333333333 7.353333333333331  C 1.4986666666666664 7.37333333333333  1.4675555625 7.415555562499997  1.463999999999999 7.4633333333333285  C 1.4367396306863778 7.8296886472671625  1.4379283813667971 8.197606261946069  1.4675555624999994 8.563777770833331  C 1.4703947700973259 8.59586231417665  1.4907498962120205 8.623743718076538  1.5204444375000001 8.636222229166664  C 2.5620000000000003 9.085555562499998  3.4148888750000004 9.835999999999999  3.9871111041666674 10.805999999999997  L 3.998888895833333 10.825999999999995  C 4.565348672775112 11.789093335892112  4.806007022026096 12.909230163545272  4.685111104166667 14.019999999999998  C 4.682429360485919 14.040465157763963  4.691550741905148 14.060687084996294  4.708666666666668 14.072222229166668  C 5.0380840533126285 14.293558892801334  5.384071754141996 14.489175298074814  5.743555562500001 14.657333333333332  C 5.772041926211752 14.671537425876203  5.805905151915166 14.669679590260847  5.832666666666668 14.6524444375  C 6.761555562500002 13.987111104166665  7.8435555625000015 13.639999999999999  8.975111104166668 13.639999999999999  L 9.022 13.639999999999999  C 10.146522378993605 13.637476052194486  11.243311228159754 13.988974058581094  12.156888895833333 14.644666666666666  C 12.186888895833334 14.666222229166666  12.229777791666665 14.669111104166666  12.266666666666666 14.651777770833332  C 12.614970167007117 14.489710805339913  12.95032484295581 14.301157377459965  13.26977777083333 14.087777770833332  C 13.30022220833333 14.067333333333332  13.316888874999998 14.035777770833333  13.313555562499996 14.005111104166666  C 13.193890685779113 12.898578811125427  13.434565966653096 11.783195384370194  13.999777770833331 10.824666666666666  L 14.017555562499998 10.7944444375  C 14.581555562499998 9.835111104166666  15.42444445833333 9.0924444375  16.45511110416666 8.647333333333334  L 16.480222229166664 8.636222229166668  C 16.510412435422857 8.623632584802676  16.5310673320213 8.595264231306524  16.53377777083333 8.562666666666667  C 16.56333333333333 8.189333333333336  16.56266666666666 7.810666666666667  16.532222229166663 7.436666666666667  C 16.529628470561097 7.404490439099867  16.509189982574707 7.376494869478024  16.47933333333333 7.364222229166668  C 15.437777770833328 6.914666666666668  14.585111104166662 6.164444458333334  14.012666666666664 5.194666666666667  L 13.998888895833328 5.171333333333334  C 13.433638498015885 4.209032738706747  13.193768742252551 3.090108127514437  13.314888895833331 1.980666666666668  C 13.31733333333333 1.9597777708333346  13.304666666666662 1.9375555625000012  13.282444437499997 1.9224444375000005  C 12.955441995163653 1.7037750051459504  12.612392437611051 1.5101132016285213  12.256222229166662 1.343111104166668  C 12.227931209454338 1.3288289599873415  12.194191047631554 1.330604757978015  12.167555562499999 1.3477777708333345  C 11.250841514734601 2.008346062024763  10.14902697290517 2.3627340380953057  9.019111104166663 2.3604444375000013  L 8.977999999999996 2.3604444375000013  C 7.853510357783236 2.362757482836012  6.756784722289121 2.01127973511607  5.843111104166663 1.355777770833334  Z " stroke-width="0" stroke-dasharray="0" stroke="rgba(255, 255, 255, 0)" fill="none" transform="matrix(1 0 0 1 42 366 )" class="stroke" mask="url(#Clip76)" />
  </g>
</svg>