<?xml version="1.0" encoding="utf-8"?>
<svg version="1.1" xmlns:xlink="http://www.w3.org/1999/xlink" width="110px" height="28px" xmlns="http://www.w3.org/2000/svg">
  <defs>
    <pattern id="BGPattern" patternUnits="userSpaceOnUse" alignment="0 0" imageRepeat="None" />
    <mask fill="white" id="Clip125">
      <path d="M 0 2.0999999999999943  C 0 0.9402020599999901  0.48600668585525986 0  1.0855263157894737 0  L 108.91447368421053 0  C 109.51399322368422 0  110 0.9402020599999901  110 2.0999999999999943  L 110 25.900000000000006  C 110 27.05979794000001  109.51399322368422 28  108.91447368421053 28  L 1.0855263157894737 28  C 0.48600668585525986 28  0 27.05979794000001  0 25.900000000000006  L 0 2.0999999999999943  Z " fill-rule="evenodd" />
    </mask>
  </defs>
  <g>
    <path d="M 0 2.0999999999999943  C 0 0.9402020599999901  0.48600668585525986 0  1.0855263157894737 0  L 108.91447368421053 0  C 109.51399322368422 0  110 0.9402020599999901  110 2.0999999999999943  L 110 25.900000000000006  C 110 27.05979794000001  109.51399322368422 28  108.91447368421053 28  L 1.0855263157894737 28  C 0.48600668585525986 28  0 27.05979794000001  0 25.900000000000006  L 0 2.0999999999999943  Z " fill-rule="nonzero" fill="rgba(255, 255, 255, 1)" stroke="none" class="fill" />
    <path d="M 0 2.0999999999999943  C 0 0.9402020599999901  0.48600668585525986 0  1.0855263157894737 0  L 108.91447368421053 0  C 109.51399322368422 0  110 0.9402020599999901  110 2.0999999999999943  L 110 25.900000000000006  C 110 27.05979794000001  109.51399322368422 28  108.91447368421053 28  L 1.0855263157894737 28  C 0.48600668585525986 28  0 27.05979794000001  0 25.900000000000006  L 0 2.0999999999999943  Z " stroke-width="0" stroke-dasharray="0" stroke="rgba(255, 255, 255, 0)" fill="none" class="stroke" mask="url(#Clip125)" />
  </g>
</svg>