<?xml version="1.0" encoding="utf-8"?>
<svg version="1.1" xmlns:xlink="http://www.w3.org/1999/xlink" width="86px" height="28px" xmlns="http://www.w3.org/2000/svg">
  <defs>
    <pattern id="BGPattern" patternUnits="userSpaceOnUse" alignment="0 0" imageRepeat="None" />
    <mask fill="white" id="Clip124">
      <path d="M 0.671875 0  C 0.671875 0  85.328125 0  85.328125 0  C 85.513658175 0  85.681626925 0.24484427712500012  85.80321238124999 0.6407039187500001  C 85.9247978375 1.0365635525  86 1.5834385525  86 2.1875  C 86 2.1875  86 25.8125  86 25.8125  C 86 26.416561412500002  85.9247978375 26.963436412500002  85.80321238124999 27.359296125  C 85.681626925 27.755155750000004  85.513658175 28  85.328125 28  C 85.328125 28  0.671875 28  0.671875 28  C 0.48634184112500006 28  0.318373091125 27.755155750000004  0.19678763218750037 27.359296125  C 0.07520217083124955 26.963436412500002  0 26.416561412500002  0 25.8125  C 0 25.8125  0 2.1875  0 2.1875  C 0 1.5834385525  0.07520217083124955 1.0365635525  0.19678763218750037 0.6407039187500001  C 0.318373091125 0.24484427712500012  0.48634184112500006 0  0.671875 0  Z " fill-rule="evenodd" />
    </mask>
  </defs>
  <g transform="matrix(1 0 0 1 -78 -2 )">
    <path d="M 0.671875 0  C 0.671875 0  85.328125 0  85.328125 0  C 85.513658175 0  85.681626925 0.24484427712500012  85.80321238124999 0.6407039187500001  C 85.9247978375 1.0365635525  86 1.5834385525  86 2.1875  C 86 2.1875  86 25.8125  86 25.8125  C 86 26.416561412500002  85.9247978375 26.963436412500002  85.80321238124999 27.359296125  C 85.681626925 27.755155750000004  85.513658175 28  85.328125 28  C 85.328125 28  0.671875 28  0.671875 28  C 0.48634184112500006 28  0.318373091125 27.755155750000004  0.19678763218750037 27.359296125  C 0.07520217083124955 26.963436412500002  0 26.416561412500002  0 25.8125  C 0 25.8125  0 2.1875  0 2.1875  C 0 1.5834385525  0.07520217083124955 1.0365635525  0.19678763218750037 0.6407039187500001  C 0.318373091125 0.24484427712500012  0.48634184112500006 0  0.671875 0  Z " fill-rule="nonzero" fill="rgba(255, 255, 255, 0)" stroke="none" transform="matrix(1 0 0 1 78 2 )" class="fill" />
    <path d="M 0.671875 0  C 0.671875 0  85.328125 0  85.328125 0  C 85.513658175 0  85.681626925 0.24484427712500012  85.80321238124999 0.6407039187500001  C 85.9247978375 1.0365635525  86 1.5834385525  86 2.1875  C 86 2.1875  86 25.8125  86 25.8125  C 86 26.416561412500002  85.9247978375 26.963436412500002  85.80321238124999 27.359296125  C 85.681626925 27.755155750000004  85.513658175 28  85.328125 28  C 85.328125 28  0.671875 28  0.671875 28  C 0.48634184112500006 28  0.318373091125 27.755155750000004  0.19678763218750037 27.359296125  C 0.07520217083124955 26.963436412500002  0 26.416561412500002  0 25.8125  C 0 25.8125  0 2.1875  0 2.1875  C 0 1.5834385525  0.07520217083124955 1.0365635525  0.19678763218750037 0.6407039187500001  C 0.318373091125 0.24484427712500012  0.48634184112500006 0  0.671875 0  Z " stroke-width="0" stroke-dasharray="0" stroke="rgba(0, 82, 217, 1)" fill="none" transform="matrix(1 0 0 1 78 2 )" class="stroke" mask="url(#Clip124)" />
  </g>
</svg>