<?xml version="1.0" encoding="utf-8"?>
<svg version="1.1" xmlns:xlink="http://www.w3.org/1999/xlink" width="79px" height="80px" xmlns="http://www.w3.org/2000/svg">
  <defs>
    <pattern id="BGPattern" patternUnits="userSpaceOnUse" alignment="0 0" imageRepeat="None" />
    <mask fill="white" id="Clip90">
      <path d="M 55.38174975984252 76.7905578125  C 50.48167936809783 78.89841672942975  45.208323895512336 79.99004425927092  39.87805380019685 79.99994914062499  C 39.85702639072858 79.99998261768137  39.835998958150014 79.99999935621744  39.81497152228409 79.99999935621744  C 17.827964300222593 79.99999935621744  0.003973248662049639 62.09140075219696  0.003973248662049639 40.00002482496744  C 0.003973248662049639 23.9029978390271  9.607447868408526 9.374312230398798  24.37435776279527 3.1311134374999994  C 29.031131054353363 1.2829665209537555  33.99309175329907 0.3340066544226773  38.99998569279324 0.3340066544226773  C 60.98699291485474 0.3340066544226773  78.81098396641528 18.24260525844316  78.81098396641528 40.33398118567267  C 78.81098396641528 56.056527607954976  69.64381466899026 70.32091230768694  55.38174975984252 76.7905578125  Z M 73.45641044488188 39.999974531250004  C 73.45641036712598 21.4481271875  58.34225454330708 6.262226953124999  39.87805380019685 6.262226953125003  C 21.335944983267716 6.262226953124999  6.299697077755905 21.369849453125  6.299697077755905 39.999974531250004  C 6.299697077755905 58.630099609375  21.335944983267716 73.7377221875  39.87805380019685 73.7377221875  C 58.42016261712599 73.7377221875  73.4564105226378 58.551821875  73.45641044488188 39.999974531250004  Z " fill-rule="evenodd" />
    </mask>
  </defs>
  <g transform="matrix(1 0 0 1 -291 -171 )">
    <path d="M 55.38174975984252 76.7905578125  C 50.48167936809783 78.89841672942975  45.208323895512336 79.99004425927092  39.87805380019685 79.99994914062499  C 39.85702639072858 79.99998261768137  39.835998958150014 79.99999935621744  39.81497152228409 79.99999935621744  C 17.827964300222593 79.99999935621744  0.003973248662049639 62.09140075219696  0.003973248662049639 40.00002482496744  C 0.003973248662049639 23.9029978390271  9.607447868408526 9.374312230398798  24.37435776279527 3.1311134374999994  C 29.031131054353363 1.2829665209537555  33.99309175329907 0.3340066544226773  38.99998569279324 0.3340066544226773  C 60.98699291485474 0.3340066544226773  78.81098396641528 18.24260525844316  78.81098396641528 40.33398118567267  C 78.81098396641528 56.056527607954976  69.64381466899026 70.32091230768694  55.38174975984252 76.7905578125  Z M 73.45641044488188 39.999974531250004  C 73.45641036712598 21.4481271875  58.34225454330708 6.262226953124999  39.87805380019685 6.262226953125003  C 21.335944983267716 6.262226953124999  6.299697077755905 21.369849453125  6.299697077755905 39.999974531250004  C 6.299697077755905 58.630099609375  21.335944983267716 73.7377221875  39.87805380019685 73.7377221875  C 58.42016261712599 73.7377221875  73.4564105226378 58.551821875  73.45641044488188 39.999974531250004  Z " fill-rule="nonzero" fill="rgba(255, 255, 255, 1)" stroke="none" transform="matrix(1 0 0 1 291 171 )" class="fill" />
    <path d="M 55.38174975984252 76.7905578125  C 50.48167936809783 78.89841672942975  45.208323895512336 79.99004425927092  39.87805380019685 79.99994914062499  C 39.85702639072858 79.99998261768137  39.835998958150014 79.99999935621744  39.81497152228409 79.99999935621744  C 17.827964300222593 79.99999935621744  0.003973248662049639 62.09140075219696  0.003973248662049639 40.00002482496744  C 0.003973248662049639 23.9029978390271  9.607447868408526 9.374312230398798  24.37435776279527 3.1311134374999994  C 29.031131054353363 1.2829665209537555  33.99309175329907 0.3340066544226773  38.99998569279324 0.3340066544226773  C 60.98699291485474 0.3340066544226773  78.81098396641528 18.24260525844316  78.81098396641528 40.33398118567267  C 78.81098396641528 56.056527607954976  69.64381466899026 70.32091230768694  55.38174975984252 76.7905578125  Z " stroke-width="0" stroke-dasharray="0" stroke="rgba(255, 255, 255, 0)" fill="none" transform="matrix(1 0 0 1 291 171 )" class="stroke" mask="url(#Clip90)" />
    <path d="M 73.45641044488188 39.999974531250004  C 73.45641036712598 21.4481271875  58.34225454330708 6.262226953124999  39.87805380019685 6.262226953125003  C 21.335944983267716 6.262226953124999  6.299697077755905 21.369849453125  6.299697077755905 39.999974531250004  C 6.299697077755905 58.630099609375  21.335944983267716 73.7377221875  39.87805380019685 73.7377221875  C 58.42016261712599 73.7377221875  73.4564105226378 58.551821875  73.45641044488188 39.999974531250004  Z " stroke-width="0" stroke-dasharray="0" stroke="rgba(255, 255, 255, 0)" fill="none" transform="matrix(1 0 0 1 291 171 )" class="stroke" mask="url(#Clip90)" />
  </g>
</svg>