<?xml version="1.0" encoding="utf-8"?>
<svg version="1.1" xmlns:xlink="http://www.w3.org/1999/xlink" width="34px" height="39px" xmlns="http://www.w3.org/2000/svg">
  <defs>
    <pattern id="BGPattern" patternUnits="userSpaceOnUse" alignment="0 0" imageRepeat="None" />
    <mask fill="white" id="Clip437">
      <path d="M 8.089674322727275 38.722991020161295  L 8.012250450000005 38.80177385080646  C 3.7358595799965753 38.8017738606548  0.26947365279907454 35.274545296215216  0.26947365279907454 30.923488358638668  C 0.26947365279907454 30.897226919392402  0.26960269741854054 30.870965644287118  0.2698607818181831 30.84470551814516  L 0.2698607818181831 8.076460385080644  C 0.26985042129192555 8.071198713041982  0.2698452410248985 8.065937031763593  0.2698452410248985 8.060675349163494  C 0.2698452410248985 3.7096184115869475  3.7362311682224036 0.18238984714736536  8.012234909206716 0.18238984714736536  C 9.463320923021106 0.18238984714736536  10.885201326432831 0.597340221565671  12.115717018181822 1.3799177358870944  L 30.078060977272735 12.803431717741935  C 32.3560031106055 14.23995259716123  33.741893825975886 16.77300383621266  33.741893825975886 19.49997440625  C 33.741893825975886 22.226944976287342  32.3560031106055 24.759996215338777  30.078060977272735 26.196517094758065  L 12.115717018181819 37.541248167338715  C 10.905959165105255 38.30422356554437  9.51292470324248 38.71311354599601  8.089674322727275 38.722991020161295  Z M 8.012250450000002 6.422020469758067  L 8.012250450000005 6.500803300403233  C 7.738732920213908 6.512010040828233  7.4724234245729555 6.5933051860588545  7.238011490909091 6.737151870967751  C 6.7665041678428715 7.014059159072084  6.472537541079995 7.522574006414369  7 8.07646038508065  L 7 30.84470551814516  C 6.4636578027284735 30.852535236233685  6.463600435792731 30.860365715814442  6.463600435792731 30.868196304185396  C 6.463600435792731 31.73840768301559  7.156877614312998 32.44385338886282  8.01207835397455 32.44385338886282  C 8.314883291604087 32.44385338886282  8.61104355070715 32.353514190878435  8.86391335909091 32.18401403225807  L 26.82625731818183 20.760500050403227  C 27.281845731057143 20.47319587531465  27.559023864400075 19.966585637950544  27.559023864400075 19.421191536290326  C 27.559023864400075 18.875797434630112  27.281845731057143 18.369187197265997  26.826257318181824 18.081883022177422  L 8.78648940909091 6.737151870967741  C 8.563683502064162 6.558317530501791  8.294799247244036 6.44887603186656  8.012250450000002 6.422020469758067  Z " fill-rule="evenodd" />
    </mask>
  </defs>
  <g transform="matrix(1 0 0 1 -316 -192 )">
    <path d="M 8.089674322727275 38.722991020161295  L 8.012250450000005 38.80177385080646  C 3.7358595799965753 38.8017738606548  0.26947365279907454 35.274545296215216  0.26947365279907454 30.923488358638668  C 0.26947365279907454 30.897226919392402  0.26960269741854054 30.870965644287118  0.2698607818181831 30.84470551814516  L 0.2698607818181831 8.076460385080644  C 0.26985042129192555 8.071198713041982  0.2698452410248985 8.065937031763593  0.2698452410248985 8.060675349163494  C 0.2698452410248985 3.7096184115869475  3.7362311682224036 0.18238984714736536  8.012234909206716 0.18238984714736536  C 9.463320923021106 0.18238984714736536  10.885201326432831 0.597340221565671  12.115717018181822 1.3799177358870944  L 30.078060977272735 12.803431717741935  C 32.3560031106055 14.23995259716123  33.741893825975886 16.77300383621266  33.741893825975886 19.49997440625  C 33.741893825975886 22.226944976287342  32.3560031106055 24.759996215338777  30.078060977272735 26.196517094758065  L 12.115717018181819 37.541248167338715  C 10.905959165105255 38.30422356554437  9.51292470324248 38.71311354599601  8.089674322727275 38.722991020161295  Z M 8.012250450000002 6.422020469758067  L 8.012250450000005 6.500803300403233  C 7.738732920213908 6.512010040828233  7.4724234245729555 6.5933051860588545  7.238011490909091 6.737151870967751  C 6.7665041678428715 7.014059159072084  6.472537541079995 7.522574006414369  7 8.07646038508065  L 7 30.84470551814516  C 6.4636578027284735 30.852535236233685  6.463600435792731 30.860365715814442  6.463600435792731 30.868196304185396  C 6.463600435792731 31.73840768301559  7.156877614312998 32.44385338886282  8.01207835397455 32.44385338886282  C 8.314883291604087 32.44385338886282  8.61104355070715 32.353514190878435  8.86391335909091 32.18401403225807  L 26.82625731818183 20.760500050403227  C 27.281845731057143 20.47319587531465  27.559023864400075 19.966585637950544  27.559023864400075 19.421191536290326  C 27.559023864400075 18.875797434630112  27.281845731057143 18.369187197265997  26.826257318181824 18.081883022177422  L 8.78648940909091 6.737151870967741  C 8.563683502064162 6.558317530501791  8.294799247244036 6.44887603186656  8.012250450000002 6.422020469758067  Z " fill-rule="nonzero" fill="rgba(255, 255, 255, 1)" stroke="none" transform="matrix(1 0 0 1 316 192 )" class="fill" />
    <path d="M 8.089674322727275 38.722991020161295  L 8.012250450000005 38.80177385080646  C 3.7358595799965753 38.8017738606548  0.26947365279907454 35.274545296215216  0.26947365279907454 30.923488358638668  C 0.26947365279907454 30.897226919392402  0.26960269741854054 30.870965644287118  0.2698607818181831 30.84470551814516  L 0.2698607818181831 8.076460385080644  C 0.26985042129192555 8.071198713041982  0.2698452410248985 8.065937031763593  0.2698452410248985 8.060675349163494  C 0.2698452410248985 3.7096184115869475  3.7362311682224036 0.18238984714736536  8.012234909206716 0.18238984714736536  C 9.463320923021106 0.18238984714736536  10.885201326432831 0.597340221565671  12.115717018181822 1.3799177358870944  L 30.078060977272735 12.803431717741935  C 32.3560031106055 14.23995259716123  33.741893825975886 16.77300383621266  33.741893825975886 19.49997440625  C 33.741893825975886 22.226944976287342  32.3560031106055 24.759996215338777  30.078060977272735 26.196517094758065  L 12.115717018181819 37.541248167338715  C 10.905959165105255 38.30422356554437  9.51292470324248 38.71311354599601  8.089674322727275 38.722991020161295  Z " stroke-width="0" stroke-dasharray="0" stroke="rgba(255, 255, 255, 0)" fill="none" transform="matrix(1 0 0 1 316 192 )" class="stroke" mask="url(#Clip437)" />
    <path d="M 8.012250450000002 6.422020469758067  L 8.012250450000005 6.500803300403233  C 7.738732920213908 6.512010040828233  7.4724234245729555 6.5933051860588545  7.238011490909091 6.737151870967751  C 6.7665041678428715 7.014059159072084  6.472537541079995 7.522574006414369  7 8.07646038508065  L 7 30.84470551814516  C 6.4636578027284735 30.852535236233685  6.463600435792731 30.860365715814442  6.463600435792731 30.868196304185396  C 6.463600435792731 31.73840768301559  7.156877614312998 32.44385338886282  8.01207835397455 32.44385338886282  C 8.314883291604087 32.44385338886282  8.61104355070715 32.353514190878435  8.86391335909091 32.18401403225807  L 26.82625731818183 20.760500050403227  C 27.281845731057143 20.47319587531465  27.559023864400075 19.966585637950544  27.559023864400075 19.421191536290326  C 27.559023864400075 18.875797434630112  27.281845731057143 18.369187197265997  26.826257318181824 18.081883022177422  L 8.78648940909091 6.737151870967741  C 8.563683502064162 6.558317530501791  8.294799247244036 6.44887603186656  8.012250450000002 6.422020469758067  Z " stroke-width="0" stroke-dasharray="0" stroke="rgba(255, 255, 255, 0)" fill="none" transform="matrix(1 0 0 1 316 192 )" class="stroke" mask="url(#Clip437)" />
  </g>
</svg>