<?xml version="1.0" encoding="utf-8"?>
<svg version="1.1" xmlns:xlink="http://www.w3.org/1999/xlink" width="30px" height="30px" xmlns="http://www.w3.org/2000/svg">
  <defs>
    <pattern id="BGPattern" patternUnits="userSpaceOnUse" alignment="0 0" imageRepeat="None" />
    <mask fill="white" id="Clip264">
      <path d="M 30 15  C 30 17.025669642857142  29.608407079646017 18.987723214285715  28.831858407079647 20.839285714285715  C 28.081858407079647 22.62723214285714  27.009955752212388 24.23102678571428  25.646017699115042 25.607142857142858  C 24.2820796460177 26.983258928571427  22.692477876106196 28.06473214285714  20.920353982300885 28.82142857142857  C 19.085176991150444 29.604910714285715  17.140486725663717 30  15.132743362831858 30  C 13.125 30  11.180309734513274 29.604910714285715  9.345132743362832 28.82142857142857  C 7.573008849557522 28.06473214285714  5.983407079646019 26.983258928571427  4.619469026548674 25.607142857142858  C 3.2555309734513282 24.23102678571428  2.1836283185840744 22.62723214285714  1.4336283185840737 20.839285714285715  C 0.6935840707964647 19.071428571428573  0.3019911504424799 17.19977678571428  0.2654867256637172 15.274553571428573  C 0.26216814159292 15.12388392857143  0.3816371681415931 15.003348214285715  0.5309734513274345 15.003348214285715  L 2.5221238938053103 15.003348214285715  C 2.6681415929203545 15.003348214285715  2.7842920353982303 15.120535714285715  2.7876106194690276 15.267857142857142  C 2.86061946902655 18.6328125  4.2477876106194685 21.783482142857146  6.710176991150442 24.107142857142858  C 9.019911504424782 26.283482142857142  12.079646017699114 27.482142857142858  15.238938053097346 27.455357142857142  C 18.46128318584071 27.42857142857143  21.487831858407084 26.162946428571427  23.78429203539823 23.882812499999996  C 26.037610619469028 21.646205357142858  27.36172566371682 18.61607142857143  27.4679203539823 15.428571428571427  C 27.587389380530976 11.943080357142858  26.293141592920353 8.645089285714286  23.86061946902655 6.194196428571428  C 21.527654867256636 3.840401785714285  18.428097345132745 2.544642857142857  15.132743362831858 2.544642857142857  C 13.115044247787612 2.544642857142857  11.193584070796458 3.0200892857142856  9.42146017699115 3.954241071428571  C 8.193584070796458 4.600446428571429  7.07522123893805 5.464285714285714  6.126106194690266 6.485491071428571  L 7.7953539823008855 7.764508928571428  C 7.971238938053094 7.898437499999999  7.918141592920356 8.176339285714286  7.705752212389378 8.236607142857144  L 2.216814159292033 9.78013392857143  C 2.047566371681415 9.827008928571429  1.881637168141591 9.699776785714288  1.881637168141591 9.52232142857143  L 1.881637168141591 3.7700892857142856  C 1.881637168141591 3.549107142857143  2.133849557522123 3.4218749999999996  2.306415929203535 3.5558035714285707  L 4.111725663716809 4.938616071428572  C 5.293141592920351 3.6227678571428568  6.703539823008845 2.517857142857143  8.256637168141589 1.6975446428571428  C 10.360619469026549 0.5892857142857141  12.74004424778761 0  15.132743362831858 0  C 17.140486725663717 0  19.085176991150444 0.3984375000000002  20.920353982300885 1.1785714285714288  C 22.692477876106192 1.9352678571428574  24.2820796460177 3.016741071428571  25.646017699115042 4.392857142857142  C 27.009955752212388 5.7689732142857135  28.081858407079647 7.372767857142857  28.831858407079647 9.160714285714286  C 29.608407079646017 11.012276785714285  30 12.974330357142856  30 15  Z " fill-rule="evenodd" />
    </mask>
  </defs>
  <g transform="matrix(1 0 0 1 -23 -162 )">
    <path d="M 30 15  C 30 17.025669642857142  29.608407079646017 18.987723214285715  28.831858407079647 20.839285714285715  C 28.081858407079647 22.62723214285714  27.009955752212388 24.23102678571428  25.646017699115042 25.607142857142858  C 24.2820796460177 26.983258928571427  22.692477876106196 28.06473214285714  20.920353982300885 28.82142857142857  C 19.085176991150444 29.604910714285715  17.140486725663717 30  15.132743362831858 30  C 13.125 30  11.180309734513274 29.604910714285715  9.345132743362832 28.82142857142857  C 7.573008849557522 28.06473214285714  5.983407079646019 26.983258928571427  4.619469026548674 25.607142857142858  C 3.2555309734513282 24.23102678571428  2.1836283185840744 22.62723214285714  1.4336283185840737 20.839285714285715  C 0.6935840707964647 19.071428571428573  0.3019911504424799 17.19977678571428  0.2654867256637172 15.274553571428573  C 0.26216814159292 15.12388392857143  0.3816371681415931 15.003348214285715  0.5309734513274345 15.003348214285715  L 2.5221238938053103 15.003348214285715  C 2.6681415929203545 15.003348214285715  2.7842920353982303 15.120535714285715  2.7876106194690276 15.267857142857142  C 2.86061946902655 18.6328125  4.2477876106194685 21.783482142857146  6.710176991150442 24.107142857142858  C 9.019911504424782 26.283482142857142  12.079646017699114 27.482142857142858  15.238938053097346 27.455357142857142  C 18.46128318584071 27.42857142857143  21.487831858407084 26.162946428571427  23.78429203539823 23.882812499999996  C 26.037610619469028 21.646205357142858  27.36172566371682 18.61607142857143  27.4679203539823 15.428571428571427  C 27.587389380530976 11.943080357142858  26.293141592920353 8.645089285714286  23.86061946902655 6.194196428571428  C 21.527654867256636 3.840401785714285  18.428097345132745 2.544642857142857  15.132743362831858 2.544642857142857  C 13.115044247787612 2.544642857142857  11.193584070796458 3.0200892857142856  9.42146017699115 3.954241071428571  C 8.193584070796458 4.600446428571429  7.07522123893805 5.464285714285714  6.126106194690266 6.485491071428571  L 7.7953539823008855 7.764508928571428  C 7.971238938053094 7.898437499999999  7.918141592920356 8.176339285714286  7.705752212389378 8.236607142857144  L 2.216814159292033 9.78013392857143  C 2.047566371681415 9.827008928571429  1.881637168141591 9.699776785714288  1.881637168141591 9.52232142857143  L 1.881637168141591 3.7700892857142856  C 1.881637168141591 3.549107142857143  2.133849557522123 3.4218749999999996  2.306415929203535 3.5558035714285707  L 4.111725663716809 4.938616071428572  C 5.293141592920351 3.6227678571428568  6.703539823008845 2.517857142857143  8.256637168141589 1.6975446428571428  C 10.360619469026549 0.5892857142857141  12.74004424778761 0  15.132743362831858 0  C 17.140486725663717 0  19.085176991150444 0.3984375000000002  20.920353982300885 1.1785714285714288  C 22.692477876106192 1.9352678571428574  24.2820796460177 3.016741071428571  25.646017699115042 4.392857142857142  C 27.009955752212388 5.7689732142857135  28.081858407079647 7.372767857142857  28.831858407079647 9.160714285714286  C 29.608407079646017 11.012276785714285  30 12.974330357142856  30 15  Z " fill-rule="nonzero" fill="rgba(0, 82, 217, 1)" stroke="none" transform="matrix(1 0 0 1 23 162 )" class="fill" />
    <path d="M 30 15  C 30 17.025669642857142  29.608407079646017 18.987723214285715  28.831858407079647 20.839285714285715  C 28.081858407079647 22.62723214285714  27.009955752212388 24.23102678571428  25.646017699115042 25.607142857142858  C 24.2820796460177 26.983258928571427  22.692477876106196 28.06473214285714  20.920353982300885 28.82142857142857  C 19.085176991150444 29.604910714285715  17.140486725663717 30  15.132743362831858 30  C 13.125 30  11.180309734513274 29.604910714285715  9.345132743362832 28.82142857142857  C 7.573008849557522 28.06473214285714  5.983407079646019 26.983258928571427  4.619469026548674 25.607142857142858  C 3.2555309734513282 24.23102678571428  2.1836283185840744 22.62723214285714  1.4336283185840737 20.839285714285715  C 0.6935840707964647 19.071428571428573  0.3019911504424799 17.19977678571428  0.2654867256637172 15.274553571428573  C 0.26216814159292 15.12388392857143  0.3816371681415931 15.003348214285715  0.5309734513274345 15.003348214285715  L 2.5221238938053103 15.003348214285715  C 2.6681415929203545 15.003348214285715  2.7842920353982303 15.120535714285715  2.7876106194690276 15.267857142857142  C 2.86061946902655 18.6328125  4.2477876106194685 21.783482142857146  6.710176991150442 24.107142857142858  C 9.019911504424782 26.283482142857142  12.079646017699114 27.482142857142858  15.238938053097346 27.455357142857142  C 18.46128318584071 27.42857142857143  21.487831858407084 26.162946428571427  23.78429203539823 23.882812499999996  C 26.037610619469028 21.646205357142858  27.36172566371682 18.61607142857143  27.4679203539823 15.428571428571427  C 27.587389380530976 11.943080357142858  26.293141592920353 8.645089285714286  23.86061946902655 6.194196428571428  C 21.527654867256636 3.840401785714285  18.428097345132745 2.544642857142857  15.132743362831858 2.544642857142857  C 13.115044247787612 2.544642857142857  11.193584070796458 3.0200892857142856  9.42146017699115 3.954241071428571  C 8.193584070796458 4.600446428571429  7.07522123893805 5.464285714285714  6.126106194690266 6.485491071428571  L 7.7953539823008855 7.764508928571428  C 7.971238938053094 7.898437499999999  7.918141592920356 8.176339285714286  7.705752212389378 8.236607142857144  L 2.216814159292033 9.78013392857143  C 2.047566371681415 9.827008928571429  1.881637168141591 9.699776785714288  1.881637168141591 9.52232142857143  L 1.881637168141591 3.7700892857142856  C 1.881637168141591 3.549107142857143  2.133849557522123 3.4218749999999996  2.306415929203535 3.5558035714285707  L 4.111725663716809 4.938616071428572  C 5.293141592920351 3.6227678571428568  6.703539823008845 2.517857142857143  8.256637168141589 1.6975446428571428  C 10.360619469026549 0.5892857142857141  12.74004424778761 0  15.132743362831858 0  C 17.140486725663717 0  19.085176991150444 0.3984375000000002  20.920353982300885 1.1785714285714288  C 22.692477876106192 1.9352678571428574  24.2820796460177 3.016741071428571  25.646017699115042 4.392857142857142  C 27.009955752212388 5.7689732142857135  28.081858407079647 7.372767857142857  28.831858407079647 9.160714285714286  C 29.608407079646017 11.012276785714285  30 12.974330357142856  30 15  Z " stroke-width="0" stroke-dasharray="0" stroke="rgba(255, 255, 255, 0)" fill="none" transform="matrix(1 0 0 1 23 162 )" class="stroke" mask="url(#Clip264)" />
  </g>
</svg>