<?xml version="1.0" encoding="utf-8"?>
<svg version="1.1" xmlns:xlink="http://www.w3.org/1999/xlink" width="30px" height="30px" xmlns="http://www.w3.org/2000/svg">
  <defs>
    <pattern id="BGPattern" patternUnits="userSpaceOnUse" alignment="0 0" imageRepeat="None" />
    <mask fill="white" id="Clip263">
      <path d="M 0 15  C 0 17.025669642857142  0.3915929203539822 18.987723214285715  1.1681415929203542 20.839285714285715  C 1.9181415929203542 22.62723214285714  2.9900442477876106 24.23102678571428  4.353982300884955 25.607142857142858  C 5.717920353982301 26.983258928571427  7.307522123893805 28.06473214285714  9.079646017699115 28.82142857142857  C 10.914823008849556 29.604910714285715  12.859513274336283 30  14.867256637168142 30  C 16.875 30  18.819690265486724 29.604910714285715  20.654867256637168 28.82142857142857  C 22.42699115044248 28.06473214285714  24.01659292035398 26.983258928571427  25.380530973451325 25.607142857142858  C 26.74446902654867 24.23102678571428  27.816371681415927 22.62723214285714  28.566371681415927 20.839285714285715  C 29.306415929203535 19.071428571428573  29.69800884955752 17.19977678571428  29.734513274336283 15.274553571428573  C 29.73783185840708 15.12388392857143  29.618362831858406 15.003348214285715  29.469026548672566 15.003348214285715  L 27.47787610619469 15.003348214285715  C 27.331858407079647 15.003348214285715  27.21570796460177 15.120535714285715  27.212389380530972 15.267857142857142  C 27.13938053097345 18.6328125  25.75221238938053 21.783482142857146  23.289823008849556 24.107142857142858  C 20.98008849557522 26.283482142857142  17.920353982300885 27.482142857142858  14.761061946902654 27.455357142857142  C 11.53871681415929 27.42857142857143  8.51216814159292 26.162946428571427  6.215707964601768 23.882812499999996  C 3.962389380530972 21.646205357142858  2.638274336283184 18.61607142857143  2.532079646017698 15.428571428571427  C 2.4126106194690258 11.943080357142858  3.706858407079646 8.645089285714286  6.139380530973452 6.194196428571428  C 8.472345132743362 3.840401785714285  11.571902654867257 2.544642857142857  14.867256637168142 2.544642857142857  C 16.884955752212388 2.544642857142857  18.806415929203542 3.0200892857142856  20.57853982300885 3.954241071428571  C 21.806415929203542 4.600446428571429  22.92477876106195 5.464285714285714  23.873893805309734 6.485491071428571  L 22.204646017699115 7.764508928571428  C 22.028761061946906 7.898437499999999  22.081858407079643 8.176339285714286  22.294247787610622 8.236607142857144  L 27.783185840707965 9.78013392857143  C 27.952433628318584 9.827008928571429  28.11836283185841 9.699776785714288  28.11836283185841 9.52232142857143  L 28.11836283185841 3.7700892857142856  C 28.11836283185841 3.549107142857143  27.866150442477878 3.4218749999999996  27.693584070796465 3.5558035714285707  L 25.88827433628319 4.938616071428572  C 24.706858407079647 3.6227678571428568  23.296460176991154 2.517857142857143  21.743362831858413 1.6975446428571428  C 19.63938053097345 0.5892857142857141  17.25995575221239 0  14.867256637168142 0  C 12.859513274336283 0  10.914823008849556 0.3984375000000002  9.079646017699115 1.1785714285714288  C 7.307522123893807 1.9352678571428574  5.717920353982302 3.016741071428571  4.353982300884956 4.392857142857142  C 2.9900442477876115 5.7689732142857135  1.9181415929203542 7.372767857142857  1.1681415929203547 9.160714285714286  C 0.3915929203539822 11.012276785714285  0 12.974330357142856  0 15  Z " fill-rule="evenodd" />
    </mask>
  </defs>
  <g transform="matrix(1 0 0 1 -133 -162 )">
    <path d="M 0 15  C 0 17.025669642857142  0.3915929203539822 18.987723214285715  1.1681415929203542 20.839285714285715  C 1.9181415929203542 22.62723214285714  2.9900442477876106 24.23102678571428  4.353982300884955 25.607142857142858  C 5.717920353982301 26.983258928571427  7.307522123893805 28.06473214285714  9.079646017699115 28.82142857142857  C 10.914823008849556 29.604910714285715  12.859513274336283 30  14.867256637168142 30  C 16.875 30  18.819690265486724 29.604910714285715  20.654867256637168 28.82142857142857  C 22.42699115044248 28.06473214285714  24.01659292035398 26.983258928571427  25.380530973451325 25.607142857142858  C 26.74446902654867 24.23102678571428  27.816371681415927 22.62723214285714  28.566371681415927 20.839285714285715  C 29.306415929203535 19.071428571428573  29.69800884955752 17.19977678571428  29.734513274336283 15.274553571428573  C 29.73783185840708 15.12388392857143  29.618362831858406 15.003348214285715  29.469026548672566 15.003348214285715  L 27.47787610619469 15.003348214285715  C 27.331858407079647 15.003348214285715  27.21570796460177 15.120535714285715  27.212389380530972 15.267857142857142  C 27.13938053097345 18.6328125  25.75221238938053 21.783482142857146  23.289823008849556 24.107142857142858  C 20.98008849557522 26.283482142857142  17.920353982300885 27.482142857142858  14.761061946902654 27.455357142857142  C 11.53871681415929 27.42857142857143  8.51216814159292 26.162946428571427  6.215707964601768 23.882812499999996  C 3.962389380530972 21.646205357142858  2.638274336283184 18.61607142857143  2.532079646017698 15.428571428571427  C 2.4126106194690258 11.943080357142858  3.706858407079646 8.645089285714286  6.139380530973452 6.194196428571428  C 8.472345132743362 3.840401785714285  11.571902654867257 2.544642857142857  14.867256637168142 2.544642857142857  C 16.884955752212388 2.544642857142857  18.806415929203542 3.0200892857142856  20.57853982300885 3.954241071428571  C 21.806415929203542 4.600446428571429  22.92477876106195 5.464285714285714  23.873893805309734 6.485491071428571  L 22.204646017699115 7.764508928571428  C 22.028761061946906 7.898437499999999  22.081858407079643 8.176339285714286  22.294247787610622 8.236607142857144  L 27.783185840707965 9.78013392857143  C 27.952433628318584 9.827008928571429  28.11836283185841 9.699776785714288  28.11836283185841 9.52232142857143  L 28.11836283185841 3.7700892857142856  C 28.11836283185841 3.549107142857143  27.866150442477878 3.4218749999999996  27.693584070796465 3.5558035714285707  L 25.88827433628319 4.938616071428572  C 24.706858407079647 3.6227678571428568  23.296460176991154 2.517857142857143  21.743362831858413 1.6975446428571428  C 19.63938053097345 0.5892857142857141  17.25995575221239 0  14.867256637168142 0  C 12.859513274336283 0  10.914823008849556 0.3984375000000002  9.079646017699115 1.1785714285714288  C 7.307522123893807 1.9352678571428574  5.717920353982302 3.016741071428571  4.353982300884956 4.392857142857142  C 2.9900442477876115 5.7689732142857135  1.9181415929203542 7.372767857142857  1.1681415929203547 9.160714285714286  C 0.3915929203539822 11.012276785714285  0 12.974330357142856  0 15  Z " fill-rule="nonzero" fill="rgba(0, 82, 217, 1)" stroke="none" transform="matrix(1 0 0 1 133 162 )" class="fill" />
    <path d="M 0 15  C 0 17.025669642857142  0.3915929203539822 18.987723214285715  1.1681415929203542 20.839285714285715  C 1.9181415929203542 22.62723214285714  2.9900442477876106 24.23102678571428  4.353982300884955 25.607142857142858  C 5.717920353982301 26.983258928571427  7.307522123893805 28.06473214285714  9.079646017699115 28.82142857142857  C 10.914823008849556 29.604910714285715  12.859513274336283 30  14.867256637168142 30  C 16.875 30  18.819690265486724 29.604910714285715  20.654867256637168 28.82142857142857  C 22.42699115044248 28.06473214285714  24.01659292035398 26.983258928571427  25.380530973451325 25.607142857142858  C 26.74446902654867 24.23102678571428  27.816371681415927 22.62723214285714  28.566371681415927 20.839285714285715  C 29.306415929203535 19.071428571428573  29.69800884955752 17.19977678571428  29.734513274336283 15.274553571428573  C 29.73783185840708 15.12388392857143  29.618362831858406 15.003348214285715  29.469026548672566 15.003348214285715  L 27.47787610619469 15.003348214285715  C 27.331858407079647 15.003348214285715  27.21570796460177 15.120535714285715  27.212389380530972 15.267857142857142  C 27.13938053097345 18.6328125  25.75221238938053 21.783482142857146  23.289823008849556 24.107142857142858  C 20.98008849557522 26.283482142857142  17.920353982300885 27.482142857142858  14.761061946902654 27.455357142857142  C 11.53871681415929 27.42857142857143  8.51216814159292 26.162946428571427  6.215707964601768 23.882812499999996  C 3.962389380530972 21.646205357142858  2.638274336283184 18.61607142857143  2.532079646017698 15.428571428571427  C 2.4126106194690258 11.943080357142858  3.706858407079646 8.645089285714286  6.139380530973452 6.194196428571428  C 8.472345132743362 3.840401785714285  11.571902654867257 2.544642857142857  14.867256637168142 2.544642857142857  C 16.884955752212388 2.544642857142857  18.806415929203542 3.0200892857142856  20.57853982300885 3.954241071428571  C 21.806415929203542 4.600446428571429  22.92477876106195 5.464285714285714  23.873893805309734 6.485491071428571  L 22.204646017699115 7.764508928571428  C 22.028761061946906 7.898437499999999  22.081858407079643 8.176339285714286  22.294247787610622 8.236607142857144  L 27.783185840707965 9.78013392857143  C 27.952433628318584 9.827008928571429  28.11836283185841 9.699776785714288  28.11836283185841 9.52232142857143  L 28.11836283185841 3.7700892857142856  C 28.11836283185841 3.549107142857143  27.866150442477878 3.4218749999999996  27.693584070796465 3.5558035714285707  L 25.88827433628319 4.938616071428572  C 24.706858407079647 3.6227678571428568  23.296460176991154 2.517857142857143  21.743362831858413 1.6975446428571428  C 19.63938053097345 0.5892857142857141  17.25995575221239 0  14.867256637168142 0  C 12.859513274336283 0  10.914823008849556 0.3984375000000002  9.079646017699115 1.1785714285714288  C 7.307522123893807 1.9352678571428574  5.717920353982302 3.016741071428571  4.353982300884956 4.392857142857142  C 2.9900442477876115 5.7689732142857135  1.9181415929203542 7.372767857142857  1.1681415929203547 9.160714285714286  C 0.3915929203539822 11.012276785714285  0 12.974330357142856  0 15  Z " stroke-width="0" stroke-dasharray="0" stroke="rgba(255, 255, 255, 0)" fill="none" transform="matrix(1 0 0 1 133 162 )" class="stroke" mask="url(#Clip263)" />
  </g>
</svg>