<?xml version="1.0" encoding="utf-8"?>
<svg version="1.1" xmlns:xlink="http://www.w3.org/1999/xlink" width="30px" height="30px" xmlns="http://www.w3.org/2000/svg">
  <defs>
    <pattern id="BGPattern" patternUnits="userSpaceOnUse" alignment="0 0" imageRepeat="None" />
    <mask fill="white" id="Clip244">
      <path d="M 15.004935410448049 0.18353305069124426  C 6.7438220525887775 0.18353305069124426  0.04687543600666038 6.824671778801843  0.04687543600666038 15.01694252534562  C 0.04687543600666038 23.209285824884795  6.7437854712465635 29.85042455299539  15.004935410448049 29.85042455299539  C 23.26601218696511 29.85042455299539  29.96299538488944 23.20928582488479  29.96299538488944 15.01694252534562  C 29.96299538488944 6.8247080552995385  23.26601218696511 0.18353305069124426  15.004935410448049 0.18353305069124426  Z M 15.004935410448049 28.36700745437788  C 7.569922413972042 28.36700745437788  1.5426485102428074 22.389960833179725  1.5426485102428074 15.016906278341011  C 1.5426485102428074 7.643924247004606  7.569922413972042 1.6668776552995368  15.004935410448049 1.6668776552995368  C 22.43994840692406 1.6668776552995368  28.46718572931108 7.6439242764976925  28.46718572931108 15.016906278341011  C 28.46718572931108 22.389960833179725  22.43994840692406 28.36700745437788  15.004935410448049 28.36700745437788  Z M 21.794780375324326 13.96567492718894  C 19.46701850350463 12.39499371059908  15.246068792626728 10.044049622119815  12.84263499422995 8.587363023041474  C 11.857254204701237 7.971146484792627  11.028630206560043 8.21861236497696  10.949118012314605 9.306983535483871  C 10.891477148278668 12.222097651612904  10.949118012314605 17.846714823963133  10.949118012314605 20.81227960921659  C 10.999114862874183 21.917153341935485  11.981423444216398 22.06288364239631  12.833966911358093 21.619273039631338  C 15.234694225767726 20.176876578801846  19.360807163846186 17.697937887557604  21.773750237540177 16.248215019354838  C 21.758023353444607 16.238712435023043  23.605822639352517 15.2308955281106  21.794780375324326 13.96567492718894  Z " fill-rule="evenodd" />
    </mask>
  </defs>
  <g transform="matrix(1 0 0 1 -78 -162 )">
    <path d="M 15.004935410448049 0.18353305069124426  C 6.7438220525887775 0.18353305069124426  0.04687543600666038 6.824671778801843  0.04687543600666038 15.01694252534562  C 0.04687543600666038 23.209285824884795  6.7437854712465635 29.85042455299539  15.004935410448049 29.85042455299539  C 23.26601218696511 29.85042455299539  29.96299538488944 23.20928582488479  29.96299538488944 15.01694252534562  C 29.96299538488944 6.8247080552995385  23.26601218696511 0.18353305069124426  15.004935410448049 0.18353305069124426  Z M 15.004935410448049 28.36700745437788  C 7.569922413972042 28.36700745437788  1.5426485102428074 22.389960833179725  1.5426485102428074 15.016906278341011  C 1.5426485102428074 7.643924247004606  7.569922413972042 1.6668776552995368  15.004935410448049 1.6668776552995368  C 22.43994840692406 1.6668776552995368  28.46718572931108 7.6439242764976925  28.46718572931108 15.016906278341011  C 28.46718572931108 22.389960833179725  22.43994840692406 28.36700745437788  15.004935410448049 28.36700745437788  Z M 21.794780375324326 13.96567492718894  C 19.46701850350463 12.39499371059908  15.246068792626728 10.044049622119815  12.84263499422995 8.587363023041474  C 11.857254204701237 7.971146484792627  11.028630206560043 8.21861236497696  10.949118012314605 9.306983535483871  C 10.891477148278668 12.222097651612904  10.949118012314605 17.846714823963133  10.949118012314605 20.81227960921659  C 10.999114862874183 21.917153341935485  11.981423444216398 22.06288364239631  12.833966911358093 21.619273039631338  C 15.234694225767726 20.176876578801846  19.360807163846186 17.697937887557604  21.773750237540177 16.248215019354838  C 21.758023353444607 16.238712435023043  23.605822639352517 15.2308955281106  21.794780375324326 13.96567492718894  Z " fill-rule="nonzero" fill="rgba(0, 82, 217, 1)" stroke="none" transform="matrix(1 0 0 1 78 162 )" class="fill" />
    <path d="M 15.004935410448049 0.18353305069124426  C 6.7438220525887775 0.18353305069124426  0.04687543600666038 6.824671778801843  0.04687543600666038 15.01694252534562  C 0.04687543600666038 23.209285824884795  6.7437854712465635 29.85042455299539  15.004935410448049 29.85042455299539  C 23.26601218696511 29.85042455299539  29.96299538488944 23.20928582488479  29.96299538488944 15.01694252534562  C 29.96299538488944 6.8247080552995385  23.26601218696511 0.18353305069124426  15.004935410448049 0.18353305069124426  Z " stroke-width="0" stroke-dasharray="0" stroke="rgba(255, 255, 255, 0)" fill="none" transform="matrix(1 0 0 1 78 162 )" class="stroke" mask="url(#Clip244)" />
    <path d="M 15.004935410448049 28.36700745437788  C 7.569922413972042 28.36700745437788  1.5426485102428074 22.389960833179725  1.5426485102428074 15.016906278341011  C 1.5426485102428074 7.643924247004606  7.569922413972042 1.6668776552995368  15.004935410448049 1.6668776552995368  C 22.43994840692406 1.6668776552995368  28.46718572931108 7.6439242764976925  28.46718572931108 15.016906278341011  C 28.46718572931108 22.389960833179725  22.43994840692406 28.36700745437788  15.004935410448049 28.36700745437788  Z " stroke-width="0" stroke-dasharray="0" stroke="rgba(255, 255, 255, 0)" fill="none" transform="matrix(1 0 0 1 78 162 )" class="stroke" mask="url(#Clip244)" />
    <path d="M 21.794780375324326 13.96567492718894  C 19.46701850350463 12.39499371059908  15.246068792626728 10.044049622119815  12.84263499422995 8.587363023041474  C 11.857254204701237 7.971146484792627  11.028630206560043 8.21861236497696  10.949118012314605 9.306983535483871  C 10.891477148278668 12.222097651612904  10.949118012314605 17.846714823963133  10.949118012314605 20.81227960921659  C 10.999114862874183 21.917153341935485  11.981423444216398 22.06288364239631  12.833966911358093 21.619273039631338  C 15.234694225767726 20.176876578801846  19.360807163846186 17.697937887557604  21.773750237540177 16.248215019354838  C 21.758023353444607 16.238712435023043  23.605822639352517 15.2308955281106  21.794780375324326 13.96567492718894  Z " stroke-width="0" stroke-dasharray="0" stroke="rgba(255, 255, 255, 0)" fill="none" transform="matrix(1 0 0 1 78 162 )" class="stroke" mask="url(#Clip244)" />
  </g>
</svg>