<?xml version="1.0" encoding="utf-8"?>
<svg version="1.1" xmlns:xlink="http://www.w3.org/1999/xlink" width="14px" height="20px" xmlns="http://www.w3.org/2000/svg">
  <defs>
    <pattern id="BGPattern" patternUnits="userSpaceOnUse" alignment="0 0" imageRepeat="None" />
    <mask fill="white" id="Clip445">
      <path d="M 6.999988512820512 15.34994986607143  L 13.913776467948718 9.235741026785714  L 9.30456921153846 9.235741026785714  L 9.304569189102564 0.06438205357142854  L 4.695361932692308 0.06438205357142854  L 4.695361932692308 9.235763861607143  L 0.08620058012820518 9.235763861607143  L 6.999988512820512 15.34994986607143  Z M 0.08620058012820518 18.40709997767857  L 0.08620058012820518 20  L 13.913753493589745 20  L 13.913753493589745 18.4071  L 0.08620058012820518 18.40709997767857  Z " fill-rule="evenodd" />
    </mask>
  </defs>
  <g transform="matrix(1 0 0 1 -220 -167 )">
    <path d="M 6.999988512820512 15.34994986607143  L 13.913776467948718 9.235741026785714  L 9.30456921153846 9.235741026785714  L 9.304569189102564 0.06438205357142854  L 4.695361932692308 0.06438205357142854  L 4.695361932692308 9.235763861607143  L 0.08620058012820518 9.235763861607143  L 6.999988512820512 15.34994986607143  Z M 0.08620058012820518 18.40709997767857  L 0.08620058012820518 20  L 13.913753493589745 20  L 13.913753493589745 18.4071  L 0.08620058012820518 18.40709997767857  Z " fill-rule="nonzero" fill="rgba(0, 82, 217, 1)" stroke="none" transform="matrix(1 0 0 1 220 167 )" class="fill" />
    <path d="M 6.999988512820512 15.34994986607143  L 13.913776467948718 9.235741026785714  L 9.30456921153846 9.235741026785714  L 9.304569189102564 0.06438205357142854  L 4.695361932692308 0.06438205357142854  L 4.695361932692308 9.235763861607143  L 0.08620058012820518 9.235763861607143  L 6.999988512820512 15.34994986607143  Z " stroke-width="0" stroke-dasharray="0" stroke="rgba(255, 255, 255, 0)" fill="none" transform="matrix(1 0 0 1 220 167 )" class="stroke" mask="url(#Clip445)" />
    <path d="M 0.08620058012820518 18.40709997767857  L 0.08620058012820518 20  L 13.913753493589745 20  L 13.913753493589745 18.4071  L 0.08620058012820518 18.40709997767857  Z " stroke-width="0" stroke-dasharray="0" stroke="rgba(255, 255, 255, 0)" fill="none" transform="matrix(1 0 0 1 220 167 )" class="stroke" mask="url(#Clip445)" />
  </g>
</svg>