<?xml version="1.0" encoding="utf-8"?>
<svg version="1.1" xmlns:xlink="http://www.w3.org/1999/xlink" width="10px" height="10px" xmlns="http://www.w3.org/2000/svg">
  <defs>
    <pattern id="BGPattern" patternUnits="userSpaceOnUse" alignment="0 0" imageRepeat="None" />
    <mask fill="white" id="Clip1409">
      <path d="M 0.5086777799999993 5.672608820000001  L 4.35865778 5.672608820000001  L 4.35865778 9.5226288  L 5.658657779999999 9.5226288  L 5.658657779999999 5.672608820000001  L 9.508677800000001 5.672608820000001  L 9.508677800000001 4.37260882  L 5.658657779999999 4.37260882  L 5.658657779999999 0.5226288199999995  L 4.35865778 0.5226288199999995  L 4.35865778 4.37260882  L 0.5086777799999993 4.37260882  L 0.5086777799999993 5.672608820000001  Z " fill-rule="evenodd" />
    </mask>
  </defs>
  <g transform="matrix(1 0 0 1 -276 -251 )">
    <path d="M 0.5086777799999993 5.672608820000001  L 4.35865778 5.672608820000001  L 4.35865778 9.5226288  L 5.658657779999999 9.5226288  L 5.658657779999999 5.672608820000001  L 9.508677800000001 5.672608820000001  L 9.508677800000001 4.37260882  L 5.658657779999999 4.37260882  L 5.658657779999999 0.5226288199999995  L 4.35865778 0.5226288199999995  L 4.35865778 4.37260882  L 0.5086777799999993 4.37260882  L 0.5086777799999993 5.672608820000001  Z " fill-rule="nonzero" fill="rgba(0, 0, 0, 0.6)" stroke="none" transform="matrix(1 0 0 1 276 251 )" class="fill" />
    <path d="M 0.5086777799999993 5.672608820000001  L 4.35865778 5.672608820000001  L 4.35865778 9.5226288  L 5.658657779999999 9.5226288  L 5.658657779999999 5.672608820000001  L 9.508677800000001 5.672608820000001  L 9.508677800000001 4.37260882  L 5.658657779999999 4.37260882  L 5.658657779999999 0.5226288199999995  L 4.35865778 0.5226288199999995  L 4.35865778 4.37260882  L 0.5086777799999993 4.37260882  L 0.5086777799999993 5.672608820000001  Z " stroke-width="0" stroke-dasharray="0" stroke="rgba(255, 255, 255, 0)" fill="none" transform="matrix(1 0 0 1 276 251 )" class="stroke" mask="url(#Clip1409)" />
  </g>
</svg>