<?xml version="1.0" encoding="utf-8"?>
<svg version="1.1" xmlns:xlink="http://www.w3.org/1999/xlink" width="16px" height="16px" xmlns="http://www.w3.org/2000/svg">
  <defs>
    <pattern id="BGPattern" patternUnits="userSpaceOnUse" alignment="0 0" imageRepeat="None" />
    <mask fill="white" id="Clip1667">
      <path d="M 7.20659041322314 6.973314098360656  C 5.576653223140496 6.973314098360656  4.255185454545455 5.662678032786885  4.255185454545455 4.046017049180327  C 4.255185454545455 2.4292721311475405  5.576568595041322 1.1187199999999995  7.20659041322314 1.1187199999999995  C 8.83661223140496 1.1187199999999995  10.157995371900826 2.4292721311475405  10.157995371900826 4.046017049180327  C 10.157995371900826 5.662678032786885  8.83661223140496 6.973314098360656  7.20659041322314 6.973314098360656  Z M 11.173617190082647 4.046017049180334  C 11.173617190082647 1.8730386885245958  9.3974426446281 0.11150688524590162  7.20659041322314 0.11150688524590162  C 5.015738181818182 0.11150688524590162  3.2396482644628097 1.87303868852459  3.2396482644628097 4.046017049180328  C 3.2396482644628097 5.406426229508197  3.935883636363636 6.6056813114754105  4.994158016528926 7.312241311475411  C 4.037437355371901 7.617594754098361  3.1171067768595044 8.121117377049181  2.335566280991736 8.780002622950821  C 0.9908257851239674 9.913620983606558  0.019802975206612113 11.541193442622951  0.019802975206612113 13.464802622950822  C 0.019802975206612113 14.02498098360656  0.12567272727272777 14.488634754098364  0.3351272727272733 14.862562622950822  C 0.5475438016528931 15.241778360655742  0.8483120661157029 15.495931803278692  1.1803927272727277 15.660611147540987  C 1.7917461157024794 15.96378229508197  2.522932892561984 15.963446557377054  3.0004892561983474 15.963110819672135  L 7.063907438016529 15.963110819672131  C 7.344340319766225 15.963110819672131  7.571676063323218 15.737638483849217  7.571676063323218 15.459504262295084  C 7.571676063323218 15.181370040740953  7.344340319766225 14.955897704918033  7.0639074682818945 14.955897704918033  L 3.041533884297521 14.955897704918039  C 2.5119312396694213 14.955897704918039  2.011017520661157 14.946413114754103  1.6346763636363637 14.759742950819678  C 1.4638968595041322 14.675053114754105  1.32476826446281 14.555194754098366  1.2229606611570247 14.373476721311482  C 1.1181910743801653 14.186302950819679  1.03542479338843 13.902017049180333  1.03542479338843 13.464802622950826  C 1.03542479338843 11.89766295081968  1.8241586776859506 10.533140983606563  2.9933804958677688 9.54741508196722  C 4.167341487603306 8.557744262295088  5.687092892561983 7.984220327868859  7.063907438016529 7.984220327868859  C 7.086841652892562 7.984220327868859  7.1094373553719015 7.982793442622957  7.131609917355372 7.979855737704925  C 7.156575206611571 7.980275409836072  7.181540495867769 7.980527213114761  7.206675041322314 7.980527213114761  C 9.397527272727274 7.980527213114761  11.173617190082647 6.218995409836072  11.173617190082647 4.046017049180334  Z M 15.908559338842974 11.353516065573768  L 15.971776528925616 12.417888524590163  C 16.002764755524442 12.9399600252521  15.624530660913088 13.39820535244803  15.102392066115701 13.471181639344262  C 14.854431735537188 13.50584655737705  14.635921983471073 13.700406557377049  14.634229421487602 14.066528524590163  L 14.635329586776859 14.076684590163936  C 14.637822750281442 14.09639681396067  14.641553635457921 14.115935541179283  14.646500495867768 14.135186885245899  C 14.864671735537188 14.606646557377047  14.684159999999999 15.169426885245901  14.224714049586774 15.42727344262295  L 13.558860165289254 15.800865573770492  C 13.155491523931811 16.027320655423164  12.648575361312641 15.953116711366821  12.328367603305782 15.620742295081966  L 12.14565553719008 15.431050491803276  C 12.082861487603303 15.39118163934426  12.043086280991734 15.373303606557375  12.019221157024791 15.364574426229508  C 11.995102148760328 15.35567737704918  11.972421818181816 15.35047344262295  11.932223471074376 15.350305573770491  C 11.929769256198345 15.350557377049178  11.905396363636362 15.352907540983605  11.857581487603303 15.370030163934425  C 11.812305454545452 15.386313442622951  11.753573553719006 15.413172459016392  11.683501487603303 15.454971803278687  C 11.664831718425319 15.471567055655228  11.64595824418396 15.487935489997831  11.626885289256192 15.504073442622946  C 11.319936802324763 15.937594286823007  10.726223390206577 16.060044171202282  10.270466115702476 15.7838268852459  L 9.653865785123964 15.410150819672129  C 9.22460691292258 15.150017322064711  9.053064364982122 14.616727640214338  9.251120661157021 14.158100983606557  L 9.253405619834707 14.151134426229504  C 9.261911053619698 14.124075169302793  9.26830523188086 14.096407106353924  9.27253157024793 14.068375081967211  L 9.27320859504132 14.06342295081967  C 9.272700826446279 13.907472786885243  9.217692561983469 13.76302163934426  9.127563636363634 13.655669508196718  C 9.0374347107438 13.548485245901636  8.920817190082643 13.487464918032783  8.804199669421484 13.471097704918028  C 8.304968883958342 13.400910566871637  7.933909193166365 12.977066948337542  7.933884297520661 12.476978360655737  L 7.9338842975206605 11.412521967213113  C 7.933915416115406 10.912631296720706  8.30469459166003 10.488896635951585  8.803691900826447 10.418486557377049  C 9.051990743801653 10.383401967213114  9.2716852892562 10.186575737704919  9.27312396694215 9.82112524590164  C 9.2714084094693 9.803812257861601  9.268724383929692 9.786607167832297  9.26508429752066 9.769589508196722  C 9.263899504132231 9.764049836065574  9.262630082644629 9.759097704918034  9.261614545454545 9.754900983606559  C 9.043274049586776 9.283860983606559  9.223108760330577 8.721080655737707  9.682216198347108 8.46273049180328  L 10.347985454545455 8.088131147540985  C 10.75278827514617 7.860435160868666  11.261955384300332 7.935713281024732  11.582201652892563 8.270604590163936  C 11.59404958677686 8.283026885245903  11.602681652892564 8.292007868852462  11.612160000000001 8.301492459016394  C 11.620792066115705 8.310137704918034  11.628154710743802 8.317188196721313  11.634247933884298 8.32272786885246  C 11.65430479338843 8.334982295081968  11.673938512396695 8.347908196721312  11.693149090909094 8.361505573770494  C 11.797072396694217 8.43528393442623  11.862659173553721 8.467179016393445  11.897525950413224 8.480608524590165  C 11.906750413223142 8.484217704918033  11.9136052892562 8.486400000000001  11.918344462809918 8.487659016393444  C 11.939924628099174 8.481112131147542  11.997640991735539 8.459037377049182  12.10461090909091 8.39105049180328  C 12.161981013722999 8.339947887563339  12.22185761749594 8.291682909275393  12.284022479338844 8.246431475409837  L 12.293754710743803 8.239213114754097  C 12.61672882352332 7.929934313883829  13.106474317517224 7.8685047103369765  13.496912396694215 8.088299016393442  L 14.162258512396692 8.462898360655736  C 14.611613638337586 8.715925458968176  14.796761479462829 9.263958249195996  14.591830743801653 9.734420983606555  L 14.58937652892562 9.741555409836064  C 14.580854039498844 9.768250205872164  14.574403476413199 9.795552626916246  14.57008132231405 9.823223606557375  L 14.56965818181818 9.826245245901637  C 14.570673719008262 9.981859672131145  14.625681983471074 10.12605901639344  14.715810909090907 10.233243278688521  C 14.806193719008263 10.34076327868852  14.923149752066113 10.401951475409833  15.040190413223138 10.418402622950817  C 15.517069752066112 10.485550163934423  15.880293553719007 10.8766006557377  15.908559338842974 11.353516065573768  Z M 12.739321652892562 9.178019672131155  C 12.700392727272728 9.204626885245908  12.662140826446281 9.229639344262303  12.624565950413222 9.252973114754099  C 12.36924297520661 9.411525245901641  12.145486280991733 9.49327737704918  11.922321983471072 9.49327737704918  C 11.6998347107438 9.49327737704918  11.476755041322312 9.41849180327869  11.223547768595038 9.258428852459017  C 11.182971625839768 9.232688897992544  11.143097508636446 9.205876233866837  11.103968264462807 9.17801967213115  C 11.012739173553717 9.127323278688525  10.92277950413223 9.039276065573773  10.869379173553718 8.984131147540985  C 10.861170247933883 8.975737704918036  10.853892231404958 8.96809967213115  10.84754512396694 8.961468852459019  L 10.181775867768593 9.336068196721314  C 10.206318016528922 9.383323278688527  10.22933685950413 9.4512262295082  10.247362644628096 9.52601180327869  C 10.27055074380165 9.621613114754101  10.285614545454543 9.728377704918035  10.285614545454543 9.817348196721314  L 10.285614545454543 9.820537704918035  C 10.284175867768592 10.665925245901642  9.714036363636362 11.304162622950823  8.94629024793388 11.412521967213117  L 8.94629024793388 12.476978360655739  C 9.318061487603304 12.529185573770492  9.658858842975205 12.719716721311478  9.905295867768594 13.01289967213115  C 10.136669090909088 13.288288524590167  10.269958347107437 13.636700327868853  10.284345123966942 14.000220327868853  C 10.285191404958676 14.023638032786886  10.285614545454544 14.047139672131149  10.285614545454544 14.07072524590164  C 10.285614545454544 14.237251147540984  10.229590743801651 14.444904918032789  10.181775867768595 14.553348196721313  L 10.798376198347107 14.927024262295083  C 10.808870082644626 14.903858360655738  10.821902809917354 14.883378360655737  10.836966611570245 14.86432524590164  C 10.84229818181818 14.857694426229507  10.847799008264461 14.851147540983606  10.853638347107436 14.844768524590163  C 10.880803966942146 14.81480393442623  10.91304727272727 14.787777049180328  10.947829421487603 14.75865180327869  C 10.982103801652892 14.729946229508197  11.018917024793387 14.699142295081968  11.05564561983471 14.66137180327869  C 11.115546854866716 14.62144068815405  11.177187283515929 14.584137866926493  11.240388760330578 14.549571147540984  C 11.48716429752066 14.415024262295082  11.723361322314048 14.346198032786887  11.930023140495868 14.346198032786887  C 12.195924628099172 14.346198032786887  12.420781487603305 14.417542295081969  12.670011239669421 14.571981639344262  C 12.713848595041322 14.599176393442622  12.758532231404958 14.6289731147541  12.804400661157024 14.661371803278689  L 13.06031603305785 14.927024262295083  L 13.726085289256197 14.553348196721313  C 13.701204628099173 14.505085901639346  13.677762644628098 14.435504262295083  13.65948297520661 14.359123934426231  C 13.636718016528924 14.264026229508199  13.621823471074379 14.158436721311476  13.621823471074379 14.070725245901642  L 13.621908099173552 14.056540327868856  C 13.628170578512394 13.215769180327872  14.19577123966942 12.583910819672132  14.96114776859504 12.476978360655739  L 14.897930578512394 11.412521967213117  C 14.525820826446278 11.360146885245904  14.184684958677684 11.16953180327869  13.938078677685947 10.87609704918033  C 13.691472396694213 10.58266229508197  13.5561520661157 10.206384262295085  13.557252231404956 9.817348196721316  L 13.557336859504131 9.809206557377054  C 13.55852165289256 9.700763278688529  13.58348694214876 9.575281311475415  13.613868429752065 9.47212590163935  C 13.629439999999999 9.419079344262299  13.646450247933881 9.371992131147547  13.662444958677685 9.336068196721316  L 12.997098842975207 8.96146885245902  C 12.981273388429752 8.980354098360662  12.959862479338843 8.998316065573775  12.934558677685951 9.017620983606562  C 12.923472396694216 9.026098360655743  12.911709090909092 9.034743606557383  12.899268760330578 9.0438924590164  C 12.851961652892562 9.078893114754106  12.79593785123967 9.120188852459023  12.739321652892562 9.178019672131155  Z M 11.910135537190081 8.48984131147541  L 11.90818909090909 8.490260983606557  L 11.910135537190081 8.48984131147541  Z M 11.9267226446281 8.489505573770494  L 11.924945454545455 8.489253770491805  L 11.9267226446281 8.489505573770494  Z M 11.952957350795923 11.167265569232022  C 11.520716849041412 11.167265569232022  11.1703166896389 11.514793596180414  11.1703166896389 11.943491143002513  C 11.170316694214874 12.372272633327292  11.520716853617387 12.71980066027568  11.9529573553719 12.71980066027568  C 12.38528248522559 12.719800655737703  12.735682644628099 12.372272628789313  12.735682644628099 11.943575081967213  C 12.73568264920358 11.514793600718882  12.38528248980107 11.167265573770491  11.953041988046554 11.167265573770491  Z M 11.953041983471074 13.723908196721313  C 10.961623801652891 13.723908196721313  10.157910743801652 12.926782950819673  10.157910743801652 11.943575081967213  C 10.157910743801652 10.960283278688523  10.961623801652891 10.163158032786885  11.953041983471074 10.163158032786885  C 12.944460165289257 10.163158032786885  13.748088595041322 10.960283278688523  13.748088595041322 11.943575081967213  C 13.748088595041322 12.926782950819673  12.944460165289257 13.723908196721313  11.953041983471074 13.723908196721313  Z " fill-rule="evenodd" />
    </mask>
  </defs>
  <g transform="matrix(1 0 0 1 -43 -102 )">
    <path d="M 7.20659041322314 6.973314098360656  C 5.576653223140496 6.973314098360656  4.255185454545455 5.662678032786885  4.255185454545455 4.046017049180327  C 4.255185454545455 2.4292721311475405  5.576568595041322 1.1187199999999995  7.20659041322314 1.1187199999999995  C 8.83661223140496 1.1187199999999995  10.157995371900826 2.4292721311475405  10.157995371900826 4.046017049180327  C 10.157995371900826 5.662678032786885  8.83661223140496 6.973314098360656  7.20659041322314 6.973314098360656  Z M 11.173617190082647 4.046017049180334  C 11.173617190082647 1.8730386885245958  9.3974426446281 0.11150688524590162  7.20659041322314 0.11150688524590162  C 5.015738181818182 0.11150688524590162  3.2396482644628097 1.87303868852459  3.2396482644628097 4.046017049180328  C 3.2396482644628097 5.406426229508197  3.935883636363636 6.6056813114754105  4.994158016528926 7.312241311475411  C 4.037437355371901 7.617594754098361  3.1171067768595044 8.121117377049181  2.335566280991736 8.780002622950821  C 0.9908257851239674 9.913620983606558  0.019802975206612113 11.541193442622951  0.019802975206612113 13.464802622950822  C 0.019802975206612113 14.02498098360656  0.12567272727272777 14.488634754098364  0.3351272727272733 14.862562622950822  C 0.5475438016528931 15.241778360655742  0.8483120661157029 15.495931803278692  1.1803927272727277 15.660611147540987  C 1.7917461157024794 15.96378229508197  2.522932892561984 15.963446557377054  3.0004892561983474 15.963110819672135  L 7.063907438016529 15.963110819672131  C 7.344340319766225 15.963110819672131  7.571676063323218 15.737638483849217  7.571676063323218 15.459504262295084  C 7.571676063323218 15.181370040740953  7.344340319766225 14.955897704918033  7.0639074682818945 14.955897704918033  L 3.041533884297521 14.955897704918039  C 2.5119312396694213 14.955897704918039  2.011017520661157 14.946413114754103  1.6346763636363637 14.759742950819678  C 1.4638968595041322 14.675053114754105  1.32476826446281 14.555194754098366  1.2229606611570247 14.373476721311482  C 1.1181910743801653 14.186302950819679  1.03542479338843 13.902017049180333  1.03542479338843 13.464802622950826  C 1.03542479338843 11.89766295081968  1.8241586776859506 10.533140983606563  2.9933804958677688 9.54741508196722  C 4.167341487603306 8.557744262295088  5.687092892561983 7.984220327868859  7.063907438016529 7.984220327868859  C 7.086841652892562 7.984220327868859  7.1094373553719015 7.982793442622957  7.131609917355372 7.979855737704925  C 7.156575206611571 7.980275409836072  7.181540495867769 7.980527213114761  7.206675041322314 7.980527213114761  C 9.397527272727274 7.980527213114761  11.173617190082647 6.218995409836072  11.173617190082647 4.046017049180334  Z M 15.908559338842974 11.353516065573768  L 15.971776528925616 12.417888524590163  C 16.002764755524442 12.9399600252521  15.624530660913088 13.39820535244803  15.102392066115701 13.471181639344262  C 14.854431735537188 13.50584655737705  14.635921983471073 13.700406557377049  14.634229421487602 14.066528524590163  L 14.635329586776859 14.076684590163936  C 14.637822750281442 14.09639681396067  14.641553635457921 14.115935541179283  14.646500495867768 14.135186885245899  C 14.864671735537188 14.606646557377047  14.684159999999999 15.169426885245901  14.224714049586774 15.42727344262295  L 13.558860165289254 15.800865573770492  C 13.155491523931811 16.027320655423164  12.648575361312641 15.953116711366821  12.328367603305782 15.620742295081966  L 12.14565553719008 15.431050491803276  C 12.082861487603303 15.39118163934426  12.043086280991734 15.373303606557375  12.019221157024791 15.364574426229508  C 11.995102148760328 15.35567737704918  11.972421818181816 15.35047344262295  11.932223471074376 15.350305573770491  C 11.929769256198345 15.350557377049178  11.905396363636362 15.352907540983605  11.857581487603303 15.370030163934425  C 11.812305454545452 15.386313442622951  11.753573553719006 15.413172459016392  11.683501487603303 15.454971803278687  C 11.664831718425319 15.471567055655228  11.64595824418396 15.487935489997831  11.626885289256192 15.504073442622946  C 11.319936802324763 15.937594286823007  10.726223390206577 16.060044171202282  10.270466115702476 15.7838268852459  L 9.653865785123964 15.410150819672129  C 9.22460691292258 15.150017322064711  9.053064364982122 14.616727640214338  9.251120661157021 14.158100983606557  L 9.253405619834707 14.151134426229504  C 9.261911053619698 14.124075169302793  9.26830523188086 14.096407106353924  9.27253157024793 14.068375081967211  L 9.27320859504132 14.06342295081967  C 9.272700826446279 13.907472786885243  9.217692561983469 13.76302163934426  9.127563636363634 13.655669508196718  C 9.0374347107438 13.548485245901636  8.920817190082643 13.487464918032783  8.804199669421484 13.471097704918028  C 8.304968883958342 13.400910566871637  7.933909193166365 12.977066948337542  7.933884297520661 12.476978360655737  L 7.9338842975206605 11.412521967213113  C 7.933915416115406 10.912631296720706  8.30469459166003 10.488896635951585  8.803691900826447 10.418486557377049  C 9.051990743801653 10.383401967213114  9.2716852892562 10.186575737704919  9.27312396694215 9.82112524590164  C 9.2714084094693 9.803812257861601  9.268724383929692 9.786607167832297  9.26508429752066 9.769589508196722  C 9.263899504132231 9.764049836065574  9.262630082644629 9.759097704918034  9.261614545454545 9.754900983606559  C 9.043274049586776 9.283860983606559  9.223108760330577 8.721080655737707  9.682216198347108 8.46273049180328  L 10.347985454545455 8.088131147540985  C 10.75278827514617 7.860435160868666  11.261955384300332 7.935713281024732  11.582201652892563 8.270604590163936  C 11.59404958677686 8.283026885245903  11.602681652892564 8.292007868852462  11.612160000000001 8.301492459016394  C 11.620792066115705 8.310137704918034  11.628154710743802 8.317188196721313  11.634247933884298 8.32272786885246  C 11.65430479338843 8.334982295081968  11.673938512396695 8.347908196721312  11.693149090909094 8.361505573770494  C 11.797072396694217 8.43528393442623  11.862659173553721 8.467179016393445  11.897525950413224 8.480608524590165  C 11.906750413223142 8.484217704918033  11.9136052892562 8.486400000000001  11.918344462809918 8.487659016393444  C 11.939924628099174 8.481112131147542  11.997640991735539 8.459037377049182  12.10461090909091 8.39105049180328  C 12.161981013722999 8.339947887563339  12.22185761749594 8.291682909275393  12.284022479338844 8.246431475409837  L 12.293754710743803 8.239213114754097  C 12.61672882352332 7.929934313883829  13.106474317517224 7.8685047103369765  13.496912396694215 8.088299016393442  L 14.162258512396692 8.462898360655736  C 14.611613638337586 8.715925458968176  14.796761479462829 9.263958249195996  14.591830743801653 9.734420983606555  L 14.58937652892562 9.741555409836064  C 14.580854039498844 9.768250205872164  14.574403476413199 9.795552626916246  14.57008132231405 9.823223606557375  L 14.56965818181818 9.826245245901637  C 14.570673719008262 9.981859672131145  14.625681983471074 10.12605901639344  14.715810909090907 10.233243278688521  C 14.806193719008263 10.34076327868852  14.923149752066113 10.401951475409833  15.040190413223138 10.418402622950817  C 15.517069752066112 10.485550163934423  15.880293553719007 10.8766006557377  15.908559338842974 11.353516065573768  Z M 12.739321652892562 9.178019672131155  C 12.700392727272728 9.204626885245908  12.662140826446281 9.229639344262303  12.624565950413222 9.252973114754099  C 12.36924297520661 9.411525245901641  12.145486280991733 9.49327737704918  11.922321983471072 9.49327737704918  C 11.6998347107438 9.49327737704918  11.476755041322312 9.41849180327869  11.223547768595038 9.258428852459017  C 11.182971625839768 9.232688897992544  11.143097508636446 9.205876233866837  11.103968264462807 9.17801967213115  C 11.012739173553717 9.127323278688525  10.92277950413223 9.039276065573773  10.869379173553718 8.984131147540985  C 10.861170247933883 8.975737704918036  10.853892231404958 8.96809967213115  10.84754512396694 8.961468852459019  L 10.181775867768593 9.336068196721314  C 10.206318016528922 9.383323278688527  10.22933685950413 9.4512262295082  10.247362644628096 9.52601180327869  C 10.27055074380165 9.621613114754101  10.285614545454543 9.728377704918035  10.285614545454543 9.817348196721314  L 10.285614545454543 9.820537704918035  C 10.284175867768592 10.665925245901642  9.714036363636362 11.304162622950823  8.94629024793388 11.412521967213117  L 8.94629024793388 12.476978360655739  C 9.318061487603304 12.529185573770492  9.658858842975205 12.719716721311478  9.905295867768594 13.01289967213115  C 10.136669090909088 13.288288524590167  10.269958347107437 13.636700327868853  10.284345123966942 14.000220327868853  C 10.285191404958676 14.023638032786886  10.285614545454544 14.047139672131149  10.285614545454544 14.07072524590164  C 10.285614545454544 14.237251147540984  10.229590743801651 14.444904918032789  10.181775867768595 14.553348196721313  L 10.798376198347107 14.927024262295083  C 10.808870082644626 14.903858360655738  10.821902809917354 14.883378360655737  10.836966611570245 14.86432524590164  C 10.84229818181818 14.857694426229507  10.847799008264461 14.851147540983606  10.853638347107436 14.844768524590163  C 10.880803966942146 14.81480393442623  10.91304727272727 14.787777049180328  10.947829421487603 14.75865180327869  C 10.982103801652892 14.729946229508197  11.018917024793387 14.699142295081968  11.05564561983471 14.66137180327869  C 11.115546854866716 14.62144068815405  11.177187283515929 14.584137866926493  11.240388760330578 14.549571147540984  C 11.48716429752066 14.415024262295082  11.723361322314048 14.346198032786887  11.930023140495868 14.346198032786887  C 12.195924628099172 14.346198032786887  12.420781487603305 14.417542295081969  12.670011239669421 14.571981639344262  C 12.713848595041322 14.599176393442622  12.758532231404958 14.6289731147541  12.804400661157024 14.661371803278689  L 13.06031603305785 14.927024262295083  L 13.726085289256197 14.553348196721313  C 13.701204628099173 14.505085901639346  13.677762644628098 14.435504262295083  13.65948297520661 14.359123934426231  C 13.636718016528924 14.264026229508199  13.621823471074379 14.158436721311476  13.621823471074379 14.070725245901642  L 13.621908099173552 14.056540327868856  C 13.628170578512394 13.215769180327872  14.19577123966942 12.583910819672132  14.96114776859504 12.476978360655739  L 14.897930578512394 11.412521967213117  C 14.525820826446278 11.360146885245904  14.184684958677684 11.16953180327869  13.938078677685947 10.87609704918033  C 13.691472396694213 10.58266229508197  13.5561520661157 10.206384262295085  13.557252231404956 9.817348196721316  L 13.557336859504131 9.809206557377054  C 13.55852165289256 9.700763278688529  13.58348694214876 9.575281311475415  13.613868429752065 9.47212590163935  C 13.629439999999999 9.419079344262299  13.646450247933881 9.371992131147547  13.662444958677685 9.336068196721316  L 12.997098842975207 8.96146885245902  C 12.981273388429752 8.980354098360662  12.959862479338843 8.998316065573775  12.934558677685951 9.017620983606562  C 12.923472396694216 9.026098360655743  12.911709090909092 9.034743606557383  12.899268760330578 9.0438924590164  C 12.851961652892562 9.078893114754106  12.79593785123967 9.120188852459023  12.739321652892562 9.178019672131155  Z M 11.910135537190081 8.48984131147541  L 11.90818909090909 8.490260983606557  L 11.910135537190081 8.48984131147541  Z M 11.9267226446281 8.489505573770494  L 11.924945454545455 8.489253770491805  L 11.9267226446281 8.489505573770494  Z M 11.952957350795923 11.167265569232022  C 11.520716849041412 11.167265569232022  11.1703166896389 11.514793596180414  11.1703166896389 11.943491143002513  C 11.170316694214874 12.372272633327292  11.520716853617387 12.71980066027568  11.9529573553719 12.71980066027568  C 12.38528248522559 12.719800655737703  12.735682644628099 12.372272628789313  12.735682644628099 11.943575081967213  C 12.73568264920358 11.514793600718882  12.38528248980107 11.167265573770491  11.953041988046554 11.167265573770491  Z M 11.953041983471074 13.723908196721313  C 10.961623801652891 13.723908196721313  10.157910743801652 12.926782950819673  10.157910743801652 11.943575081967213  C 10.157910743801652 10.960283278688523  10.961623801652891 10.163158032786885  11.953041983471074 10.163158032786885  C 12.944460165289257 10.163158032786885  13.748088595041322 10.960283278688523  13.748088595041322 11.943575081967213  C 13.748088595041322 12.926782950819673  12.944460165289257 13.723908196721313  11.953041983471074 13.723908196721313  Z " fill-rule="nonzero" fill="rgba(85, 85, 85, 1)" stroke="none" transform="matrix(1 0 0 1 43 102 )" class="fill" />
    <path d="M 7.20659041322314 6.973314098360656  C 5.576653223140496 6.973314098360656  4.255185454545455 5.662678032786885  4.255185454545455 4.046017049180327  C 4.255185454545455 2.4292721311475405  5.576568595041322 1.1187199999999995  7.20659041322314 1.1187199999999995  C 8.83661223140496 1.1187199999999995  10.157995371900826 2.4292721311475405  10.157995371900826 4.046017049180327  C 10.157995371900826 5.662678032786885  8.83661223140496 6.973314098360656  7.20659041322314 6.973314098360656  Z " stroke-width="0" stroke-dasharray="0" stroke="rgba(255, 255, 255, 0)" fill="none" transform="matrix(1 0 0 1 43 102 )" class="stroke" mask="url(#Clip1667)" />
    <path d="M 11.173617190082647 4.046017049180334  C 11.173617190082647 1.8730386885245958  9.3974426446281 0.11150688524590162  7.20659041322314 0.11150688524590162  C 5.015738181818182 0.11150688524590162  3.2396482644628097 1.87303868852459  3.2396482644628097 4.046017049180328  C 3.2396482644628097 5.406426229508197  3.935883636363636 6.6056813114754105  4.994158016528926 7.312241311475411  C 4.037437355371901 7.617594754098361  3.1171067768595044 8.121117377049181  2.335566280991736 8.780002622950821  C 0.9908257851239674 9.913620983606558  0.019802975206612113 11.541193442622951  0.019802975206612113 13.464802622950822  C 0.019802975206612113 14.02498098360656  0.12567272727272777 14.488634754098364  0.3351272727272733 14.862562622950822  C 0.5475438016528931 15.241778360655742  0.8483120661157029 15.495931803278692  1.1803927272727277 15.660611147540987  C 1.7917461157024794 15.96378229508197  2.522932892561984 15.963446557377054  3.0004892561983474 15.963110819672135  L 7.063907438016529 15.963110819672131  C 7.344340319766225 15.963110819672131  7.571676063323218 15.737638483849217  7.571676063323218 15.459504262295084  C 7.571676063323218 15.181370040740953  7.344340319766225 14.955897704918033  7.0639074682818945 14.955897704918033  L 3.041533884297521 14.955897704918039  C 2.5119312396694213 14.955897704918039  2.011017520661157 14.946413114754103  1.6346763636363637 14.759742950819678  C 1.4638968595041322 14.675053114754105  1.32476826446281 14.555194754098366  1.2229606611570247 14.373476721311482  C 1.1181910743801653 14.186302950819679  1.03542479338843 13.902017049180333  1.03542479338843 13.464802622950826  C 1.03542479338843 11.89766295081968  1.8241586776859506 10.533140983606563  2.9933804958677688 9.54741508196722  C 4.167341487603306 8.557744262295088  5.687092892561983 7.984220327868859  7.063907438016529 7.984220327868859  C 7.086841652892562 7.984220327868859  7.1094373553719015 7.982793442622957  7.131609917355372 7.979855737704925  C 7.156575206611571 7.980275409836072  7.181540495867769 7.980527213114761  7.206675041322314 7.980527213114761  C 9.397527272727274 7.980527213114761  11.173617190082647 6.218995409836072  11.173617190082647 4.046017049180334  Z " stroke-width="0" stroke-dasharray="0" stroke="rgba(255, 255, 255, 0)" fill="none" transform="matrix(1 0 0 1 43 102 )" class="stroke" mask="url(#Clip1667)" />
    <path d="M 15.908559338842974 11.353516065573768  L 15.971776528925616 12.417888524590163  C 16.002764755524442 12.9399600252521  15.624530660913088 13.39820535244803  15.102392066115701 13.471181639344262  C 14.854431735537188 13.50584655737705  14.635921983471073 13.700406557377049  14.634229421487602 14.066528524590163  L 14.635329586776859 14.076684590163936  C 14.637822750281442 14.09639681396067  14.641553635457921 14.115935541179283  14.646500495867768 14.135186885245899  C 14.864671735537188 14.606646557377047  14.684159999999999 15.169426885245901  14.224714049586774 15.42727344262295  L 13.558860165289254 15.800865573770492  C 13.155491523931811 16.027320655423164  12.648575361312641 15.953116711366821  12.328367603305782 15.620742295081966  L 12.14565553719008 15.431050491803276  C 12.082861487603303 15.39118163934426  12.043086280991734 15.373303606557375  12.019221157024791 15.364574426229508  C 11.995102148760328 15.35567737704918  11.972421818181816 15.35047344262295  11.932223471074376 15.350305573770491  C 11.929769256198345 15.350557377049178  11.905396363636362 15.352907540983605  11.857581487603303 15.370030163934425  C 11.812305454545452 15.386313442622951  11.753573553719006 15.413172459016392  11.683501487603303 15.454971803278687  C 11.664831718425319 15.471567055655228  11.64595824418396 15.487935489997831  11.626885289256192 15.504073442622946  C 11.319936802324763 15.937594286823007  10.726223390206577 16.060044171202282  10.270466115702476 15.7838268852459  L 9.653865785123964 15.410150819672129  C 9.22460691292258 15.150017322064711  9.053064364982122 14.616727640214338  9.251120661157021 14.158100983606557  L 9.253405619834707 14.151134426229504  C 9.261911053619698 14.124075169302793  9.26830523188086 14.096407106353924  9.27253157024793 14.068375081967211  L 9.27320859504132 14.06342295081967  C 9.272700826446279 13.907472786885243  9.217692561983469 13.76302163934426  9.127563636363634 13.655669508196718  C 9.0374347107438 13.548485245901636  8.920817190082643 13.487464918032783  8.804199669421484 13.471097704918028  C 8.304968883958342 13.400910566871637  7.933909193166365 12.977066948337542  7.933884297520661 12.476978360655737  L 7.9338842975206605 11.412521967213113  C 7.933915416115406 10.912631296720706  8.30469459166003 10.488896635951585  8.803691900826447 10.418486557377049  C 9.051990743801653 10.383401967213114  9.2716852892562 10.186575737704919  9.27312396694215 9.82112524590164  C 9.2714084094693 9.803812257861601  9.268724383929692 9.786607167832297  9.26508429752066 9.769589508196722  C 9.263899504132231 9.764049836065574  9.262630082644629 9.759097704918034  9.261614545454545 9.754900983606559  C 9.043274049586776 9.283860983606559  9.223108760330577 8.721080655737707  9.682216198347108 8.46273049180328  L 10.347985454545455 8.088131147540985  C 10.75278827514617 7.860435160868666  11.261955384300332 7.935713281024732  11.582201652892563 8.270604590163936  C 11.59404958677686 8.283026885245903  11.602681652892564 8.292007868852462  11.612160000000001 8.301492459016394  C 11.620792066115705 8.310137704918034  11.628154710743802 8.317188196721313  11.634247933884298 8.32272786885246  C 11.65430479338843 8.334982295081968  11.673938512396695 8.347908196721312  11.693149090909094 8.361505573770494  C 11.797072396694217 8.43528393442623  11.862659173553721 8.467179016393445  11.897525950413224 8.480608524590165  C 11.906750413223142 8.484217704918033  11.9136052892562 8.486400000000001  11.918344462809918 8.487659016393444  C 11.939924628099174 8.481112131147542  11.997640991735539 8.459037377049182  12.10461090909091 8.39105049180328  C 12.161981013722999 8.339947887563339  12.22185761749594 8.291682909275393  12.284022479338844 8.246431475409837  L 12.293754710743803 8.239213114754097  C 12.61672882352332 7.929934313883829  13.106474317517224 7.8685047103369765  13.496912396694215 8.088299016393442  L 14.162258512396692 8.462898360655736  C 14.611613638337586 8.715925458968176  14.796761479462829 9.263958249195996  14.591830743801653 9.734420983606555  L 14.58937652892562 9.741555409836064  C 14.580854039498844 9.768250205872164  14.574403476413199 9.795552626916246  14.57008132231405 9.823223606557375  L 14.56965818181818 9.826245245901637  C 14.570673719008262 9.981859672131145  14.625681983471074 10.12605901639344  14.715810909090907 10.233243278688521  C 14.806193719008263 10.34076327868852  14.923149752066113 10.401951475409833  15.040190413223138 10.418402622950817  C 15.517069752066112 10.485550163934423  15.880293553719007 10.8766006557377  15.908559338842974 11.353516065573768  Z " stroke-width="0" stroke-dasharray="0" stroke="rgba(255, 255, 255, 0)" fill="none" transform="matrix(1 0 0 1 43 102 )" class="stroke" mask="url(#Clip1667)" />
    <path d="M 12.739321652892562 9.178019672131155  C 12.700392727272728 9.204626885245908  12.662140826446281 9.229639344262303  12.624565950413222 9.252973114754099  C 12.36924297520661 9.411525245901641  12.145486280991733 9.49327737704918  11.922321983471072 9.49327737704918  C 11.6998347107438 9.49327737704918  11.476755041322312 9.41849180327869  11.223547768595038 9.258428852459017  C 11.182971625839768 9.232688897992544  11.143097508636446 9.205876233866837  11.103968264462807 9.17801967213115  C 11.012739173553717 9.127323278688525  10.92277950413223 9.039276065573773  10.869379173553718 8.984131147540985  C 10.861170247933883 8.975737704918036  10.853892231404958 8.96809967213115  10.84754512396694 8.961468852459019  L 10.181775867768593 9.336068196721314  C 10.206318016528922 9.383323278688527  10.22933685950413 9.4512262295082  10.247362644628096 9.52601180327869  C 10.27055074380165 9.621613114754101  10.285614545454543 9.728377704918035  10.285614545454543 9.817348196721314  L 10.285614545454543 9.820537704918035  C 10.284175867768592 10.665925245901642  9.714036363636362 11.304162622950823  8.94629024793388 11.412521967213117  L 8.94629024793388 12.476978360655739  C 9.318061487603304 12.529185573770492  9.658858842975205 12.719716721311478  9.905295867768594 13.01289967213115  C 10.136669090909088 13.288288524590167  10.269958347107437 13.636700327868853  10.284345123966942 14.000220327868853  C 10.285191404958676 14.023638032786886  10.285614545454544 14.047139672131149  10.285614545454544 14.07072524590164  C 10.285614545454544 14.237251147540984  10.229590743801651 14.444904918032789  10.181775867768595 14.553348196721313  L 10.798376198347107 14.927024262295083  C 10.808870082644626 14.903858360655738  10.821902809917354 14.883378360655737  10.836966611570245 14.86432524590164  C 10.84229818181818 14.857694426229507  10.847799008264461 14.851147540983606  10.853638347107436 14.844768524590163  C 10.880803966942146 14.81480393442623  10.91304727272727 14.787777049180328  10.947829421487603 14.75865180327869  C 10.982103801652892 14.729946229508197  11.018917024793387 14.699142295081968  11.05564561983471 14.66137180327869  C 11.115546854866716 14.62144068815405  11.177187283515929 14.584137866926493  11.240388760330578 14.549571147540984  C 11.48716429752066 14.415024262295082  11.723361322314048 14.346198032786887  11.930023140495868 14.346198032786887  C 12.195924628099172 14.346198032786887  12.420781487603305 14.417542295081969  12.670011239669421 14.571981639344262  C 12.713848595041322 14.599176393442622  12.758532231404958 14.6289731147541  12.804400661157024 14.661371803278689  L 13.06031603305785 14.927024262295083  L 13.726085289256197 14.553348196721313  C 13.701204628099173 14.505085901639346  13.677762644628098 14.435504262295083  13.65948297520661 14.359123934426231  C 13.636718016528924 14.264026229508199  13.621823471074379 14.158436721311476  13.621823471074379 14.070725245901642  L 13.621908099173552 14.056540327868856  C 13.628170578512394 13.215769180327872  14.19577123966942 12.583910819672132  14.96114776859504 12.476978360655739  L 14.897930578512394 11.412521967213117  C 14.525820826446278 11.360146885245904  14.184684958677684 11.16953180327869  13.938078677685947 10.87609704918033  C 13.691472396694213 10.58266229508197  13.5561520661157 10.206384262295085  13.557252231404956 9.817348196721316  L 13.557336859504131 9.809206557377054  C 13.55852165289256 9.700763278688529  13.58348694214876 9.575281311475415  13.613868429752065 9.47212590163935  C 13.629439999999999 9.419079344262299  13.646450247933881 9.371992131147547  13.662444958677685 9.336068196721316  L 12.997098842975207 8.96146885245902  C 12.981273388429752 8.980354098360662  12.959862479338843 8.998316065573775  12.934558677685951 9.017620983606562  C 12.923472396694216 9.026098360655743  12.911709090909092 9.034743606557383  12.899268760330578 9.0438924590164  C 12.851961652892562 9.078893114754106  12.79593785123967 9.120188852459023  12.739321652892562 9.178019672131155  Z " stroke-width="0" stroke-dasharray="0" stroke="rgba(255, 255, 255, 0)" fill="none" transform="matrix(1 0 0 1 43 102 )" class="stroke" mask="url(#Clip1667)" />
    <path d="M 11.910135537190081 8.48984131147541  L 11.90818909090909 8.490260983606557  L 11.910135537190081 8.48984131147541  Z " stroke-width="0" stroke-dasharray="0" stroke="rgba(255, 255, 255, 0)" fill="none" transform="matrix(1 0 0 1 43 102 )" class="stroke" mask="url(#Clip1667)" />
    <path d="M 11.9267226446281 8.489505573770494  L 11.924945454545455 8.489253770491805  L 11.9267226446281 8.489505573770494  Z " stroke-width="0" stroke-dasharray="0" stroke="rgba(255, 255, 255, 0)" fill="none" transform="matrix(1 0 0 1 43 102 )" class="stroke" mask="url(#Clip1667)" />
    <path d="M 11.952957350795923 11.167265569232022  C 11.520716849041412 11.167265569232022  11.1703166896389 11.514793596180414  11.1703166896389 11.943491143002513  C 11.170316694214874 12.372272633327292  11.520716853617387 12.71980066027568  11.9529573553719 12.71980066027568  C 12.38528248522559 12.719800655737703  12.735682644628099 12.372272628789313  12.735682644628099 11.943575081967213  C 12.73568264920358 11.514793600718882  12.38528248980107 11.167265573770491  11.953041988046554 11.167265573770491  Z " stroke-width="0" stroke-dasharray="0" stroke="rgba(255, 255, 255, 0)" fill="none" transform="matrix(1 0 0 1 43 102 )" class="stroke" mask="url(#Clip1667)" />
    <path d="M 11.953041983471074 13.723908196721313  C 10.961623801652891 13.723908196721313  10.157910743801652 12.926782950819673  10.157910743801652 11.943575081967213  C 10.157910743801652 10.960283278688523  10.961623801652891 10.163158032786885  11.953041983471074 10.163158032786885  C 12.944460165289257 10.163158032786885  13.748088595041322 10.960283278688523  13.748088595041322 11.943575081967213  C 13.748088595041322 12.926782950819673  12.944460165289257 13.723908196721313  11.953041983471074 13.723908196721313  Z " stroke-width="0" stroke-dasharray="0" stroke="rgba(255, 255, 255, 0)" fill="none" transform="matrix(1 0 0 1 43 102 )" class="stroke" mask="url(#Clip1667)" />
  </g>
</svg>