<?xml version="1.0" encoding="utf-8"?>
<svg version="1.1" xmlns:xlink="http://www.w3.org/1999/xlink" width="24px" height="24px" xmlns="http://www.w3.org/2000/svg">
  <defs>
    <pattern id="BGPattern" patternUnits="userSpaceOnUse" alignment="0 0" imageRepeat="None" />
    <mask fill="white" id="Clip377">
      <path d="M 7.127703694444444 2.9822803738317756  L 7.1288888888888895 2.9822803738317756  C 7.251014989194042 3.174823335270731  7.315920579314078 3.3986568103708246  7.315920579314078 3.6272780257180135  C 7.315920579314078 4.035616909234982  7.109563044560318 4.4157492860900165  6.768592583333334 4.635514009345794  C 4.130370361111111 6.3377943925233655  2.5185185277777773 9.205233644859813  2.5185185277777773 12.33704671962617  C 2.5185185277777773 17.428336429906544  6.755555555555555 21.57218691588785  12 21.57218691588785  C 17.244444444444444 21.57218691588785  21.481481472222224 17.428336457943928  21.481481472222224 12.33704671962617  C 21.481481472222224 9.253084093457945  19.917037027777777 6.42392523364486  17.34755555555556 4.710878495327104  C 17.015016767342445 4.489391915867145  16.814918032906032 4.114137985743145  16.814918032906032 3.7119999953271035  C 16.814918032906032 3.051050108836609  17.345762617088123 2.515244360316366  18.000592597222223 2.515244360316366  C 18.232771171789594 2.515244360316366  18.459840548191263 2.5840487845437616  18.653629638888894 2.7131214953271034  C 21.877333333333333 4.862803738317757  23.85185186111111 8.436037373831775  23.85185186111111 12.338242990654205  C 23.85185186111111 18.768149523364485  18.5374815 23.965906542056075  11.999999999999998 23.965906542056075  C 5.462518499999997 23.965906542056075  0.1481481388888868 18.768149523364485  0.1481481388888868 12.338242990654205  C 0.14814813888888878 8.375028028037384  2.1842963055555558 4.755140186915888  5.490962972222222 2.6198130841121494  C 6.042134289118008 2.263889368580444  6.77479174191196 2.4261413108713086  7.127703694444444 2.9822803738317756  Z M 10.814814805555557 1.3457943925233644  C 10.814814805555557 0.6851173034520903  11.345440291383092 0.14953270093457974  12 0.14953270093457932  C 12.65455970861691 0.14953270093457932  13.185185194444443 0.6851173034520911  13.185185194444443 1.3457943925233644  L 13.185185194444443 8.523364485981308  C 13.185185194444443 9.184041575052582  12.65455970861691 9.719626177570094  12 9.719626177570094  C 11.345440291383092 9.719626177570094  10.814814805555557 9.184041575052582  10.814814805555555 8.523364485981308  L 10.814814805555557 1.3457943925233644  Z " fill-rule="evenodd" />
    </mask>
  </defs>
  <g transform="matrix(1 0 0 1 -1799 -28 )">
    <path d="M 7.127703694444444 2.9822803738317756  L 7.1288888888888895 2.9822803738317756  C 7.251014989194042 3.174823335270731  7.315920579314078 3.3986568103708246  7.315920579314078 3.6272780257180135  C 7.315920579314078 4.035616909234982  7.109563044560318 4.4157492860900165  6.768592583333334 4.635514009345794  C 4.130370361111111 6.3377943925233655  2.5185185277777773 9.205233644859813  2.5185185277777773 12.33704671962617  C 2.5185185277777773 17.428336429906544  6.755555555555555 21.57218691588785  12 21.57218691588785  C 17.244444444444444 21.57218691588785  21.481481472222224 17.428336457943928  21.481481472222224 12.33704671962617  C 21.481481472222224 9.253084093457945  19.917037027777777 6.42392523364486  17.34755555555556 4.710878495327104  C 17.015016767342445 4.489391915867145  16.814918032906032 4.114137985743145  16.814918032906032 3.7119999953271035  C 16.814918032906032 3.051050108836609  17.345762617088123 2.515244360316366  18.000592597222223 2.515244360316366  C 18.232771171789594 2.515244360316366  18.459840548191263 2.5840487845437616  18.653629638888894 2.7131214953271034  C 21.877333333333333 4.862803738317757  23.85185186111111 8.436037373831775  23.85185186111111 12.338242990654205  C 23.85185186111111 18.768149523364485  18.5374815 23.965906542056075  11.999999999999998 23.965906542056075  C 5.462518499999997 23.965906542056075  0.1481481388888868 18.768149523364485  0.1481481388888868 12.338242990654205  C 0.14814813888888878 8.375028028037384  2.1842963055555558 4.755140186915888  5.490962972222222 2.6198130841121494  C 6.042134289118008 2.263889368580444  6.77479174191196 2.4261413108713086  7.127703694444444 2.9822803738317756  Z M 10.814814805555557 1.3457943925233644  C 10.814814805555557 0.6851173034520903  11.345440291383092 0.14953270093457974  12 0.14953270093457932  C 12.65455970861691 0.14953270093457932  13.185185194444443 0.6851173034520911  13.185185194444443 1.3457943925233644  L 13.185185194444443 8.523364485981308  C 13.185185194444443 9.184041575052582  12.65455970861691 9.719626177570094  12 9.719626177570094  C 11.345440291383092 9.719626177570094  10.814814805555557 9.184041575052582  10.814814805555555 8.523364485981308  L 10.814814805555557 1.3457943925233644  Z " fill-rule="nonzero" fill="rgba(227, 77, 89, 1)" stroke="none" transform="matrix(1 0 0 1 1799 28 )" class="fill" />
    <path d="M 7.127703694444444 2.9822803738317756  L 7.1288888888888895 2.9822803738317756  C 7.251014989194042 3.174823335270731  7.315920579314078 3.3986568103708246  7.315920579314078 3.6272780257180135  C 7.315920579314078 4.035616909234982  7.109563044560318 4.4157492860900165  6.768592583333334 4.635514009345794  C 4.130370361111111 6.3377943925233655  2.5185185277777773 9.205233644859813  2.5185185277777773 12.33704671962617  C 2.5185185277777773 17.428336429906544  6.755555555555555 21.57218691588785  12 21.57218691588785  C 17.244444444444444 21.57218691588785  21.481481472222224 17.428336457943928  21.481481472222224 12.33704671962617  C 21.481481472222224 9.253084093457945  19.917037027777777 6.42392523364486  17.34755555555556 4.710878495327104  C 17.015016767342445 4.489391915867145  16.814918032906032 4.114137985743145  16.814918032906032 3.7119999953271035  C 16.814918032906032 3.051050108836609  17.345762617088123 2.515244360316366  18.000592597222223 2.515244360316366  C 18.232771171789594 2.515244360316366  18.459840548191263 2.5840487845437616  18.653629638888894 2.7131214953271034  C 21.877333333333333 4.862803738317757  23.85185186111111 8.436037373831775  23.85185186111111 12.338242990654205  C 23.85185186111111 18.768149523364485  18.5374815 23.965906542056075  11.999999999999998 23.965906542056075  C 5.462518499999997 23.965906542056075  0.1481481388888868 18.768149523364485  0.1481481388888868 12.338242990654205  C 0.14814813888888878 8.375028028037384  2.1842963055555558 4.755140186915888  5.490962972222222 2.6198130841121494  C 6.042134289118008 2.263889368580444  6.77479174191196 2.4261413108713086  7.127703694444444 2.9822803738317756  Z " stroke-width="0" stroke-dasharray="0" stroke="rgba(255, 255, 255, 0)" fill="none" transform="matrix(1 0 0 1 1799 28 )" class="stroke" mask="url(#Clip377)" />
    <path d="M 10.814814805555557 1.3457943925233644  C 10.814814805555557 0.6851173034520903  11.345440291383092 0.14953270093457974  12 0.14953270093457932  C 12.65455970861691 0.14953270093457932  13.185185194444443 0.6851173034520911  13.185185194444443 1.3457943925233644  L 13.185185194444443 8.523364485981308  C 13.185185194444443 9.184041575052582  12.65455970861691 9.719626177570094  12 9.719626177570094  C 11.345440291383092 9.719626177570094  10.814814805555557 9.184041575052582  10.814814805555555 8.523364485981308  L 10.814814805555557 1.3457943925233644  Z " stroke-width="0" stroke-dasharray="0" stroke="rgba(255, 255, 255, 0)" fill="none" transform="matrix(1 0 0 1 1799 28 )" class="stroke" mask="url(#Clip377)" />
  </g>
</svg>