<?xml version="1.0" encoding="utf-8"?>
<svg version="1.1" xmlns:xlink="http://www.w3.org/1999/xlink" width="15px" height="16px" xmlns="http://www.w3.org/2000/svg">
  <defs>
    <pattern id="BGPattern" patternUnits="userSpaceOnUse" alignment="0 0" imageRepeat="None" />
    <mask fill="white" id="Clip467">
      <path d="M 12.238595102459016 4.7569546875  C 12.240195845286884 5.091389921875001  12.60436487704918 5.324924984375  12.932517187499998 5.324924984375  C 13.100580559667762 5.323022225696218  13.265054164787081 5.275246559447272  13.408738232581968 5.186594109375  L 13.43595087602459 5.166251328125  C 13.549668710000349 5.062325071312244  13.615529846375056 4.91483866852939  13.61763519467213 4.7593958125  L 13.617635194672129 3.3305192499999996  C 13.616170699460236 3.0383280336396465  13.486076413981484 2.762159105844607  13.26307061987705 2.577836546875  L 10.861956101434425 0.3336215156249999  C 10.670450961314978 0.12176094541721873  10.40062808111381 0.0008242040326055938  10.117610609631146 0  L 1.233486900614754 0  C 0.9319889752469599 0.0003414857996229996  0.6417771493887288 0.11661682832904628  0.42110981557377064 0.3254844062500001  C 0.20284586422947856 0.5301594307195792  0.07913898104571092 0.818600708575586  0 1.12048009375  L 0 14.884402171875001  C 0.08015154713114755 15.495499156250002  0.5979919057377049 15.995931437500001  1.2350876434426228 16  L 12.4578968852459 16  C 13.094192228483607 16  13.612032602459015 15.49549915625  13.612032602459015 14.884402171875  L 13.612032602459015 14.0438386875  C 13.617894878852466 13.891268362592436  13.559699380333809 13.743354801017256  13.451958304303279 13.636983171874999  C 13.328701091188526 13.518995078124998  13.148617499999999 13.466103859374998  12.921311987704918 13.474240953125  C 12.441089077868853 13.474240953125  12.240195829918035 13.64349284375  12.240195845286886 14.036515281249999  L 12.240195845286886 14.646798562499999  L 1.457590911885246 14.646798562499999  L 1.457590911885246 1.335299796875  L 9.541343130122952 1.335299796875  L 9.541343130122952 3.336215234375  C 9.553061158231754 3.653198244961661  9.81205447895164 3.902402232824756  10.124013580942623 3.896862125  L 12.238595102459016 3.896862125  L 12.238595102459016 4.7569546875  Z M 11.78958668545082 2.7666175  L 10.703482546106558 2.7666175  L 10.703482546106558 1.744596453125  L 11.78958668545082 2.7666175  Z M 7.061792197745901 7.352692874999998  L 7.068995548155737 7.352692874999999  C 6.9781572530328795 7.238849502418928  6.841811384180875 7.1725278182786045  6.6976231659836065 7.172049031249999  L 3.175988545081967 7.172049031249999  C 2.8894555481557376 7.172049031249999  2.6565474436475407 7.448710781249999  2.6565474282786883 7.788028281249999  C 2.6554258620622813 7.942710924026383  2.706882098535693 8.093041353485354  2.802215040983606 8.213599140624996  C 2.8929698284931744 8.329827097000946  3.030048561355026 8.398762728250897  3.175988545081967 8.401566390624998  L 6.697623165983606 8.401566390624998  C 6.8432935864111295 8.398914088085071  6.979902878459601 8.329171707810273  7.068995548155738 8.211971718749998  C 7.263717390052776 7.958791521329105  7.2607302738974795 7.602462095432533  7.061792197745901 7.352692874999998  Z M 7.217864646516393 10.362609984375  C 7.217864646516393 10.023292484375  6.984956542008196 9.749071859375  6.698423529713115 9.749071859375  L 3.176788908811475 9.749071859375  C 2.8902559118852458 9.749071859375  2.657347807377049 10.024106187500001  2.657347807377049 10.362609984375  C 2.657347807377049 10.70111378125  2.891056290983606 10.9769618125  3.1775892879098357 10.9769618125  L 6.699223908811475 10.9769618125  C 6.984956542008197 10.9769618125  7.217864646516393 10.701927484375  7.217864646516393 10.362609984375  Z M 7.075398519467212 4.7789248906249995  L 7.072997397540983 4.778924890625  C 6.979464501367298 4.667141971368815  6.843530453449608 4.601149433803496  6.699223908811475 4.597467328125  L 3.1831918801229513 4.597467328125  C 3.036392611095203 4.598123124279692  2.897784235769344 4.666338455132706  2.8062169057377053 4.7829934375  C 2.613648629754023 5.036007680043483  2.616626285549276 5.390200256719539  2.813420240778689 5.6398311562500005  C 2.9035954771362986 5.751950682065334  3.037565837526361 5.8182679607608705  3.1799903944672128 5.821288718750001  L 6.710429108606556 5.821288718750001  C 6.852897844638342 5.8180793945033615  6.986606180760587 5.750707201442308  7.075398519467212 5.637390015625  C 7.2723887218452985 5.386276662780201  7.2723887218452985 5.030038243469799  7.075398519467212 4.7789248906249995  Z M 14.91983964651639 11.986777203125001  L 14.919839646516392 11.208869453125  C 14.914632453650281 10.897255375817052  14.721656839760941 10.620906027347969  14.434014144467213 10.513146515625001  C 13.3351040625 10.0867619375  12.867687110655737 9.835325234375002  12.673196818647542 9.711641156250002  C 12.822856568575256 9.505039699937058  12.93954252171088 9.275741899699808  13.018957315573772 9.032192437500003  C 13.162068268914355 8.878782701603404  13.254900593626381 8.684053855219503  13.284680655737704 8.474800390625001  C 13.312231972251977 8.263316288532224  13.27712002824249 8.04828350638614  13.183833842213112 7.8571937187500005  L 13.183833842213112 7.328281546875  C 13.215756021900082 6.912445612126768  13.083571440375039 6.500791907447435  12.81646332479508 6.184203828125001  C 12.513012699314427 5.827483411003367  12.082588489768481 5.607952670161467  11.619907930327868 5.573920562499999  C 11.524281128646512 5.566188140401129  11.428201355984635 5.566188140401129  11.332574554303278 5.5739205625  C 10.396940271516394 5.505568828125  9.571757243852458 6.172811875  9.485317115778688 7.068707718750001  C 9.476782564627374 7.155234678313518  9.475443867029785 7.242339446376968  9.481315266393441 7.32909525  L 9.481315266393441 7.85719371875  C 9.290049429751798 8.243381878540866  9.353784828590994 8.70960101788511  9.641389564549176 9.028123890625  C 9.722802554266877 9.273010218350208  9.841060756331682 9.503586718924426  9.991952274590162 9.71164115625  C 9.802264226434424 9.8336978125  9.340449866803276 10.082693390625  8.240739421106554 10.5147739375  C 7.950403722780818 10.624049438904253  7.7550181960437765 10.902341662412612  7.7477105840163905 11.2170065625  L 7.7477105840163905 11.983522359375  C 7.745479124544535 12.189363899772792  7.828563586940555 12.38665560946777  7.97661682377049 12.5270813125  C 8.123819223370523 12.66719951693156  8.317620466145502 12.745663296698355  8.51926870389344 12.746783296875  L 14.14828151127049 12.746783296874998  C 14.349929749018425 12.745663296698355  14.543730991793405 12.667199516931559  14.69093339139344 12.5270813125  C 14.838161403443412 12.387423445504174  14.921171139236835 12.19148951900125  14.91983964651639 11.986777203125001  Z M 8.892241828893441 11.636881453125  L 8.892241828893441 11.3919544375  C 10.708284774590163 10.664496781250001  11.053244892418032 10.247063015625  11.147688734631146 9.927274578125001  L 11.153291342213116 9.902863250000001  C 11.161811192237959 9.855613429057904  11.163160796973472 9.80731547624437  11.157293191598361 9.759650109375  L 11.157293191598363 9.4838020625  C 11.157303928854013 9.350890719727097  11.107172861671664 9.223037393896181  11.017228186475409 9.126582921875  C 10.875632263524674 8.957510581707625  10.778924196823015 8.754428237230638  10.736297781762294 8.536642421875001  L 10.736297781762293 8.521995625  C 10.709365187240534 8.421739523838966  10.65363130025967 8.331929009922307  10.576223483606558 8.264049234375001  C 10.63461733584225 8.17642027101637  10.66558605621206 8.072888951184588  10.665064718237707 7.967044703125001  L 10.665064718237705 7.274576609374999  C 10.649072067135364 7.143454774967181  10.686034882354573 7.011341596302172  10.767512274590166 6.908406656249999  C 10.865138911359216 6.784535693799904  11.00757893236469 6.705679476445387  11.16289579918033 6.6895183906249995  C 11.217350900214782 6.682198622302312  11.27251684568686 6.682198622302312  11.326971946721313 6.6895183906249995  L 11.365389789959018 6.6895183906249995  C 11.86402123463115 6.6895183906249995  12.058511511270492 6.861211421875  12.058511511270492 7.300615375  L 12.058511511270492 7.974368109375  C 12.0609006881173 8.077210730655382  12.09229241825907 8.177192004494023  12.14895348872951 8.2624218125  C 12.070052700983267 8.330706210727982  12.01247240574633 8.420919971619861  11.983276582991806 8.521995624999999  C 11.923076680821138 8.741718842888575  11.80715569157761 8.941507751126167  11.647120558401639 9.101357874999996  C 11.556583428038026 9.19945347899831  11.504977135318423 9.32815557761154  11.50225330942623 9.462645578124999  L 11.502253309426232 9.740934750000001  C 11.495455629874773 9.787058842765042  11.495455629874773 9.833955250984959  11.50225330942623 9.88007934375  L 11.511857766393444 9.916696328125  C 11.612704579918034 10.229161359374999  11.961666547131149 10.649036249999998  13.772907279713115 11.37161165625  L 13.788114328893442 11.636881453125  L 8.892241828893441 11.636881453125  Z " fill-rule="evenodd" />
    </mask>
  </defs>
  <g transform="matrix(1 0 0 1 -44 -190 )">
    <path d="M 12.238595102459016 4.7569546875  C 12.240195845286884 5.091389921875001  12.60436487704918 5.324924984375  12.932517187499998 5.324924984375  C 13.100580559667762 5.323022225696218  13.265054164787081 5.275246559447272  13.408738232581968 5.186594109375  L 13.43595087602459 5.166251328125  C 13.549668710000349 5.062325071312244  13.615529846375056 4.91483866852939  13.61763519467213 4.7593958125  L 13.617635194672129 3.3305192499999996  C 13.616170699460236 3.0383280336396465  13.486076413981484 2.762159105844607  13.26307061987705 2.577836546875  L 10.861956101434425 0.3336215156249999  C 10.670450961314978 0.12176094541721873  10.40062808111381 0.0008242040326055938  10.117610609631146 0  L 1.233486900614754 0  C 0.9319889752469599 0.0003414857996229996  0.6417771493887288 0.11661682832904628  0.42110981557377064 0.3254844062500001  C 0.20284586422947856 0.5301594307195792  0.07913898104571092 0.818600708575586  0 1.12048009375  L 0 14.884402171875001  C 0.08015154713114755 15.495499156250002  0.5979919057377049 15.995931437500001  1.2350876434426228 16  L 12.4578968852459 16  C 13.094192228483607 16  13.612032602459015 15.49549915625  13.612032602459015 14.884402171875  L 13.612032602459015 14.0438386875  C 13.617894878852466 13.891268362592436  13.559699380333809 13.743354801017256  13.451958304303279 13.636983171874999  C 13.328701091188526 13.518995078124998  13.148617499999999 13.466103859374998  12.921311987704918 13.474240953125  C 12.441089077868853 13.474240953125  12.240195829918035 13.64349284375  12.240195845286886 14.036515281249999  L 12.240195845286886 14.646798562499999  L 1.457590911885246 14.646798562499999  L 1.457590911885246 1.335299796875  L 9.541343130122952 1.335299796875  L 9.541343130122952 3.336215234375  C 9.553061158231754 3.653198244961661  9.81205447895164 3.902402232824756  10.124013580942623 3.896862125  L 12.238595102459016 3.896862125  L 12.238595102459016 4.7569546875  Z M 11.78958668545082 2.7666175  L 10.703482546106558 2.7666175  L 10.703482546106558 1.744596453125  L 11.78958668545082 2.7666175  Z M 7.061792197745901 7.352692874999998  L 7.068995548155737 7.352692874999999  C 6.9781572530328795 7.238849502418928  6.841811384180875 7.1725278182786045  6.6976231659836065 7.172049031249999  L 3.175988545081967 7.172049031249999  C 2.8894555481557376 7.172049031249999  2.6565474436475407 7.448710781249999  2.6565474282786883 7.788028281249999  C 2.6554258620622813 7.942710924026383  2.706882098535693 8.093041353485354  2.802215040983606 8.213599140624996  C 2.8929698284931744 8.329827097000946  3.030048561355026 8.398762728250897  3.175988545081967 8.401566390624998  L 6.697623165983606 8.401566390624998  C 6.8432935864111295 8.398914088085071  6.979902878459601 8.329171707810273  7.068995548155738 8.211971718749998  C 7.263717390052776 7.958791521329105  7.2607302738974795 7.602462095432533  7.061792197745901 7.352692874999998  Z M 7.217864646516393 10.362609984375  C 7.217864646516393 10.023292484375  6.984956542008196 9.749071859375  6.698423529713115 9.749071859375  L 3.176788908811475 9.749071859375  C 2.8902559118852458 9.749071859375  2.657347807377049 10.024106187500001  2.657347807377049 10.362609984375  C 2.657347807377049 10.70111378125  2.891056290983606 10.9769618125  3.1775892879098357 10.9769618125  L 6.699223908811475 10.9769618125  C 6.984956542008197 10.9769618125  7.217864646516393 10.701927484375  7.217864646516393 10.362609984375  Z M 7.075398519467212 4.7789248906249995  L 7.072997397540983 4.778924890625  C 6.979464501367298 4.667141971368815  6.843530453449608 4.601149433803496  6.699223908811475 4.597467328125  L 3.1831918801229513 4.597467328125  C 3.036392611095203 4.598123124279692  2.897784235769344 4.666338455132706  2.8062169057377053 4.7829934375  C 2.613648629754023 5.036007680043483  2.616626285549276 5.390200256719539  2.813420240778689 5.6398311562500005  C 2.9035954771362986 5.751950682065334  3.037565837526361 5.8182679607608705  3.1799903944672128 5.821288718750001  L 6.710429108606556 5.821288718750001  C 6.852897844638342 5.8180793945033615  6.986606180760587 5.750707201442308  7.075398519467212 5.637390015625  C 7.2723887218452985 5.386276662780201  7.2723887218452985 5.030038243469799  7.075398519467212 4.7789248906249995  Z M 14.91983964651639 11.986777203125001  L 14.919839646516392 11.208869453125  C 14.914632453650281 10.897255375817052  14.721656839760941 10.620906027347969  14.434014144467213 10.513146515625001  C 13.3351040625 10.0867619375  12.867687110655737 9.835325234375002  12.673196818647542 9.711641156250002  C 12.822856568575256 9.505039699937058  12.93954252171088 9.275741899699808  13.018957315573772 9.032192437500003  C 13.162068268914355 8.878782701603404  13.254900593626381 8.684053855219503  13.284680655737704 8.474800390625001  C 13.312231972251977 8.263316288532224  13.27712002824249 8.04828350638614  13.183833842213112 7.8571937187500005  L 13.183833842213112 7.328281546875  C 13.215756021900082 6.912445612126768  13.083571440375039 6.500791907447435  12.81646332479508 6.184203828125001  C 12.513012699314427 5.827483411003367  12.082588489768481 5.607952670161467  11.619907930327868 5.573920562499999  C 11.524281128646512 5.566188140401129  11.428201355984635 5.566188140401129  11.332574554303278 5.5739205625  C 10.396940271516394 5.505568828125  9.571757243852458 6.172811875  9.485317115778688 7.068707718750001  C 9.476782564627374 7.155234678313518  9.475443867029785 7.242339446376968  9.481315266393441 7.32909525  L 9.481315266393441 7.85719371875  C 9.290049429751798 8.243381878540866  9.353784828590994 8.70960101788511  9.641389564549176 9.028123890625  C 9.722802554266877 9.273010218350208  9.841060756331682 9.503586718924426  9.991952274590162 9.71164115625  C 9.802264226434424 9.8336978125  9.340449866803276 10.082693390625  8.240739421106554 10.5147739375  C 7.950403722780818 10.624049438904253  7.7550181960437765 10.902341662412612  7.7477105840163905 11.2170065625  L 7.7477105840163905 11.983522359375  C 7.745479124544535 12.189363899772792  7.828563586940555 12.38665560946777  7.97661682377049 12.5270813125  C 8.123819223370523 12.66719951693156  8.317620466145502 12.745663296698355  8.51926870389344 12.746783296875  L 14.14828151127049 12.746783296874998  C 14.349929749018425 12.745663296698355  14.543730991793405 12.667199516931559  14.69093339139344 12.5270813125  C 14.838161403443412 12.387423445504174  14.921171139236835 12.19148951900125  14.91983964651639 11.986777203125001  Z M 8.892241828893441 11.636881453125  L 8.892241828893441 11.3919544375  C 10.708284774590163 10.664496781250001  11.053244892418032 10.247063015625  11.147688734631146 9.927274578125001  L 11.153291342213116 9.902863250000001  C 11.161811192237959 9.855613429057904  11.163160796973472 9.80731547624437  11.157293191598361 9.759650109375  L 11.157293191598363 9.4838020625  C 11.157303928854013 9.350890719727097  11.107172861671664 9.223037393896181  11.017228186475409 9.126582921875  C 10.875632263524674 8.957510581707625  10.778924196823015 8.754428237230638  10.736297781762294 8.536642421875001  L 10.736297781762293 8.521995625  C 10.709365187240534 8.421739523838966  10.65363130025967 8.331929009922307  10.576223483606558 8.264049234375001  C 10.63461733584225 8.17642027101637  10.66558605621206 8.072888951184588  10.665064718237707 7.967044703125001  L 10.665064718237705 7.274576609374999  C 10.649072067135364 7.143454774967181  10.686034882354573 7.011341596302172  10.767512274590166 6.908406656249999  C 10.865138911359216 6.784535693799904  11.00757893236469 6.705679476445387  11.16289579918033 6.6895183906249995  C 11.217350900214782 6.682198622302312  11.27251684568686 6.682198622302312  11.326971946721313 6.6895183906249995  L 11.365389789959018 6.6895183906249995  C 11.86402123463115 6.6895183906249995  12.058511511270492 6.861211421875  12.058511511270492 7.300615375  L 12.058511511270492 7.974368109375  C 12.0609006881173 8.077210730655382  12.09229241825907 8.177192004494023  12.14895348872951 8.2624218125  C 12.070052700983267 8.330706210727982  12.01247240574633 8.420919971619861  11.983276582991806 8.521995624999999  C 11.923076680821138 8.741718842888575  11.80715569157761 8.941507751126167  11.647120558401639 9.101357874999996  C 11.556583428038026 9.19945347899831  11.504977135318423 9.32815557761154  11.50225330942623 9.462645578124999  L 11.502253309426232 9.740934750000001  C 11.495455629874773 9.787058842765042  11.495455629874773 9.833955250984959  11.50225330942623 9.88007934375  L 11.511857766393444 9.916696328125  C 11.612704579918034 10.229161359374999  11.961666547131149 10.649036249999998  13.772907279713115 11.37161165625  L 13.788114328893442 11.636881453125  L 8.892241828893441 11.636881453125  Z " fill-rule="nonzero" fill="rgba(85, 85, 85, 1)" stroke="none" transform="matrix(1 0 0 1 44 190 )" class="fill" />
    <path d="M 12.238595102459016 4.7569546875  C 12.240195845286884 5.091389921875001  12.60436487704918 5.324924984375  12.932517187499998 5.324924984375  C 13.100580559667762 5.323022225696218  13.265054164787081 5.275246559447272  13.408738232581968 5.186594109375  L 13.43595087602459 5.166251328125  C 13.549668710000349 5.062325071312244  13.615529846375056 4.91483866852939  13.61763519467213 4.7593958125  L 13.617635194672129 3.3305192499999996  C 13.616170699460236 3.0383280336396465  13.486076413981484 2.762159105844607  13.26307061987705 2.577836546875  L 10.861956101434425 0.3336215156249999  C 10.670450961314978 0.12176094541721873  10.40062808111381 0.0008242040326055938  10.117610609631146 0  L 1.233486900614754 0  C 0.9319889752469599 0.0003414857996229996  0.6417771493887288 0.11661682832904628  0.42110981557377064 0.3254844062500001  C 0.20284586422947856 0.5301594307195792  0.07913898104571092 0.818600708575586  0 1.12048009375  L 0 14.884402171875001  C 0.08015154713114755 15.495499156250002  0.5979919057377049 15.995931437500001  1.2350876434426228 16  L 12.4578968852459 16  C 13.094192228483607 16  13.612032602459015 15.49549915625  13.612032602459015 14.884402171875  L 13.612032602459015 14.0438386875  C 13.617894878852466 13.891268362592436  13.559699380333809 13.743354801017256  13.451958304303279 13.636983171874999  C 13.328701091188526 13.518995078124998  13.148617499999999 13.466103859374998  12.921311987704918 13.474240953125  C 12.441089077868853 13.474240953125  12.240195829918035 13.64349284375  12.240195845286886 14.036515281249999  L 12.240195845286886 14.646798562499999  L 1.457590911885246 14.646798562499999  L 1.457590911885246 1.335299796875  L 9.541343130122952 1.335299796875  L 9.541343130122952 3.336215234375  C 9.553061158231754 3.653198244961661  9.81205447895164 3.902402232824756  10.124013580942623 3.896862125  L 12.238595102459016 3.896862125  L 12.238595102459016 4.7569546875  Z " stroke-width="0" stroke-dasharray="0" stroke="rgba(255, 255, 255, 0)" fill="none" transform="matrix(1 0 0 1 44 190 )" class="stroke" mask="url(#Clip467)" />
    <path d="M 11.78958668545082 2.7666175  L 10.703482546106558 2.7666175  L 10.703482546106558 1.744596453125  L 11.78958668545082 2.7666175  Z " stroke-width="0" stroke-dasharray="0" stroke="rgba(255, 255, 255, 0)" fill="none" transform="matrix(1 0 0 1 44 190 )" class="stroke" mask="url(#Clip467)" />
    <path d="M 7.061792197745901 7.352692874999998  L 7.068995548155737 7.352692874999999  C 6.9781572530328795 7.238849502418928  6.841811384180875 7.1725278182786045  6.6976231659836065 7.172049031249999  L 3.175988545081967 7.172049031249999  C 2.8894555481557376 7.172049031249999  2.6565474436475407 7.448710781249999  2.6565474282786883 7.788028281249999  C 2.6554258620622813 7.942710924026383  2.706882098535693 8.093041353485354  2.802215040983606 8.213599140624996  C 2.8929698284931744 8.329827097000946  3.030048561355026 8.398762728250897  3.175988545081967 8.401566390624998  L 6.697623165983606 8.401566390624998  C 6.8432935864111295 8.398914088085071  6.979902878459601 8.329171707810273  7.068995548155738 8.211971718749998  C 7.263717390052776 7.958791521329105  7.2607302738974795 7.602462095432533  7.061792197745901 7.352692874999998  Z " stroke-width="0" stroke-dasharray="0" stroke="rgba(255, 255, 255, 0)" fill="none" transform="matrix(1 0 0 1 44 190 )" class="stroke" mask="url(#Clip467)" />
    <path d="M 7.217864646516393 10.362609984375  C 7.217864646516393 10.023292484375  6.984956542008196 9.749071859375  6.698423529713115 9.749071859375  L 3.176788908811475 9.749071859375  C 2.8902559118852458 9.749071859375  2.657347807377049 10.024106187500001  2.657347807377049 10.362609984375  C 2.657347807377049 10.70111378125  2.891056290983606 10.9769618125  3.1775892879098357 10.9769618125  L 6.699223908811475 10.9769618125  C 6.984956542008197 10.9769618125  7.217864646516393 10.701927484375  7.217864646516393 10.362609984375  Z " stroke-width="0" stroke-dasharray="0" stroke="rgba(255, 255, 255, 0)" fill="none" transform="matrix(1 0 0 1 44 190 )" class="stroke" mask="url(#Clip467)" />
    <path d="M 7.075398519467212 4.7789248906249995  L 7.072997397540983 4.778924890625  C 6.979464501367298 4.667141971368815  6.843530453449608 4.601149433803496  6.699223908811475 4.597467328125  L 3.1831918801229513 4.597467328125  C 3.036392611095203 4.598123124279692  2.897784235769344 4.666338455132706  2.8062169057377053 4.7829934375  C 2.613648629754023 5.036007680043483  2.616626285549276 5.390200256719539  2.813420240778689 5.6398311562500005  C 2.9035954771362986 5.751950682065334  3.037565837526361 5.8182679607608705  3.1799903944672128 5.821288718750001  L 6.710429108606556 5.821288718750001  C 6.852897844638342 5.8180793945033615  6.986606180760587 5.750707201442308  7.075398519467212 5.637390015625  C 7.2723887218452985 5.386276662780201  7.2723887218452985 5.030038243469799  7.075398519467212 4.7789248906249995  Z " stroke-width="0" stroke-dasharray="0" stroke="rgba(255, 255, 255, 0)" fill="none" transform="matrix(1 0 0 1 44 190 )" class="stroke" mask="url(#Clip467)" />
    <path d="M 14.91983964651639 11.986777203125001  L 14.919839646516392 11.208869453125  C 14.914632453650281 10.897255375817052  14.721656839760941 10.620906027347969  14.434014144467213 10.513146515625001  C 13.3351040625 10.0867619375  12.867687110655737 9.835325234375002  12.673196818647542 9.711641156250002  C 12.822856568575256 9.505039699937058  12.93954252171088 9.275741899699808  13.018957315573772 9.032192437500003  C 13.162068268914355 8.878782701603404  13.254900593626381 8.684053855219503  13.284680655737704 8.474800390625001  C 13.312231972251977 8.263316288532224  13.27712002824249 8.04828350638614  13.183833842213112 7.8571937187500005  L 13.183833842213112 7.328281546875  C 13.215756021900082 6.912445612126768  13.083571440375039 6.500791907447435  12.81646332479508 6.184203828125001  C 12.513012699314427 5.827483411003367  12.082588489768481 5.607952670161467  11.619907930327868 5.573920562499999  C 11.524281128646512 5.566188140401129  11.428201355984635 5.566188140401129  11.332574554303278 5.5739205625  C 10.396940271516394 5.505568828125  9.571757243852458 6.172811875  9.485317115778688 7.068707718750001  C 9.476782564627374 7.155234678313518  9.475443867029785 7.242339446376968  9.481315266393441 7.32909525  L 9.481315266393441 7.85719371875  C 9.290049429751798 8.243381878540866  9.353784828590994 8.70960101788511  9.641389564549176 9.028123890625  C 9.722802554266877 9.273010218350208  9.841060756331682 9.503586718924426  9.991952274590162 9.71164115625  C 9.802264226434424 9.8336978125  9.340449866803276 10.082693390625  8.240739421106554 10.5147739375  C 7.950403722780818 10.624049438904253  7.7550181960437765 10.902341662412612  7.7477105840163905 11.2170065625  L 7.7477105840163905 11.983522359375  C 7.745479124544535 12.189363899772792  7.828563586940555 12.38665560946777  7.97661682377049 12.5270813125  C 8.123819223370523 12.66719951693156  8.317620466145502 12.745663296698355  8.51926870389344 12.746783296875  L 14.14828151127049 12.746783296874998  C 14.349929749018425 12.745663296698355  14.543730991793405 12.667199516931559  14.69093339139344 12.5270813125  C 14.838161403443412 12.387423445504174  14.921171139236835 12.19148951900125  14.91983964651639 11.986777203125001  Z " stroke-width="0" stroke-dasharray="0" stroke="rgba(255, 255, 255, 0)" fill="none" transform="matrix(1 0 0 1 44 190 )" class="stroke" mask="url(#Clip467)" />
    <path d="M 8.892241828893441 11.636881453125  L 8.892241828893441 11.3919544375  C 10.708284774590163 10.664496781250001  11.053244892418032 10.247063015625  11.147688734631146 9.927274578125001  L 11.153291342213116 9.902863250000001  C 11.161811192237959 9.855613429057904  11.163160796973472 9.80731547624437  11.157293191598361 9.759650109375  L 11.157293191598363 9.4838020625  C 11.157303928854013 9.350890719727097  11.107172861671664 9.223037393896181  11.017228186475409 9.126582921875  C 10.875632263524674 8.957510581707625  10.778924196823015 8.754428237230638  10.736297781762294 8.536642421875001  L 10.736297781762293 8.521995625  C 10.709365187240534 8.421739523838966  10.65363130025967 8.331929009922307  10.576223483606558 8.264049234375001  C 10.63461733584225 8.17642027101637  10.66558605621206 8.072888951184588  10.665064718237707 7.967044703125001  L 10.665064718237705 7.274576609374999  C 10.649072067135364 7.143454774967181  10.686034882354573 7.011341596302172  10.767512274590166 6.908406656249999  C 10.865138911359216 6.784535693799904  11.00757893236469 6.705679476445387  11.16289579918033 6.6895183906249995  C 11.217350900214782 6.682198622302312  11.27251684568686 6.682198622302312  11.326971946721313 6.6895183906249995  L 11.365389789959018 6.6895183906249995  C 11.86402123463115 6.6895183906249995  12.058511511270492 6.861211421875  12.058511511270492 7.300615375  L 12.058511511270492 7.974368109375  C 12.0609006881173 8.077210730655382  12.09229241825907 8.177192004494023  12.14895348872951 8.2624218125  C 12.070052700983267 8.330706210727982  12.01247240574633 8.420919971619861  11.983276582991806 8.521995624999999  C 11.923076680821138 8.741718842888575  11.80715569157761 8.941507751126167  11.647120558401639 9.101357874999996  C 11.556583428038026 9.19945347899831  11.504977135318423 9.32815557761154  11.50225330942623 9.462645578124999  L 11.502253309426232 9.740934750000001  C 11.495455629874773 9.787058842765042  11.495455629874773 9.833955250984959  11.50225330942623 9.88007934375  L 11.511857766393444 9.916696328125  C 11.612704579918034 10.229161359374999  11.961666547131149 10.649036249999998  13.772907279713115 11.37161165625  L 13.788114328893442 11.636881453125  L 8.892241828893441 11.636881453125  Z " stroke-width="0" stroke-dasharray="0" stroke="rgba(255, 255, 255, 0)" fill="none" transform="matrix(1 0 0 1 44 190 )" class="stroke" mask="url(#Clip467)" />
  </g>
</svg>