<?xml version="1.0" encoding="utf-8"?>
<svg version="1.1" xmlns:xlink="http://www.w3.org/1999/xlink" width="25px" height="22px" xmlns="http://www.w3.org/2000/svg">
  <defs>
    <pattern id="BGPattern" patternUnits="userSpaceOnUse" alignment="0 0" imageRepeat="None" />
    <mask fill="white" id="Clip1341">
      <path d="M 24.855627155754604 21.29521982341651  C 25.011615326651025 20.98636321689059  25.011615326651025 20.57455443634037  24.855627155754604 20.26569782981446  L 13.41649403568636 0.704780176583496  C 13.208509788867563 0.39592357005758433  12.896533447074715 0.1900191938579691  12.532561000924147 0.1900191938579691  C 12.16858855477358 0.1900191938579691  11.804616165493707 0.39592359820857714  11.648627994597282 0.704780176583496  L 0.2094948745290395 20.26569782981446  C 0.0015106277102439059 20.57455443634037  0.0015106277102439059 20.9863632168906  0.2094948745290395 21.29521982341651  C 0.4174791213478351 21.60407642994242  0.7294554631406837 21.809980806142033  1.0934278808559037 21.809980806142033  L 23.971694149427737 21.809980806142033  C 24.335666567142958 21.809980806142033  24.699638984858176 21.604076401791424  24.855627155754604 21.29521982341651  Z M 13.624478254069809 16.147609911708255  L 13.624478254069809 18.206653870761357  L 11.544635871187886 18.206653870761357  L 11.544635871187886 16.147609911708255  L 13.624478254069809 16.147609911708255  Z M 13.624478254069809 8.940956040946899  L 13.624478254069809 15.118087918106204  L 11.544635871187886 15.118087918106204  L 11.544635871187886 8.940956040946899  L 13.624478254069809 8.940956040946899  Z " fill-rule="evenodd" />
    </mask>
  </defs>
  <g transform="matrix(1 0 0 1 -429 -176 )">
    <path d="M 24.855627155754604 21.29521982341651  C 25.011615326651025 20.98636321689059  25.011615326651025 20.57455443634037  24.855627155754604 20.26569782981446  L 13.41649403568636 0.704780176583496  C 13.208509788867563 0.39592357005758433  12.896533447074715 0.1900191938579691  12.532561000924147 0.1900191938579691  C 12.16858855477358 0.1900191938579691  11.804616165493707 0.39592359820857714  11.648627994597282 0.704780176583496  L 0.2094948745290395 20.26569782981446  C 0.0015106277102439059 20.57455443634037  0.0015106277102439059 20.9863632168906  0.2094948745290395 21.29521982341651  C 0.4174791213478351 21.60407642994242  0.7294554631406837 21.809980806142033  1.0934278808559037 21.809980806142033  L 23.971694149427737 21.809980806142033  C 24.335666567142958 21.809980806142033  24.699638984858176 21.604076401791424  24.855627155754604 21.29521982341651  Z M 13.624478254069809 16.147609911708255  L 13.624478254069809 18.206653870761357  L 11.544635871187886 18.206653870761357  L 11.544635871187886 16.147609911708255  L 13.624478254069809 16.147609911708255  Z M 13.624478254069809 8.940956040946899  L 13.624478254069809 15.118087918106204  L 11.544635871187886 15.118087918106204  L 11.544635871187886 8.940956040946899  L 13.624478254069809 8.940956040946899  Z " fill-rule="nonzero" fill="rgba(255, 255, 255, 1)" stroke="none" transform="matrix(1 0 0 1 429 176 )" class="fill" />
    <path d="M 24.855627155754604 21.29521982341651  C 25.011615326651025 20.98636321689059  25.011615326651025 20.57455443634037  24.855627155754604 20.26569782981446  L 13.41649403568636 0.704780176583496  C 13.208509788867563 0.39592357005758433  12.896533447074715 0.1900191938579691  12.532561000924147 0.1900191938579691  C 12.16858855477358 0.1900191938579691  11.804616165493707 0.39592359820857714  11.648627994597282 0.704780176583496  L 0.2094948745290395 20.26569782981446  C 0.0015106277102439059 20.57455443634037  0.0015106277102439059 20.9863632168906  0.2094948745290395 21.29521982341651  C 0.4174791213478351 21.60407642994242  0.7294554631406837 21.809980806142033  1.0934278808559037 21.809980806142033  L 23.971694149427737 21.809980806142033  C 24.335666567142958 21.809980806142033  24.699638984858176 21.604076401791424  24.855627155754604 21.29521982341651  Z " stroke-width="0" stroke-dasharray="0" stroke="rgba(255, 255, 255, 0)" fill="none" transform="matrix(1 0 0 1 429 176 )" class="stroke" mask="url(#Clip1341)" />
    <path d="M 13.624478254069809 16.147609911708255  L 13.624478254069809 18.206653870761357  L 11.544635871187886 18.206653870761357  L 11.544635871187886 16.147609911708255  L 13.624478254069809 16.147609911708255  Z " stroke-width="0" stroke-dasharray="0" stroke="rgba(255, 255, 255, 0)" fill="none" transform="matrix(1 0 0 1 429 176 )" class="stroke" mask="url(#Clip1341)" />
    <path d="M 13.624478254069809 8.940956040946899  L 13.624478254069809 15.118087918106204  L 11.544635871187886 15.118087918106204  L 11.544635871187886 8.940956040946899  L 13.624478254069809 8.940956040946899  Z " stroke-width="0" stroke-dasharray="0" stroke="rgba(255, 255, 255, 0)" fill="none" transform="matrix(1 0 0 1 429 176 )" class="stroke" mask="url(#Clip1341)" />
  </g>
</svg>