<?xml version="1.0" encoding="utf-8"?>
<svg version="1.1" xmlns:xlink="http://www.w3.org/1999/xlink" width="22px" height="22px" xmlns="http://www.w3.org/2000/svg">
  <defs>
    <pattern id="BGPattern" patternUnits="userSpaceOnUse" alignment="0 0" imageRepeat="None" />
    <mask fill="white" id="Clip29">
      <path d="M 20.131692307692305 12.631771428571426  C 21.377230769230774 11.39809523809524  22 9.908520634920636  22 8.163047619047619  C 22 7.114869841269842  21.75348717948718 6.130387301587302  21.260461538461538 5.209600000000001  C 21.113803222737 4.935272361784934  20.826072316244186 4.763701001346531  20.512674012857207 4.763701001346531  C 20.28861464098974 4.763701001346531  20.073702314610358 4.851722032016253  19.915076923076924 5.008457142857144  L 17.00430769230769 7.893180952380954  L 14.032615384615385 4.9497904761904765  L 16.943384615384616 2.066742857142858  C 17.10230385570967 1.9095387461762816  17.191600886491276 1.6962031729507892  17.191600886491276 1.4737403797151105  C 17.191600886491276 1.1628815939749588  17.017887322484007 0.877558577777469  16.740307692307695 0.732495238095239  C 15.811794871794872 0.24416507936507964  14.817846153846153 0  13.758461538461539 0  C 11.996205128205132 0  10.492307692307696 0.6168380952380951  9.246769230769232 1.850514285714286  C 8.001230769230771 3.084190476190477  7.378461538461538 4.573765079365081  7.378461538461538 6.319238095238094  C 7.378461538461538 7.155098412698411  7.534717948717949 7.95017142857143  7.84723076923077 8.704457142857143  L 0.24876923076923116 16.230552380952382  C 0.08962173729785064 16.38778619323609  0.00017975068621487968 16.60128001989476  0.00017975068621487968 16.82392380952381  C 0.00017975068621487968 17.04656759915286  0.08962173729784914 17.26006142581153  0.24876923076923116 17.41729523809524  L 4.415230769230769 21.54575238095238  C 4.745653720487997 21.872929624507538  5.28126935643508 21.872929624507538  5.611692307692308 21.54575238095238  L 13.211846153846153 14.016304761904758  C 13.974512820512818 14.32695873015873  14.777230769230767 14.48228571428571  15.619999999999997 14.48228571428571  C 17.381128205128206 14.48228571428571  18.88502564102564 13.865447619047616  20.131692307692305 12.631771428571426  Z M 20.185846153846157 7.1103999999999985  L 20.189230769230768 7.108723809523808  C 20.268205128205132 7.450666666666667  20.30769230769231 7.802666666666666  20.30769230769231 8.164723809523808  C 20.30769230769231 9.445333333333334  19.850205128205133 10.539326984126983  18.935230769230767 11.44670476190476  C 18.019128205128204 12.35184761904762  16.91348717948718 12.804419047619046  15.618307692307692 12.804419047619046  C 14.842102564102564 12.804419047619046  14.112717948717947 12.625625396825399  13.430153846153846 12.268038095238094  C 13.101767354270976 12.095322290415941  12.698024337233404 12.155170947557632  12.435076923076926 12.415542857142855  L 5.014307692307694 19.76899047619047  L 2.042615384615386 16.823923809523805  L 9.463384615384618 9.473828571428568  C 9.72545934267307 9.213669330129674  9.785838928151971 8.81474585238984  9.612307692307693 8.489904761904759  C 9.251282051282052 7.813841269841266  9.070769230769232 7.09028571428571  9.070769230769232 6.3192380952380915  C 9.070769230769232 5.037511111111107  9.528256410256413 3.9429587301587268  10.44323076923077 3.0355809523809487  C 11.359333333333332 2.129320634920634  12.464410256410257 1.6761904761904765  13.758461538461539 1.6761904761904765  C 14.124 1.6761904761904765  14.479384615384616 1.7153015873015875  14.824615384615388 1.7935238095238093  L 12.235384615384618 4.358095238095237  C 11.905061436795272 4.685371304102397  11.905061436795272 5.215885838754744  12.235384615384618 5.543161904761904  L 16.403538461538464 9.673295238095237  C 16.562284137401825 9.830927041152604  16.777830789316823 9.919517199320318  17.002615384615385 9.919517199320318  C 17.227399979913947 9.919517199320318  17.44294663182895 9.830927041152604  17.60169230769231 9.673295238095237  L 20.185846153846157 7.1103999999999985  Z " fill-rule="evenodd" />
    </mask>
  </defs>
  <g transform="matrix(1 0 0 1 -1191 -185 )">
    <path d="M 20.131692307692305 12.631771428571426  C 21.377230769230774 11.39809523809524  22 9.908520634920636  22 8.163047619047619  C 22 7.114869841269842  21.75348717948718 6.130387301587302  21.260461538461538 5.209600000000001  C 21.113803222737 4.935272361784934  20.826072316244186 4.763701001346531  20.512674012857207 4.763701001346531  C 20.28861464098974 4.763701001346531  20.073702314610358 4.851722032016253  19.915076923076924 5.008457142857144  L 17.00430769230769 7.893180952380954  L 14.032615384615385 4.9497904761904765  L 16.943384615384616 2.066742857142858  C 17.10230385570967 1.9095387461762816  17.191600886491276 1.6962031729507892  17.191600886491276 1.4737403797151105  C 17.191600886491276 1.1628815939749588  17.017887322484007 0.877558577777469  16.740307692307695 0.732495238095239  C 15.811794871794872 0.24416507936507964  14.817846153846153 0  13.758461538461539 0  C 11.996205128205132 0  10.492307692307696 0.6168380952380951  9.246769230769232 1.850514285714286  C 8.001230769230771 3.084190476190477  7.378461538461538 4.573765079365081  7.378461538461538 6.319238095238094  C 7.378461538461538 7.155098412698411  7.534717948717949 7.95017142857143  7.84723076923077 8.704457142857143  L 0.24876923076923116 16.230552380952382  C 0.08962173729785064 16.38778619323609  0.00017975068621487968 16.60128001989476  0.00017975068621487968 16.82392380952381  C 0.00017975068621487968 17.04656759915286  0.08962173729784914 17.26006142581153  0.24876923076923116 17.41729523809524  L 4.415230769230769 21.54575238095238  C 4.745653720487997 21.872929624507538  5.28126935643508 21.872929624507538  5.611692307692308 21.54575238095238  L 13.211846153846153 14.016304761904758  C 13.974512820512818 14.32695873015873  14.777230769230767 14.48228571428571  15.619999999999997 14.48228571428571  C 17.381128205128206 14.48228571428571  18.88502564102564 13.865447619047616  20.131692307692305 12.631771428571426  Z M 20.185846153846157 7.1103999999999985  L 20.189230769230768 7.108723809523808  C 20.268205128205132 7.450666666666667  20.30769230769231 7.802666666666666  20.30769230769231 8.164723809523808  C 20.30769230769231 9.445333333333334  19.850205128205133 10.539326984126983  18.935230769230767 11.44670476190476  C 18.019128205128204 12.35184761904762  16.91348717948718 12.804419047619046  15.618307692307692 12.804419047619046  C 14.842102564102564 12.804419047619046  14.112717948717947 12.625625396825399  13.430153846153846 12.268038095238094  C 13.101767354270976 12.095322290415941  12.698024337233404 12.155170947557632  12.435076923076926 12.415542857142855  L 5.014307692307694 19.76899047619047  L 2.042615384615386 16.823923809523805  L 9.463384615384618 9.473828571428568  C 9.72545934267307 9.213669330129674  9.785838928151971 8.81474585238984  9.612307692307693 8.489904761904759  C 9.251282051282052 7.813841269841266  9.070769230769232 7.09028571428571  9.070769230769232 6.3192380952380915  C 9.070769230769232 5.037511111111107  9.528256410256413 3.9429587301587268  10.44323076923077 3.0355809523809487  C 11.359333333333332 2.129320634920634  12.464410256410257 1.6761904761904765  13.758461538461539 1.6761904761904765  C 14.124 1.6761904761904765  14.479384615384616 1.7153015873015875  14.824615384615388 1.7935238095238093  L 12.235384615384618 4.358095238095237  C 11.905061436795272 4.685371304102397  11.905061436795272 5.215885838754744  12.235384615384618 5.543161904761904  L 16.403538461538464 9.673295238095237  C 16.562284137401825 9.830927041152604  16.777830789316823 9.919517199320318  17.002615384615385 9.919517199320318  C 17.227399979913947 9.919517199320318  17.44294663182895 9.830927041152604  17.60169230769231 9.673295238095237  L 20.185846153846157 7.1103999999999985  Z " fill-rule="nonzero" fill="rgba(255, 255, 255, 1)" stroke="none" transform="matrix(1 0 0 1 1191 185 )" class="fill" />
    <path d="M 20.131692307692305 12.631771428571426  C 21.377230769230774 11.39809523809524  22 9.908520634920636  22 8.163047619047619  C 22 7.114869841269842  21.75348717948718 6.130387301587302  21.260461538461538 5.209600000000001  C 21.113803222737 4.935272361784934  20.826072316244186 4.763701001346531  20.512674012857207 4.763701001346531  C 20.28861464098974 4.763701001346531  20.073702314610358 4.851722032016253  19.915076923076924 5.008457142857144  L 17.00430769230769 7.893180952380954  L 14.032615384615385 4.9497904761904765  L 16.943384615384616 2.066742857142858  C 17.10230385570967 1.9095387461762816  17.191600886491276 1.6962031729507892  17.191600886491276 1.4737403797151105  C 17.191600886491276 1.1628815939749588  17.017887322484007 0.877558577777469  16.740307692307695 0.732495238095239  C 15.811794871794872 0.24416507936507964  14.817846153846153 0  13.758461538461539 0  C 11.996205128205132 0  10.492307692307696 0.6168380952380951  9.246769230769232 1.850514285714286  C 8.001230769230771 3.084190476190477  7.378461538461538 4.573765079365081  7.378461538461538 6.319238095238094  C 7.378461538461538 7.155098412698411  7.534717948717949 7.95017142857143  7.84723076923077 8.704457142857143  L 0.24876923076923116 16.230552380952382  C 0.08962173729785064 16.38778619323609  0.00017975068621487968 16.60128001989476  0.00017975068621487968 16.82392380952381  C 0.00017975068621487968 17.04656759915286  0.08962173729784914 17.26006142581153  0.24876923076923116 17.41729523809524  L 4.415230769230769 21.54575238095238  C 4.745653720487997 21.872929624507538  5.28126935643508 21.872929624507538  5.611692307692308 21.54575238095238  L 13.211846153846153 14.016304761904758  C 13.974512820512818 14.32695873015873  14.777230769230767 14.48228571428571  15.619999999999997 14.48228571428571  C 17.381128205128206 14.48228571428571  18.88502564102564 13.865447619047616  20.131692307692305 12.631771428571426  Z " stroke-width="0" stroke-dasharray="0" stroke="rgba(255, 255, 255, 0)" fill="none" transform="matrix(1 0 0 1 1191 185 )" class="stroke" mask="url(#Clip29)" />
    <path d="M 20.185846153846157 7.1103999999999985  L 20.189230769230768 7.108723809523808  C 20.268205128205132 7.450666666666667  20.30769230769231 7.802666666666666  20.30769230769231 8.164723809523808  C 20.30769230769231 9.445333333333334  19.850205128205133 10.539326984126983  18.935230769230767 11.44670476190476  C 18.019128205128204 12.35184761904762  16.91348717948718 12.804419047619046  15.618307692307692 12.804419047619046  C 14.842102564102564 12.804419047619046  14.112717948717947 12.625625396825399  13.430153846153846 12.268038095238094  C 13.101767354270976 12.095322290415941  12.698024337233404 12.155170947557632  12.435076923076926 12.415542857142855  L 5.014307692307694 19.76899047619047  L 2.042615384615386 16.823923809523805  L 9.463384615384618 9.473828571428568  C 9.72545934267307 9.213669330129674  9.785838928151971 8.81474585238984  9.612307692307693 8.489904761904759  C 9.251282051282052 7.813841269841266  9.070769230769232 7.09028571428571  9.070769230769232 6.3192380952380915  C 9.070769230769232 5.037511111111107  9.528256410256413 3.9429587301587268  10.44323076923077 3.0355809523809487  C 11.359333333333332 2.129320634920634  12.464410256410257 1.6761904761904765  13.758461538461539 1.6761904761904765  C 14.124 1.6761904761904765  14.479384615384616 1.7153015873015875  14.824615384615388 1.7935238095238093  L 12.235384615384618 4.358095238095237  C 11.905061436795272 4.685371304102397  11.905061436795272 5.215885838754744  12.235384615384618 5.543161904761904  L 16.403538461538464 9.673295238095237  C 16.562284137401825 9.830927041152604  16.777830789316823 9.919517199320318  17.002615384615385 9.919517199320318  C 17.227399979913947 9.919517199320318  17.44294663182895 9.830927041152604  17.60169230769231 9.673295238095237  L 20.185846153846157 7.1103999999999985  Z " stroke-width="0" stroke-dasharray="0" stroke="rgba(255, 255, 255, 0)" fill="none" transform="matrix(1 0 0 1 1191 185 )" class="stroke" mask="url(#Clip29)" />
  </g>
</svg>