<?xml version="1.0" encoding="utf-8"?>
<svg version="1.1" xmlns:xlink="http://www.w3.org/1999/xlink" width="16px" height="16px" xmlns="http://www.w3.org/2000/svg">
  <defs>
    <pattern id="BGPattern" patternUnits="userSpaceOnUse" alignment="0 0" imageRepeat="None" />
    <mask fill="white" id="Clip170">
      <path d="M 1.8039603960396033 9.005940594059405  C 1.4732673267326728 9.007920792079208  1.2059405940594055 8.742574257425742  1.2059405940594061 8.413861386138613  L 1.2059405940594061 1.7782178217821785  C 1.2059405940594061 1.4514851485148517  1.4732673267326735 1.1861386138613863  1.8039603960396038 1.1861386138613863  L 10.69108910891089 1.1861386138613863  C 11.021782178217823 1.1861386138613863  11.28910891089109 1.4514851485148517  11.28910891089109 1.7782178217821785  L 11.28910891089109 8.415841584158416  C 11.28910891089109 8.742574257425742  11.021782178217823 9.007920792079208  10.69108910891089 9.007920792079208  L 7.661386138613861 9.007920792079208  C 7.364356435643564 9.007920792079208  7.122772277227723 9.24950495049505  7.122772277227723 9.546534653465347  L 7.122772277227723 9.655445544554455  C 7.122772277227723 9.952475247524752  7.364356435643564 10.194059405940596  7.661386138613861 10.194059405940596  L 11.287128712871286 10.194059405940596  C 11.946534653465346 10.194059405940596  12.483168316831684 9.663366336633665  12.483168316831684 9.00792079207921  L 12.483168316831684 1.1861386138613879  C 12.483168316831684 0.5306930693069326  11.948514851485148 0  11.287128712871286 0  L 0.6079207920792077 0  C 0.2772277227722769 0  0.00990099009900962 0.26534653465346714  0.00990099009900962 0.5920792079207938  L 0.00990099009900962 9.005940594059407  C 0.00990099009900962 9.661386138613864  0.5445544554455446 10.192079207920793  1.2059405940594055 10.192079207920793  L 1.8039603960396033 10.192079207920793  C 2.1009900990099 10.192079207920793  2.3425742574257415 9.950495049504951  2.3425742574257415 9.653465346534654  L 2.3425742574257415 9.544554455445544  C 2.3425742574257415 9.247524752475247  2.1009900990099 9.005940594059405  1.8039603960396033 9.005940594059405  Z M 15.851485148514852 6.835643564356436  C 15.851485148514852 6.18019801980198  15.316831683168317 5.649504950495051  14.655445544554455 5.64950495049505  L 14.057425742574257 5.64950495049505  C 13.794059405940594 5.64950495049505  13.578217821782177 5.863366336633664  13.578217821782177 6.128712871287129  L 13.578217821782177 6.356435643564357  C 13.578217821782177 6.61980198019802  13.79207920792079 6.8356435643564355  14.057425742574257 6.8356435643564355  C 14.388118811881188 6.8356435643564355  14.655445544554455 7.1009900990099  14.655445544554455 7.427722772277227  L 14.655445544554455 14.065346534653465  C 14.655445544554455 14.39207920792079  14.388118811881188 14.657425742574256  14.057425742574257 14.657425742574256  L 5.110891089108911 14.657425742574256  C 4.780198019801981 14.657425742574256  4.512871287128713 14.39207920792079  4.512871287128713 14.065346534653465  L 4.512871287128713 7.427722772277228  C 4.512871287128713 7.100990099009901  4.780198019801981 6.835643564356436  5.110891089108911 6.835643564356436  L 8.25940594059406 6.835643564356436  C 8.522772277227721 6.835643564356436  8.73861386138614 6.621782178217822  8.73861386138614 6.356435643564358  L 8.73861386138614 6.12871287128713  C 8.73861386138614 5.865346534653466  8.524752475247528 5.649504950495051  8.25940594059406 5.649504950495051  L 4.512871287128712 5.649504950495051  C 3.853465346534653 5.649504950495051  3.3168316831683167 6.180198019801982  3.3168316831683167 6.835643564356436  L 3.3168316831683167 14.657425742574258  C 3.3168316831683167 15.312871287128715  3.8514851485148514 15.843564356435644  4.512871287128712 15.843564356435644  L 14.655445544554455 15.843564356435644  C 15.314851485148514 15.843564356435644  15.851485148514852 15.312871287128715  15.851485148514852 14.657425742574258  L 15.851485148514852 6.835643564356436  Z " fill-rule="evenodd" />
    </mask>
  </defs>
  <g transform="matrix(1 0 0 1 -43 -146 )">
    <path d="M 1.8039603960396033 9.005940594059405  C 1.4732673267326728 9.007920792079208  1.2059405940594055 8.742574257425742  1.2059405940594061 8.413861386138613  L 1.2059405940594061 1.7782178217821785  C 1.2059405940594061 1.4514851485148517  1.4732673267326735 1.1861386138613863  1.8039603960396038 1.1861386138613863  L 10.69108910891089 1.1861386138613863  C 11.021782178217823 1.1861386138613863  11.28910891089109 1.4514851485148517  11.28910891089109 1.7782178217821785  L 11.28910891089109 8.415841584158416  C 11.28910891089109 8.742574257425742  11.021782178217823 9.007920792079208  10.69108910891089 9.007920792079208  L 7.661386138613861 9.007920792079208  C 7.364356435643564 9.007920792079208  7.122772277227723 9.24950495049505  7.122772277227723 9.546534653465347  L 7.122772277227723 9.655445544554455  C 7.122772277227723 9.952475247524752  7.364356435643564 10.194059405940596  7.661386138613861 10.194059405940596  L 11.287128712871286 10.194059405940596  C 11.946534653465346 10.194059405940596  12.483168316831684 9.663366336633665  12.483168316831684 9.00792079207921  L 12.483168316831684 1.1861386138613879  C 12.483168316831684 0.5306930693069326  11.948514851485148 0  11.287128712871286 0  L 0.6079207920792077 0  C 0.2772277227722769 0  0.00990099009900962 0.26534653465346714  0.00990099009900962 0.5920792079207938  L 0.00990099009900962 9.005940594059407  C 0.00990099009900962 9.661386138613864  0.5445544554455446 10.192079207920793  1.2059405940594055 10.192079207920793  L 1.8039603960396033 10.192079207920793  C 2.1009900990099 10.192079207920793  2.3425742574257415 9.950495049504951  2.3425742574257415 9.653465346534654  L 2.3425742574257415 9.544554455445544  C 2.3425742574257415 9.247524752475247  2.1009900990099 9.005940594059405  1.8039603960396033 9.005940594059405  Z M 15.851485148514852 6.835643564356436  C 15.851485148514852 6.18019801980198  15.316831683168317 5.649504950495051  14.655445544554455 5.64950495049505  L 14.057425742574257 5.64950495049505  C 13.794059405940594 5.64950495049505  13.578217821782177 5.863366336633664  13.578217821782177 6.128712871287129  L 13.578217821782177 6.356435643564357  C 13.578217821782177 6.61980198019802  13.79207920792079 6.8356435643564355  14.057425742574257 6.8356435643564355  C 14.388118811881188 6.8356435643564355  14.655445544554455 7.1009900990099  14.655445544554455 7.427722772277227  L 14.655445544554455 14.065346534653465  C 14.655445544554455 14.39207920792079  14.388118811881188 14.657425742574256  14.057425742574257 14.657425742574256  L 5.110891089108911 14.657425742574256  C 4.780198019801981 14.657425742574256  4.512871287128713 14.39207920792079  4.512871287128713 14.065346534653465  L 4.512871287128713 7.427722772277228  C 4.512871287128713 7.100990099009901  4.780198019801981 6.835643564356436  5.110891089108911 6.835643564356436  L 8.25940594059406 6.835643564356436  C 8.522772277227721 6.835643564356436  8.73861386138614 6.621782178217822  8.73861386138614 6.356435643564358  L 8.73861386138614 6.12871287128713  C 8.73861386138614 5.865346534653466  8.524752475247528 5.649504950495051  8.25940594059406 5.649504950495051  L 4.512871287128712 5.649504950495051  C 3.853465346534653 5.649504950495051  3.3168316831683167 6.180198019801982  3.3168316831683167 6.835643564356436  L 3.3168316831683167 14.657425742574258  C 3.3168316831683167 15.312871287128715  3.8514851485148514 15.843564356435644  4.512871287128712 15.843564356435644  L 14.655445544554455 15.843564356435644  C 15.314851485148514 15.843564356435644  15.851485148514852 15.312871287128715  15.851485148514852 14.657425742574258  L 15.851485148514852 6.835643564356436  Z " fill-rule="nonzero" fill="rgba(85, 85, 85, 1)" stroke="none" transform="matrix(1 0 0 1 43 146 )" class="fill" />
    <path d="M 1.8039603960396033 9.005940594059405  C 1.4732673267326728 9.007920792079208  1.2059405940594055 8.742574257425742  1.2059405940594061 8.413861386138613  L 1.2059405940594061 1.7782178217821785  C 1.2059405940594061 1.4514851485148517  1.4732673267326735 1.1861386138613863  1.8039603960396038 1.1861386138613863  L 10.69108910891089 1.1861386138613863  C 11.021782178217823 1.1861386138613863  11.28910891089109 1.4514851485148517  11.28910891089109 1.7782178217821785  L 11.28910891089109 8.415841584158416  C 11.28910891089109 8.742574257425742  11.021782178217823 9.007920792079208  10.69108910891089 9.007920792079208  L 7.661386138613861 9.007920792079208  C 7.364356435643564 9.007920792079208  7.122772277227723 9.24950495049505  7.122772277227723 9.546534653465347  L 7.122772277227723 9.655445544554455  C 7.122772277227723 9.952475247524752  7.364356435643564 10.194059405940596  7.661386138613861 10.194059405940596  L 11.287128712871286 10.194059405940596  C 11.946534653465346 10.194059405940596  12.483168316831684 9.663366336633665  12.483168316831684 9.00792079207921  L 12.483168316831684 1.1861386138613879  C 12.483168316831684 0.5306930693069326  11.948514851485148 0  11.287128712871286 0  L 0.6079207920792077 0  C 0.2772277227722769 0  0.00990099009900962 0.26534653465346714  0.00990099009900962 0.5920792079207938  L 0.00990099009900962 9.005940594059407  C 0.00990099009900962 9.661386138613864  0.5445544554455446 10.192079207920793  1.2059405940594055 10.192079207920793  L 1.8039603960396033 10.192079207920793  C 2.1009900990099 10.192079207920793  2.3425742574257415 9.950495049504951  2.3425742574257415 9.653465346534654  L 2.3425742574257415 9.544554455445544  C 2.3425742574257415 9.247524752475247  2.1009900990099 9.005940594059405  1.8039603960396033 9.005940594059405  Z " stroke-width="0" stroke-dasharray="0" stroke="rgba(255, 255, 255, 0)" fill="none" transform="matrix(1 0 0 1 43 146 )" class="stroke" mask="url(#Clip170)" />
    <path d="M 15.851485148514852 6.835643564356436  C 15.851485148514852 6.18019801980198  15.316831683168317 5.649504950495051  14.655445544554455 5.64950495049505  L 14.057425742574257 5.64950495049505  C 13.794059405940594 5.64950495049505  13.578217821782177 5.863366336633664  13.578217821782177 6.128712871287129  L 13.578217821782177 6.356435643564357  C 13.578217821782177 6.61980198019802  13.79207920792079 6.8356435643564355  14.057425742574257 6.8356435643564355  C 14.388118811881188 6.8356435643564355  14.655445544554455 7.1009900990099  14.655445544554455 7.427722772277227  L 14.655445544554455 14.065346534653465  C 14.655445544554455 14.39207920792079  14.388118811881188 14.657425742574256  14.057425742574257 14.657425742574256  L 5.110891089108911 14.657425742574256  C 4.780198019801981 14.657425742574256  4.512871287128713 14.39207920792079  4.512871287128713 14.065346534653465  L 4.512871287128713 7.427722772277228  C 4.512871287128713 7.100990099009901  4.780198019801981 6.835643564356436  5.110891089108911 6.835643564356436  L 8.25940594059406 6.835643564356436  C 8.522772277227721 6.835643564356436  8.73861386138614 6.621782178217822  8.73861386138614 6.356435643564358  L 8.73861386138614 6.12871287128713  C 8.73861386138614 5.865346534653466  8.524752475247528 5.649504950495051  8.25940594059406 5.649504950495051  L 4.512871287128712 5.649504950495051  C 3.853465346534653 5.649504950495051  3.3168316831683167 6.180198019801982  3.3168316831683167 6.835643564356436  L 3.3168316831683167 14.657425742574258  C 3.3168316831683167 15.312871287128715  3.8514851485148514 15.843564356435644  4.512871287128712 15.843564356435644  L 14.655445544554455 15.843564356435644  C 15.314851485148514 15.843564356435644  15.851485148514852 15.312871287128715  15.851485148514852 14.657425742574258  L 15.851485148514852 6.835643564356436  Z " stroke-width="0" stroke-dasharray="0" stroke="rgba(255, 255, 255, 0)" fill="none" transform="matrix(1 0 0 1 43 146 )" class="stroke" mask="url(#Clip170)" />
  </g>
</svg>