<?xml version="1.0" encoding="utf-8"?>
<svg version="1.1" xmlns:xlink="http://www.w3.org/1999/xlink" width="24px" height="24px" xmlns="http://www.w3.org/2000/svg">
  <defs>
    <pattern id="BGPattern" patternUnits="userSpaceOnUse" alignment="0 0" imageRepeat="None" />
    <mask fill="white" id="Clip1219">
      <path d="M 0 12  C 0 5.279999999999999  5.279999999999999 0  12 0  C 18.72 0  24 5.279999999999999  24 12  C 24 18.72  18.72 24  12 24  C 5.279999999999999 24  0 18.72  0 12  Z " fill-rule="evenodd" />
    </mask>
  </defs>
  <g transform="matrix(1 0 0 1 -50 -828 )">
    <path d="M 0 12  C 0 5.279999999999999  5.279999999999999 0  12 0  C 18.72 0  24 5.279999999999999  24 12  C 24 18.72  18.72 24  12 24  C 5.279999999999999 24  0 18.72  0 12  Z " fill-rule="nonzero" fill="rgba(0, 82, 217, 1)" stroke="none" transform="matrix(1 0 0 1 50 828 )" class="fill" />
    <path d="M 0 12  C 0 5.279999999999999  5.279999999999999 0  12 0  C 18.72 0  24 5.279999999999999  24 12  C 24 18.72  18.72 24  12 24  C 5.279999999999999 24  0 18.72  0 12  Z " stroke-width="2" stroke-dasharray="0" stroke="rgba(0, 82, 217, 1)" fill="none" transform="matrix(1 0 0 1 50 828 )" class="stroke" mask="url(#Clip1219)" />
  </g>
</svg>