<?xml version="1.0" encoding="utf-8"?>
<svg version="1.1" xmlns:xlink="http://www.w3.org/1999/xlink" width="22px" height="22px" xmlns="http://www.w3.org/2000/svg">
  <defs>
    <pattern id="BGPattern" patternUnits="userSpaceOnUse" alignment="0 0" imageRepeat="None" />
    <mask fill="white" id="Clip1703">
      <path d="M 10.7195 16.159000000000002  C 10.934000000000001 16.376250000000002  11.211750000000002 16.500000000000004  11.55 16.5  C 11.88825 16.5  12.165999999999999 16.39275  12.413499999999999 16.175500000000003  C 12.627999999999998 15.961000000000004  12.75175 15.66675  12.75175 15.328500000000002  C 12.75175 14.990250000000003  12.627999999999998 14.712500000000004  12.413499999999999 14.498000000000001  C 12.1825 14.283500000000002  11.891 14.173500000000002  11.55 14.173500000000002  C 11.209000000000001 14.173500000000002  10.934000000000001 14.280750000000001  10.7195 14.498000000000001  C 10.472000000000001 14.712499999999999  10.36475 14.990250000000001  10.36475 15.328500000000002  C 10.36475 15.666750000000006  10.472000000000001 15.944500000000003  10.7195 16.159000000000002  Z M 11.552750000000001 13.342999999999998  C 11.924000000000001 13.342999999999998  12.226500000000001 13.054249999999998  12.243000000000002 12.6885  L 12.55925 6.225999999999999  C 12.578500000000002 5.832749999999999  12.265 5.5055  11.87175 5.5055  L 11.236500000000001 5.5055  C 10.84325 5.5055  10.52975 5.8355  10.549000000000001 6.225999999999999  L 10.86525 12.6885  C 10.884500000000001 13.054249999999998  11.18425 13.342999999999998  11.552750000000001 13.342999999999998  Z M 22 11  C 22 17.074749999999998  17.074749999999998 22  11 22  C 4.92525 22  0 17.074749999999998  0 11  C 0 4.92525  4.92525 0  11 0  C 17.074749999999998 0  22 4.92525  22 11  Z " fill-rule="evenodd" />
    </mask>
  </defs>
  <g transform="matrix(1 0 0 1 -1572 -176 )">
    <path d="M 10.7195 16.159000000000002  C 10.934000000000001 16.376250000000002  11.211750000000002 16.500000000000004  11.55 16.5  C 11.88825 16.5  12.165999999999999 16.39275  12.413499999999999 16.175500000000003  C 12.627999999999998 15.961000000000004  12.75175 15.66675  12.75175 15.328500000000002  C 12.75175 14.990250000000003  12.627999999999998 14.712500000000004  12.413499999999999 14.498000000000001  C 12.1825 14.283500000000002  11.891 14.173500000000002  11.55 14.173500000000002  C 11.209000000000001 14.173500000000002  10.934000000000001 14.280750000000001  10.7195 14.498000000000001  C 10.472000000000001 14.712499999999999  10.36475 14.990250000000001  10.36475 15.328500000000002  C 10.36475 15.666750000000006  10.472000000000001 15.944500000000003  10.7195 16.159000000000002  Z M 11.552750000000001 13.342999999999998  C 11.924000000000001 13.342999999999998  12.226500000000001 13.054249999999998  12.243000000000002 12.6885  L 12.55925 6.225999999999999  C 12.578500000000002 5.832749999999999  12.265 5.5055  11.87175 5.5055  L 11.236500000000001 5.5055  C 10.84325 5.5055  10.52975 5.8355  10.549000000000001 6.225999999999999  L 10.86525 12.6885  C 10.884500000000001 13.054249999999998  11.18425 13.342999999999998  11.552750000000001 13.342999999999998  Z M 22 11  C 22 17.074749999999998  17.074749999999998 22  11 22  C 4.92525 22  0 17.074749999999998  0 11  C 0 4.92525  4.92525 0  11 0  C 17.074749999999998 0  22 4.92525  22 11  Z " fill-rule="nonzero" fill="rgba(255, 255, 255, 1)" stroke="none" transform="matrix(1 0 0 1 1572 176 )" class="fill" />
    <path d="M 10.7195 16.159000000000002  C 10.934000000000001 16.376250000000002  11.211750000000002 16.500000000000004  11.55 16.5  C 11.88825 16.5  12.165999999999999 16.39275  12.413499999999999 16.175500000000003  C 12.627999999999998 15.961000000000004  12.75175 15.66675  12.75175 15.328500000000002  C 12.75175 14.990250000000003  12.627999999999998 14.712500000000004  12.413499999999999 14.498000000000001  C 12.1825 14.283500000000002  11.891 14.173500000000002  11.55 14.173500000000002  C 11.209000000000001 14.173500000000002  10.934000000000001 14.280750000000001  10.7195 14.498000000000001  C 10.472000000000001 14.712499999999999  10.36475 14.990250000000001  10.36475 15.328500000000002  C 10.36475 15.666750000000006  10.472000000000001 15.944500000000003  10.7195 16.159000000000002  Z " stroke-width="0" stroke-dasharray="0" stroke="rgba(255, 255, 255, 0)" fill="none" transform="matrix(1 0 0 1 1572 176 )" class="stroke" mask="url(#Clip1703)" />
    <path d="M 11.552750000000001 13.342999999999998  C 11.924000000000001 13.342999999999998  12.226500000000001 13.054249999999998  12.243000000000002 12.6885  L 12.55925 6.225999999999999  C 12.578500000000002 5.832749999999999  12.265 5.5055  11.87175 5.5055  L 11.236500000000001 5.5055  C 10.84325 5.5055  10.52975 5.8355  10.549000000000001 6.225999999999999  L 10.86525 12.6885  C 10.884500000000001 13.054249999999998  11.18425 13.342999999999998  11.552750000000001 13.342999999999998  Z " stroke-width="0" stroke-dasharray="0" stroke="rgba(255, 255, 255, 0)" fill="none" transform="matrix(1 0 0 1 1572 176 )" class="stroke" mask="url(#Clip1703)" />
    <path d="M 22 11  C 22 17.074749999999998  17.074749999999998 22  11 22  C 4.92525 22  0 17.074749999999998  0 11  C 0 4.92525  4.92525 0  11 0  C 17.074749999999998 0  22 4.92525  22 11  Z " stroke-width="0" stroke-dasharray="0" stroke="rgba(255, 255, 255, 0)" fill="none" transform="matrix(1 0 0 1 1572 176 )" class="stroke" mask="url(#Clip1703)" />
  </g>
</svg>