<?xml version="1.0" encoding="utf-8"?>
<svg version="1.1" xmlns:xlink="http://www.w3.org/1999/xlink" width="23px" height="22px" xmlns="http://www.w3.org/2000/svg">
  <defs>
    <pattern id="BGPattern" patternUnits="userSpaceOnUse" alignment="0 0" imageRepeat="None" />
    <mask fill="white" id="Clip182">
      <path d="M 17.940733171370965 19.75009304583333  L 5.058894608870967 19.75009304583333  L 4.337332580645162 22  L 18.664389080645165 22  L 17.940733171370965 19.75009304583333  Z M 8.693180995967742 20.153257895833335  C 8.230899711347623 20.609643324692904  7.769106597105854 21.066511575833097  7.307802427419353 21.523861883333335  L 4.952710008064515 21.523861883333335  L 5.409787663306452 20.153257895833335  L 8.693180995967742 20.153257895833335  Z M 11.54062189516129 6.609523204166665  L 11.459005838709677 6.609523204166668  C 8.305714231854838 6.609523204166668  5.749420177419354 9.136179112500002  5.749420177419354 12.252910770833331  L 5.749420177419354 19  L 17.250114489919355 19  L 17.250114489919355 12.252910770833331  C 17.250114489919355 9.136179066666665  14.693820389112906 6.609523204166665  11.54062189516129 6.609523204166665  Z M 11.581383366935476 7.898859558333335  C 14.102732399193542 7.901986995833337  16.145831951612895 9.921444454166668  16.148949564516126 12.413514437500002  C 16.148949564516126 12.680497316666665  15.92997291733871 12.896981075000001  15.659858274193544 12.896981075000001  C 15.389650564516124 12.896981075000001  15.170720473790318 12.680497316666665  15.170720473790318 12.413514437500002  C 15.167975127016124 10.455364195833335  13.562503112903222 8.868782312500002  11.581383366935476 8.86648271666667  L 11.500511842741929 8.86648271666667  C 11.230164556451607 8.86648271666667  11.011001776209671 8.64986095416667  11.011001776209671 8.382694100000004  C 11.011001776209671 8.115527245833336  11.230164556451607 7.898859512500003  11.500511842741929 7.898859558333335  L 11.581383366935476 7.898859558333335  Z M 3.7360076431451636 10.710527116666668  C 4.239709776209679 10.809869583333333  4.729592062500004 10.487328545833336  4.831030455645163 9.989788370833335  C 4.931817429435486 9.4917422875  4.6051671633064535 9.007263833333335  4.101278897177419 8.907553462500001  L 1.409020157258065 8.372989854166669  C 0.904247828629034 8.273693404166668  0.41371407661290277 8.597614208333333  0.3132993689516132 9.096488087500001  C 0.29227697031838595 9.200719146051897  0.28969503228089943 9.307763406533748  0.30566823790322717 9.412866237500003  C 0.36327405645161376 9.784020720833336  0.6480926088709692 10.098881100000003  1.044028056451614 10.176745333333335  L 3.7360076431451636 10.710527116666668  Z M 4.358783558467741 2.5304574166666707  C 3.9574504375 2.8475254500000036  3.892027354838709 3.4262412708333376  4.212907681451615 3.8229671791666693  L 5.929450080645163 5.943698750000003  C 6.250144320564517 6.33987277916667  6.8345318447580645 6.405227262500001  7.2353530766129035 6.086871495833335  C 7.636453508064516 5.771229245833337  7.702667679435485 5.1939391625  7.3833228346774185 4.797535141666667  C 7.382519270281384 4.796607323388855  7.381743413133847 4.795656407541457  7.3809962641129045 4.794683620833338  L 5.666454725806452 2.674687950000003  C 5.345620909274193 2.2779619958333357  4.760209699596776 2.213389383333335  4.358783558467741 2.5304574166666707  Z M 11.615351260080645 4.6257094583333345  L 11.61721254435484 4.625755475000002  C 12.130779312500005 4.637023508333336  12.556680977822586 4.235330412500001  12.569430582661296 3.727717995833335  L 12.562450870967746 1.0141051250000017  C 12.574502500000005 0.5064467375000011  12.167864818548392 0.08520714583333534  11.654158427419357 0.07329524583333415  C 11.140545102822582 0.06138334583333294  10.714410794354842 0.4633523583333338  10.70235921169355 0.9710567166666664  L 10.708687457661291 3.6846236166666677  C 10.696123985887096 4.191914054166667  11.10206369153226 4.6133376208333345  11.615351260080645 4.6257094583333345  Z M 15.617933493951613 5.736459345833333  C 15.64892339717742 5.943652779166666  15.750129147177418 6.139670166666666  15.923225848790324 6.288453875000002  C 16.30748193346774 6.623826641666669  16.89410296169355 6.587769008333336  17.233409766129036 6.2079681125000015  L 17.235410580645162 6.205714487500002  L 19.04915700806452 4.167768320833334  C 19.374411322580645 3.7746757125  19.31582832862903 3.1952700083333343  18.918171219758065 2.873740787499999  C 18.540615647177418 2.5683547083333336  17.988474354838708 2.603170579166666  17.65316927217742 2.953444724999999  L 15.83881793548387 4.991390891666667  C 15.65728811163629 5.195213291678092  15.576407212234994 5.468033804841028  15.617933493951613 5.736459345833333  Z M 22.694006052419358 9.613666791666668  C 22.61629865120968 9.111435483333336  22.141632116935487 8.766358379166668  21.633556042338714 8.84284289166667  L 18.919706747983874 9.25152671666667  C 18.40832692741936 9.305245216666668  18.03789068951613 9.758541191666671  18.092285828629034 10.263991970833336  C 18.146681014112904 10.769396733333338  18.60529424395161 11.135492087500005  19.116674018145158 11.081773541666669  C 19.144751255717274 11.078812379910957  19.172681959615772 11.07462301588252  19.200383955645158 11.069217775000002  L 21.913488810483866 10.661177816666669  C 22.42147181854838 10.585153241666667  22.77110854435484 10.116495995833336  22.69419218548387 9.614356675  Z " fill-rule="evenodd" />
    </mask>
  </defs>
  <g transform="matrix(1 0 0 1 -48 -176 )">
    <path d="M 17.940733171370965 19.75009304583333  L 5.058894608870967 19.75009304583333  L 4.337332580645162 22  L 18.664389080645165 22  L 17.940733171370965 19.75009304583333  Z M 8.693180995967742 20.153257895833335  C 8.230899711347623 20.609643324692904  7.769106597105854 21.066511575833097  7.307802427419353 21.523861883333335  L 4.952710008064515 21.523861883333335  L 5.409787663306452 20.153257895833335  L 8.693180995967742 20.153257895833335  Z M 11.54062189516129 6.609523204166665  L 11.459005838709677 6.609523204166668  C 8.305714231854838 6.609523204166668  5.749420177419354 9.136179112500002  5.749420177419354 12.252910770833331  L 5.749420177419354 19  L 17.250114489919355 19  L 17.250114489919355 12.252910770833331  C 17.250114489919355 9.136179066666665  14.693820389112906 6.609523204166665  11.54062189516129 6.609523204166665  Z M 11.581383366935476 7.898859558333335  C 14.102732399193542 7.901986995833337  16.145831951612895 9.921444454166668  16.148949564516126 12.413514437500002  C 16.148949564516126 12.680497316666665  15.92997291733871 12.896981075000001  15.659858274193544 12.896981075000001  C 15.389650564516124 12.896981075000001  15.170720473790318 12.680497316666665  15.170720473790318 12.413514437500002  C 15.167975127016124 10.455364195833335  13.562503112903222 8.868782312500002  11.581383366935476 8.86648271666667  L 11.500511842741929 8.86648271666667  C 11.230164556451607 8.86648271666667  11.011001776209671 8.64986095416667  11.011001776209671 8.382694100000004  C 11.011001776209671 8.115527245833336  11.230164556451607 7.898859512500003  11.500511842741929 7.898859558333335  L 11.581383366935476 7.898859558333335  Z M 3.7360076431451636 10.710527116666668  C 4.239709776209679 10.809869583333333  4.729592062500004 10.487328545833336  4.831030455645163 9.989788370833335  C 4.931817429435486 9.4917422875  4.6051671633064535 9.007263833333335  4.101278897177419 8.907553462500001  L 1.409020157258065 8.372989854166669  C 0.904247828629034 8.273693404166668  0.41371407661290277 8.597614208333333  0.3132993689516132 9.096488087500001  C 0.29227697031838595 9.200719146051897  0.28969503228089943 9.307763406533748  0.30566823790322717 9.412866237500003  C 0.36327405645161376 9.784020720833336  0.6480926088709692 10.098881100000003  1.044028056451614 10.176745333333335  L 3.7360076431451636 10.710527116666668  Z M 4.358783558467741 2.5304574166666707  C 3.9574504375 2.8475254500000036  3.892027354838709 3.4262412708333376  4.212907681451615 3.8229671791666693  L 5.929450080645163 5.943698750000003  C 6.250144320564517 6.33987277916667  6.8345318447580645 6.405227262500001  7.2353530766129035 6.086871495833335  C 7.636453508064516 5.771229245833337  7.702667679435485 5.1939391625  7.3833228346774185 4.797535141666667  C 7.382519270281384 4.796607323388855  7.381743413133847 4.795656407541457  7.3809962641129045 4.794683620833338  L 5.666454725806452 2.674687950000003  C 5.345620909274193 2.2779619958333357  4.760209699596776 2.213389383333335  4.358783558467741 2.5304574166666707  Z M 11.615351260080645 4.6257094583333345  L 11.61721254435484 4.625755475000002  C 12.130779312500005 4.637023508333336  12.556680977822586 4.235330412500001  12.569430582661296 3.727717995833335  L 12.562450870967746 1.0141051250000017  C 12.574502500000005 0.5064467375000011  12.167864818548392 0.08520714583333534  11.654158427419357 0.07329524583333415  C 11.140545102822582 0.06138334583333294  10.714410794354842 0.4633523583333338  10.70235921169355 0.9710567166666664  L 10.708687457661291 3.6846236166666677  C 10.696123985887096 4.191914054166667  11.10206369153226 4.6133376208333345  11.615351260080645 4.6257094583333345  Z M 15.617933493951613 5.736459345833333  C 15.64892339717742 5.943652779166666  15.750129147177418 6.139670166666666  15.923225848790324 6.288453875000002  C 16.30748193346774 6.623826641666669  16.89410296169355 6.587769008333336  17.233409766129036 6.2079681125000015  L 17.235410580645162 6.205714487500002  L 19.04915700806452 4.167768320833334  C 19.374411322580645 3.7746757125  19.31582832862903 3.1952700083333343  18.918171219758065 2.873740787499999  C 18.540615647177418 2.5683547083333336  17.988474354838708 2.603170579166666  17.65316927217742 2.953444724999999  L 15.83881793548387 4.991390891666667  C 15.65728811163629 5.195213291678092  15.576407212234994 5.468033804841028  15.617933493951613 5.736459345833333  Z M 22.694006052419358 9.613666791666668  C 22.61629865120968 9.111435483333336  22.141632116935487 8.766358379166668  21.633556042338714 8.84284289166667  L 18.919706747983874 9.25152671666667  C 18.40832692741936 9.305245216666668  18.03789068951613 9.758541191666671  18.092285828629034 10.263991970833336  C 18.146681014112904 10.769396733333338  18.60529424395161 11.135492087500005  19.116674018145158 11.081773541666669  C 19.144751255717274 11.078812379910957  19.172681959615772 11.07462301588252  19.200383955645158 11.069217775000002  L 21.913488810483866 10.661177816666669  C 22.42147181854838 10.585153241666667  22.77110854435484 10.116495995833336  22.69419218548387 9.614356675  Z " fill-rule="nonzero" fill="rgba(255, 255, 255, 1)" stroke="none" transform="matrix(1 0 0 1 48 176 )" class="fill" />
    <path d="M 17.940733171370965 19.75009304583333  L 5.058894608870967 19.75009304583333  L 4.337332580645162 22  L 18.664389080645165 22  L 17.940733171370965 19.75009304583333  Z " stroke-width="0" stroke-dasharray="0" stroke="rgba(255, 255, 255, 0)" fill="none" transform="matrix(1 0 0 1 48 176 )" class="stroke" mask="url(#Clip182)" />
    <path d="M 8.693180995967742 20.153257895833335  C 8.230899711347623 20.609643324692904  7.769106597105854 21.066511575833097  7.307802427419353 21.523861883333335  L 4.952710008064515 21.523861883333335  L 5.409787663306452 20.153257895833335  L 8.693180995967742 20.153257895833335  Z " stroke-width="0" stroke-dasharray="0" stroke="rgba(255, 255, 255, 0)" fill="none" transform="matrix(1 0 0 1 48 176 )" class="stroke" mask="url(#Clip182)" />
    <path d="M 11.54062189516129 6.609523204166665  L 11.459005838709677 6.609523204166668  C 8.305714231854838 6.609523204166668  5.749420177419354 9.136179112500002  5.749420177419354 12.252910770833331  L 5.749420177419354 19  L 17.250114489919355 19  L 17.250114489919355 12.252910770833331  C 17.250114489919355 9.136179066666665  14.693820389112906 6.609523204166665  11.54062189516129 6.609523204166665  Z " stroke-width="0" stroke-dasharray="0" stroke="rgba(255, 255, 255, 0)" fill="none" transform="matrix(1 0 0 1 48 176 )" class="stroke" mask="url(#Clip182)" />
    <path d="M 11.581383366935476 7.898859558333335  C 14.102732399193542 7.901986995833337  16.145831951612895 9.921444454166668  16.148949564516126 12.413514437500002  C 16.148949564516126 12.680497316666665  15.92997291733871 12.896981075000001  15.659858274193544 12.896981075000001  C 15.389650564516124 12.896981075000001  15.170720473790318 12.680497316666665  15.170720473790318 12.413514437500002  C 15.167975127016124 10.455364195833335  13.562503112903222 8.868782312500002  11.581383366935476 8.86648271666667  L 11.500511842741929 8.86648271666667  C 11.230164556451607 8.86648271666667  11.011001776209671 8.64986095416667  11.011001776209671 8.382694100000004  C 11.011001776209671 8.115527245833336  11.230164556451607 7.898859512500003  11.500511842741929 7.898859558333335  L 11.581383366935476 7.898859558333335  Z " stroke-width="0" stroke-dasharray="0" stroke="rgba(255, 255, 255, 0)" fill="none" transform="matrix(1 0 0 1 48 176 )" class="stroke" mask="url(#Clip182)" />
    <path d="M 3.7360076431451636 10.710527116666668  C 4.239709776209679 10.809869583333333  4.729592062500004 10.487328545833336  4.831030455645163 9.989788370833335  C 4.931817429435486 9.4917422875  4.6051671633064535 9.007263833333335  4.101278897177419 8.907553462500001  L 1.409020157258065 8.372989854166669  C 0.904247828629034 8.273693404166668  0.41371407661290277 8.597614208333333  0.3132993689516132 9.096488087500001  C 0.29227697031838595 9.200719146051897  0.28969503228089943 9.307763406533748  0.30566823790322717 9.412866237500003  C 0.36327405645161376 9.784020720833336  0.6480926088709692 10.098881100000003  1.044028056451614 10.176745333333335  L 3.7360076431451636 10.710527116666668  Z " stroke-width="0" stroke-dasharray="0" stroke="rgba(255, 255, 255, 0)" fill="none" transform="matrix(1 0 0 1 48 176 )" class="stroke" mask="url(#Clip182)" />
    <path d="M 4.358783558467741 2.5304574166666707  C 3.9574504375 2.8475254500000036  3.892027354838709 3.4262412708333376  4.212907681451615 3.8229671791666693  L 5.929450080645163 5.943698750000003  C 6.250144320564517 6.33987277916667  6.8345318447580645 6.405227262500001  7.2353530766129035 6.086871495833335  C 7.636453508064516 5.771229245833337  7.702667679435485 5.1939391625  7.3833228346774185 4.797535141666667  C 7.382519270281384 4.796607323388855  7.381743413133847 4.795656407541457  7.3809962641129045 4.794683620833338  L 5.666454725806452 2.674687950000003  C 5.345620909274193 2.2779619958333357  4.760209699596776 2.213389383333335  4.358783558467741 2.5304574166666707  Z " stroke-width="0" stroke-dasharray="0" stroke="rgba(255, 255, 255, 0)" fill="none" transform="matrix(1 0 0 1 48 176 )" class="stroke" mask="url(#Clip182)" />
    <path d="M 11.615351260080645 4.6257094583333345  L 11.61721254435484 4.625755475000002  C 12.130779312500005 4.637023508333336  12.556680977822586 4.235330412500001  12.569430582661296 3.727717995833335  L 12.562450870967746 1.0141051250000017  C 12.574502500000005 0.5064467375000011  12.167864818548392 0.08520714583333534  11.654158427419357 0.07329524583333415  C 11.140545102822582 0.06138334583333294  10.714410794354842 0.4633523583333338  10.70235921169355 0.9710567166666664  L 10.708687457661291 3.6846236166666677  C 10.696123985887096 4.191914054166667  11.10206369153226 4.6133376208333345  11.615351260080645 4.6257094583333345  Z " stroke-width="0" stroke-dasharray="0" stroke="rgba(255, 255, 255, 0)" fill="none" transform="matrix(1 0 0 1 48 176 )" class="stroke" mask="url(#Clip182)" />
    <path d="M 15.617933493951613 5.736459345833333  C 15.64892339717742 5.943652779166666  15.750129147177418 6.139670166666666  15.923225848790324 6.288453875000002  C 16.30748193346774 6.623826641666669  16.89410296169355 6.587769008333336  17.233409766129036 6.2079681125000015  L 17.235410580645162 6.205714487500002  L 19.04915700806452 4.167768320833334  C 19.374411322580645 3.7746757125  19.31582832862903 3.1952700083333343  18.918171219758065 2.873740787499999  C 18.540615647177418 2.5683547083333336  17.988474354838708 2.603170579166666  17.65316927217742 2.953444724999999  L 15.83881793548387 4.991390891666667  C 15.65728811163629 5.195213291678092  15.576407212234994 5.468033804841028  15.617933493951613 5.736459345833333  Z " stroke-width="0" stroke-dasharray="0" stroke="rgba(255, 255, 255, 0)" fill="none" transform="matrix(1 0 0 1 48 176 )" class="stroke" mask="url(#Clip182)" />
    <path d="M 22.694006052419358 9.613666791666668  C 22.61629865120968 9.111435483333336  22.141632116935487 8.766358379166668  21.633556042338714 8.84284289166667  L 18.919706747983874 9.25152671666667  C 18.40832692741936 9.305245216666668  18.03789068951613 9.758541191666671  18.092285828629034 10.263991970833336  C 18.146681014112904 10.769396733333338  18.60529424395161 11.135492087500005  19.116674018145158 11.081773541666669  C 19.144751255717274 11.078812379910957  19.172681959615772 11.07462301588252  19.200383955645158 11.069217775000002  L 21.913488810483866 10.661177816666669  C 22.42147181854838 10.585153241666667  22.77110854435484 10.116495995833336  22.69419218548387 9.614356675  Z " stroke-width="0" stroke-dasharray="0" stroke="rgba(255, 255, 255, 0)" fill="none" transform="matrix(1 0 0 1 48 176 )" class="stroke" mask="url(#Clip182)" />
  </g>
</svg>