<?xml version="1.0" encoding="utf-8"?>
<svg version="1.1" xmlns:xlink="http://www.w3.org/1999/xlink" width="17px" height="14px" xmlns="http://www.w3.org/2000/svg">
  <defs>
    <pattern id="BGPattern" patternUnits="userSpaceOnUse" alignment="0 0" imageRepeat="None" />
    <mask fill="white" id="Clip43">
      <path d="M 17 1.325070422535211  C 16.973015864583335 0.6520187711267602  16.41174604017857 0.10516432746478833  15.71015872172619 0.10516432746478904  L 1.397777769345238 0.10516432746478904  C 0.7069841101190475 0.10516432746478904  0.13492062648809514 0.6520187957746482  0.13492062648809514 1.3355868626760563  L 0.13492062648809514 12.76694834859155  C 0.13492062648809514 13.44  0.6961904761904761 13.997370883802816  1.397777769345238 14  L 15.720952380952383 14  C 16.41174604017857 13.997370883802816  16.983809523809523 13.45051641549296  17 12.76694834859155  L 17 1.325070422535211  Z M 12.806666666666667 7.046009397887325  L 5.596507944940475 11.357746478873242  L 5.596507944940475 2.7342722922535225  L 12.806666666666667 7.046009397887325  Z " fill-rule="evenodd" />
    </mask>
  </defs>
  <g transform="matrix(1 0 0 1 -811 -180 )">
    <path d="M 17 1.325070422535211  C 16.973015864583335 0.6520187711267602  16.41174604017857 0.10516432746478833  15.71015872172619 0.10516432746478904  L 1.397777769345238 0.10516432746478904  C 0.7069841101190475 0.10516432746478904  0.13492062648809514 0.6520187957746482  0.13492062648809514 1.3355868626760563  L 0.13492062648809514 12.76694834859155  C 0.13492062648809514 13.44  0.6961904761904761 13.997370883802816  1.397777769345238 14  L 15.720952380952383 14  C 16.41174604017857 13.997370883802816  16.983809523809523 13.45051641549296  17 12.76694834859155  L 17 1.325070422535211  Z M 12.806666666666667 7.046009397887325  L 5.596507944940475 11.357746478873242  L 5.596507944940475 2.7342722922535225  L 12.806666666666667 7.046009397887325  Z " fill-rule="nonzero" fill="rgba(255, 255, 255, 1)" stroke="none" transform="matrix(1 0 0 1 811 180 )" class="fill" />
    <path d="M 17 1.325070422535211  C 16.973015864583335 0.6520187711267602  16.41174604017857 0.10516432746478833  15.71015872172619 0.10516432746478904  L 1.397777769345238 0.10516432746478904  C 0.7069841101190475 0.10516432746478904  0.13492062648809514 0.6520187957746482  0.13492062648809514 1.3355868626760563  L 0.13492062648809514 12.76694834859155  C 0.13492062648809514 13.44  0.6961904761904761 13.997370883802816  1.397777769345238 14  L 15.720952380952383 14  C 16.41174604017857 13.997370883802816  16.983809523809523 13.45051641549296  17 12.76694834859155  L 17 1.325070422535211  Z " stroke-width="0" stroke-dasharray="0" stroke="rgba(255, 255, 255, 1)" fill="none" transform="matrix(1 0 0 1 811 180 )" class="stroke" mask="url(#Clip43)" />
    <path d="M 12.806666666666667 7.046009397887325  L 5.596507944940475 11.357746478873242  L 5.596507944940475 2.7342722922535225  L 12.806666666666667 7.046009397887325  Z " stroke-width="0" stroke-dasharray="0" stroke="rgba(255, 255, 255, 1)" fill="none" transform="matrix(1 0 0 1 811 180 )" class="stroke" mask="url(#Clip43)" />
  </g>
</svg>