<?xml version="1.0" encoding="utf-8"?>
<svg version="1.1" xmlns:xlink="http://www.w3.org/1999/xlink" width="40px" height="40px" xmlns="http://www.w3.org/2000/svg">
  <defs>
    <pattern id="BGPattern" patternUnits="userSpaceOnUse" alignment="0 0" imageRepeat="None" />
    <mask fill="white" id="Clip507">
      <path d="M 0.24690583333333097 20.000092916666667  C 0.24690583333333097 30.909451245117275  9.090688129882729 39.753233541666674  20.000046458333337 39.753233541666674  C 30.909404786783938 39.753233541666674  39.75318708333334 30.909451245117275  39.75318708333334 20.000092916666667  C 39.75318708333334 9.090734588216066  30.909404786783938 0.24695229166666607  20.000046458333326 0.24695229166666607  C 9.090688129882725 0.24695229166666607  0.24690583333332503 9.090734588216066  0.24690583333332503 20.000092916666667  Z " fill-rule="evenodd" />
    </mask>
  </defs>
  <g transform="matrix(1 0 0 1 -1182 -167 )">
    <path d="M 0.24690583333333097 20.000092916666667  C 0.24690583333333097 30.909451245117275  9.090688129882729 39.753233541666674  20.000046458333337 39.753233541666674  C 30.909404786783938 39.753233541666674  39.75318708333334 30.909451245117275  39.75318708333334 20.000092916666667  C 39.75318708333334 9.090734588216066  30.909404786783938 0.24695229166666607  20.000046458333326 0.24695229166666607  C 9.090688129882725 0.24695229166666607  0.24690583333332503 9.090734588216066  0.24690583333332503 20.000092916666667  Z " fill-rule="nonzero" fill="rgba(132, 0, 255, 1)" stroke="none" transform="matrix(1 0 0 1 1182 167 )" class="fill" />
    <path d="M 0.24690583333333097 20.000092916666667  C 0.24690583333333097 30.909451245117275  9.090688129882729 39.753233541666674  20.000046458333337 39.753233541666674  C 30.909404786783938 39.753233541666674  39.75318708333334 30.909451245117275  39.75318708333334 20.000092916666667  C 39.75318708333334 9.090734588216066  30.909404786783938 0.24695229166666607  20.000046458333326 0.24695229166666607  C 9.090688129882725 0.24695229166666607  0.24690583333332503 9.090734588216066  0.24690583333332503 20.000092916666667  Z " stroke-width="0" stroke-dasharray="0" stroke="rgba(255, 255, 255, 0)" fill="none" transform="matrix(1 0 0 1 1182 167 )" class="stroke" mask="url(#Clip507)" />
  </g>
</svg>