<?xml version="1.0" encoding="utf-8"?>
<svg version="1.1" xmlns:xlink="http://www.w3.org/1999/xlink" width="14px" height="14px" xmlns="http://www.w3.org/2000/svg">
  <defs>
    <pattern id="BGPattern" patternUnits="userSpaceOnUse" alignment="0 0" imageRepeat="None" />
    <mask fill="white" id="Clip151">
      <path d="M 14 12.51764705882353  C 14.065882352941179 13.308235294117647  13.407058823529413 13.96705882352941  12.616470588235293 14  L 1.5482352941176467 14  C 0.7576470588235291 13.96705882352941  0.09882352941176435 13.308235294117647  0 12.51764705882353  L 0 1.4494117647058826  C 0.09882352941176435 0.6588235294117647  0.7576470588235291 0  1.5482352941176467 0  C 1.9435294117647055 0  2.2070588235294113 0.2635294117647061  2.2070588235294113 0.6588235294117647  C 2.2070588235294113 1.0541176470588227  1.9435294117647055 1.31764705882353  1.5482352941176467 1.31764705882353  C 1.4164705882352937 1.31764705882353  1.4164705882352937 1.4494117647058826  1.4164705882352937 1.4494117647058826  L 1.4164705882352937 12.51764705882353  C 1.4164705882352937 12.649411764705881  1.5482352941176467 12.649411764705881  1.5482352941176467 12.649411764705881  L 12.484705882352944 12.649411764705881  C 12.616470588235295 12.649411764705881  12.616470588235295 12.51764705882353  12.616470588235295 12.51764705882353  L 12.616470588235295 1.4494117647058826  C 12.616470588235295 1.31764705882353  12.484705882352944 1.31764705882353  12.484705882352944 1.31764705882353  C 12.089411764705885 1.31764705882353  11.825882352941179 1.0541176470588238  11.825882352941179 0.6588235294117653  C 11.825882352941179 0.2635294117647067  12.089411764705885 0  12.484705882352944 0  C 13.27529411764706 0  13.934117647058825 0.6588235294117653  14 1.4494117647058826  L 14 12.51764705882353  Z " fill-rule="evenodd" />
    </mask>
  </defs>
  <g transform="matrix(1 0 0 1 -44 -280 )">
    <path d="M 14 12.51764705882353  C 14.065882352941179 13.308235294117647  13.407058823529413 13.96705882352941  12.616470588235293 14  L 1.5482352941176467 14  C 0.7576470588235291 13.96705882352941  0.09882352941176435 13.308235294117647  0 12.51764705882353  L 0 1.4494117647058826  C 0.09882352941176435 0.6588235294117647  0.7576470588235291 0  1.5482352941176467 0  C 1.9435294117647055 0  2.2070588235294113 0.2635294117647061  2.2070588235294113 0.6588235294117647  C 2.2070588235294113 1.0541176470588227  1.9435294117647055 1.31764705882353  1.5482352941176467 1.31764705882353  C 1.4164705882352937 1.31764705882353  1.4164705882352937 1.4494117647058826  1.4164705882352937 1.4494117647058826  L 1.4164705882352937 12.51764705882353  C 1.4164705882352937 12.649411764705881  1.5482352941176467 12.649411764705881  1.5482352941176467 12.649411764705881  L 12.484705882352944 12.649411764705881  C 12.616470588235295 12.649411764705881  12.616470588235295 12.51764705882353  12.616470588235295 12.51764705882353  L 12.616470588235295 1.4494117647058826  C 12.616470588235295 1.31764705882353  12.484705882352944 1.31764705882353  12.484705882352944 1.31764705882353  C 12.089411764705885 1.31764705882353  11.825882352941179 1.0541176470588238  11.825882352941179 0.6588235294117653  C 11.825882352941179 0.2635294117647067  12.089411764705885 0  12.484705882352944 0  C 13.27529411764706 0  13.934117647058825 0.6588235294117653  14 1.4494117647058826  L 14 12.51764705882353  Z " fill-rule="nonzero" fill="rgba(85, 85, 85, 1)" stroke="none" transform="matrix(1 0 0 1 44 280 )" class="fill" />
    <path d="M 14 12.51764705882353  C 14.065882352941179 13.308235294117647  13.407058823529413 13.96705882352941  12.616470588235293 14  L 1.5482352941176467 14  C 0.7576470588235291 13.96705882352941  0.09882352941176435 13.308235294117647  0 12.51764705882353  L 0 1.4494117647058826  C 0.09882352941176435 0.6588235294117647  0.7576470588235291 0  1.5482352941176467 0  C 1.9435294117647055 0  2.2070588235294113 0.2635294117647061  2.2070588235294113 0.6588235294117647  C 2.2070588235294113 1.0541176470588227  1.9435294117647055 1.31764705882353  1.5482352941176467 1.31764705882353  C 1.4164705882352937 1.31764705882353  1.4164705882352937 1.4494117647058826  1.4164705882352937 1.4494117647058826  L 1.4164705882352937 12.51764705882353  C 1.4164705882352937 12.649411764705881  1.5482352941176467 12.649411764705881  1.5482352941176467 12.649411764705881  L 12.484705882352944 12.649411764705881  C 12.616470588235295 12.649411764705881  12.616470588235295 12.51764705882353  12.616470588235295 12.51764705882353  L 12.616470588235295 1.4494117647058826  C 12.616470588235295 1.31764705882353  12.484705882352944 1.31764705882353  12.484705882352944 1.31764705882353  C 12.089411764705885 1.31764705882353  11.825882352941179 1.0541176470588238  11.825882352941179 0.6588235294117653  C 11.825882352941179 0.2635294117647067  12.089411764705885 0  12.484705882352944 0  C 13.27529411764706 0  13.934117647058825 0.6588235294117653  14 1.4494117647058826  L 14 12.51764705882353  Z " stroke-width="0" stroke-dasharray="0" stroke="rgba(255, 255, 255, 0)" fill="none" transform="matrix(1 0 0 1 44 280 )" class="stroke" mask="url(#Clip151)" />
  </g>
</svg>