<?xml version="1.0" encoding="utf-8"?>
<svg version="1.1" xmlns:xlink="http://www.w3.org/1999/xlink" width="8px" height="11px" xmlns="http://www.w3.org/2000/svg">
  <defs>
    <pattern id="BGPattern" patternUnits="userSpaceOnUse" alignment="0 0" imageRepeat="None" />
    <mask fill="white" id="Clip173">
      <path d="M 7.8666666666666645 0.6666666666666667  C 7.8666666666666645 1.0666666666666664  7.599999999999999 1.3333333333333335  7.2 1.3333333333333335  L 0.7999999999999995 1.3333333333333335  C 0.39999999999999974 1.3333333333333335  0.13333333333333286 1.0666666666666664  0.13333333333333286 0.6666666666666667  C 0.13333333333333286 0.2666666666666669  0.39999999999999974 0  0.7999999999999995 0  L 7.199999999999998 0  C 7.599999999999999 0  7.8666666666666645 0.2666666666666669  7.8666666666666645 0.6666666666666667  Z M 7.8666666666666645 3.866666666666667  C 7.8666666666666645 4.266666666666667  7.599999999999999 4.533333333333334  7.2 4.533333333333334  L 0.7999999999999995 4.533333333333334  C 0.39999999999999974 4.533333333333334  0.13333333333333286 4.266666666666667  0.13333333333333286 3.866666666666667  C 0.13333333333333286 3.4666666666666677  0.39999999999999974 3.2000000000000006  0.7999999999999995 3.2000000000000006  L 7.199999999999998 3.2000000000000006  C 7.599999999999999 3.2000000000000006  7.8666666666666645 3.4666666666666677  7.8666666666666645 3.866666666666667  Z M 7.8666666666666645 7.066666666666668  C 7.8666666666666645 7.466666666666669  7.599999999999999 7.733333333333334  7.2 7.733333333333334  L 0.7999999999999995 7.733333333333334  C 0.39999999999999974 7.733333333333334  0.13333333333333286 7.466666666666669  0.13333333333333286 7.066666666666668  C 0.13333333333333286 6.666666666666667  0.39999999999999974 6.400000000000001  0.7999999999999995 6.400000000000001  L 7.199999999999998 6.400000000000001  C 7.599999999999999 6.400000000000001  7.8666666666666645 6.666666666666667  7.8666666666666645 7.066666666666668  Z M 7.8666666666666645 10.266666666666666  C 7.8666666666666645 10.666666666666668  7.599999999999999 10.933333333333334  7.2 10.933333333333334  L 0.7999999999999995 10.933333333333334  C 0.39999999999999974 10.933333333333334  0.13333333333333286 10.666666666666668  0.13333333333333286 10.266666666666666  C 0.13333333333333286 9.866666666666664  0.39999999999999974 9.6  0.7999999999999995 9.6  L 7.199999999999998 9.6  C 7.599999999999999 9.6  7.8666666666666645 9.866666666666664  7.8666666666666645 10.266666666666666  Z " fill-rule="evenodd" />
    </mask>
  </defs>
  <g transform="matrix(1 0 0 1 -47 -280 )">
    <path d="M 7.8666666666666645 0.6666666666666667  C 7.8666666666666645 1.0666666666666664  7.599999999999999 1.3333333333333335  7.2 1.3333333333333335  L 0.7999999999999995 1.3333333333333335  C 0.39999999999999974 1.3333333333333335  0.13333333333333286 1.0666666666666664  0.13333333333333286 0.6666666666666667  C 0.13333333333333286 0.2666666666666669  0.39999999999999974 0  0.7999999999999995 0  L 7.199999999999998 0  C 7.599999999999999 0  7.8666666666666645 0.2666666666666669  7.8666666666666645 0.6666666666666667  Z M 7.8666666666666645 3.866666666666667  C 7.8666666666666645 4.266666666666667  7.599999999999999 4.533333333333334  7.2 4.533333333333334  L 0.7999999999999995 4.533333333333334  C 0.39999999999999974 4.533333333333334  0.13333333333333286 4.266666666666667  0.13333333333333286 3.866666666666667  C 0.13333333333333286 3.4666666666666677  0.39999999999999974 3.2000000000000006  0.7999999999999995 3.2000000000000006  L 7.199999999999998 3.2000000000000006  C 7.599999999999999 3.2000000000000006  7.8666666666666645 3.4666666666666677  7.8666666666666645 3.866666666666667  Z M 7.8666666666666645 7.066666666666668  C 7.8666666666666645 7.466666666666669  7.599999999999999 7.733333333333334  7.2 7.733333333333334  L 0.7999999999999995 7.733333333333334  C 0.39999999999999974 7.733333333333334  0.13333333333333286 7.466666666666669  0.13333333333333286 7.066666666666668  C 0.13333333333333286 6.666666666666667  0.39999999999999974 6.400000000000001  0.7999999999999995 6.400000000000001  L 7.199999999999998 6.400000000000001  C 7.599999999999999 6.400000000000001  7.8666666666666645 6.666666666666667  7.8666666666666645 7.066666666666668  Z M 7.8666666666666645 10.266666666666666  C 7.8666666666666645 10.666666666666668  7.599999999999999 10.933333333333334  7.2 10.933333333333334  L 0.7999999999999995 10.933333333333334  C 0.39999999999999974 10.933333333333334  0.13333333333333286 10.666666666666668  0.13333333333333286 10.266666666666666  C 0.13333333333333286 9.866666666666664  0.39999999999999974 9.6  0.7999999999999995 9.6  L 7.199999999999998 9.6  C 7.599999999999999 9.6  7.8666666666666645 9.866666666666664  7.8666666666666645 10.266666666666666  Z " fill-rule="nonzero" fill="rgba(85, 85, 85, 1)" stroke="none" transform="matrix(1 0 0 1 47 280 )" class="fill" />
    <path d="M 7.8666666666666645 0.6666666666666667  C 7.8666666666666645 1.0666666666666664  7.599999999999999 1.3333333333333335  7.2 1.3333333333333335  L 0.7999999999999995 1.3333333333333335  C 0.39999999999999974 1.3333333333333335  0.13333333333333286 1.0666666666666664  0.13333333333333286 0.6666666666666667  C 0.13333333333333286 0.2666666666666669  0.39999999999999974 0  0.7999999999999995 0  L 7.199999999999998 0  C 7.599999999999999 0  7.8666666666666645 0.2666666666666669  7.8666666666666645 0.6666666666666667  Z " stroke-width="0" stroke-dasharray="0" stroke="rgba(255, 255, 255, 0)" fill="none" transform="matrix(1 0 0 1 47 280 )" class="stroke" mask="url(#Clip173)" />
    <path d="M 7.8666666666666645 3.866666666666667  C 7.8666666666666645 4.266666666666667  7.599999999999999 4.533333333333334  7.2 4.533333333333334  L 0.7999999999999995 4.533333333333334  C 0.39999999999999974 4.533333333333334  0.13333333333333286 4.266666666666667  0.13333333333333286 3.866666666666667  C 0.13333333333333286 3.4666666666666677  0.39999999999999974 3.2000000000000006  0.7999999999999995 3.2000000000000006  L 7.199999999999998 3.2000000000000006  C 7.599999999999999 3.2000000000000006  7.8666666666666645 3.4666666666666677  7.8666666666666645 3.866666666666667  Z " stroke-width="0" stroke-dasharray="0" stroke="rgba(255, 255, 255, 0)" fill="none" transform="matrix(1 0 0 1 47 280 )" class="stroke" mask="url(#Clip173)" />
    <path d="M 7.8666666666666645 7.066666666666668  C 7.8666666666666645 7.466666666666669  7.599999999999999 7.733333333333334  7.2 7.733333333333334  L 0.7999999999999995 7.733333333333334  C 0.39999999999999974 7.733333333333334  0.13333333333333286 7.466666666666669  0.13333333333333286 7.066666666666668  C 0.13333333333333286 6.666666666666667  0.39999999999999974 6.400000000000001  0.7999999999999995 6.400000000000001  L 7.199999999999998 6.400000000000001  C 7.599999999999999 6.400000000000001  7.8666666666666645 6.666666666666667  7.8666666666666645 7.066666666666668  Z " stroke-width="0" stroke-dasharray="0" stroke="rgba(255, 255, 255, 0)" fill="none" transform="matrix(1 0 0 1 47 280 )" class="stroke" mask="url(#Clip173)" />
    <path d="M 7.8666666666666645 10.266666666666666  C 7.8666666666666645 10.666666666666668  7.599999999999999 10.933333333333334  7.2 10.933333333333334  L 0.7999999999999995 10.933333333333334  C 0.39999999999999974 10.933333333333334  0.13333333333333286 10.666666666666668  0.13333333333333286 10.266666666666666  C 0.13333333333333286 9.866666666666664  0.39999999999999974 9.6  0.7999999999999995 9.6  L 7.199999999999998 9.6  C 7.599999999999999 9.6  7.8666666666666645 9.866666666666664  7.8666666666666645 10.266666666666666  Z " stroke-width="0" stroke-dasharray="0" stroke="rgba(255, 255, 255, 0)" fill="none" transform="matrix(1 0 0 1 47 280 )" class="stroke" mask="url(#Clip173)" />
  </g>
</svg>