<?xml version="1.0" encoding="utf-8"?>
<svg version="1.1" xmlns:xlink="http://www.w3.org/1999/xlink" width="6px" height="3px" xmlns="http://www.w3.org/2000/svg">
  <defs>
    <pattern id="BGPattern" patternUnits="userSpaceOnUse" alignment="0 0" imageRepeat="None" />
    <mask fill="white" id="Clip472">
      <path d="M 5.96470588235294 2.428571428571429  C 5.96470588235294 2.7714285714285714  5.682352941176471 3  5.258823529411764 3  C 4.835294117647058 3  4.552941176470588 2.7714285714285714  4.552941176470588 2.428571428571429  L 4.552941176470588 1.2857142857142856  C 4.552941176470588 1.1714285714285713  4.411764705882353 1.1714285714285713  4.411764705882353 1.1714285714285713  L 1.5882352941176472 1.1714285714285713  C 1.5882352941176472 1.1714285714285713  1.4470588235294124 1.1714285714285713  1.4470588235294124 1.2857142857142856  L 1.4470588235294124 2.428571428571429  C 1.4470588235294124 2.7714285714285714  1.1647058823529415 3  0.7411764705882358 3  C 0.31764705882353017 3  0.03529411764705932 2.7714285714285714  0.03529411764705932 2.428571428571429  L 0.03529411764705932 1.2857142857142856  C 0.03529411764705932 0.5999999999999999  0.7411764705882358 0.02857142857142847  1.5882352941176472 0.02857142857142847  L 4.411764705882353 0.02857142857142847  C 5.258823529411764 0.02857142857142847  5.96470588235294 0.5999999999999999  5.96470588235294 1.2857142857142856  L 5.96470588235294 2.428571428571429  Z " fill-rule="evenodd" />
    </mask>
  </defs>
  <g transform="matrix(1 0 0 1 -48 -278 )">
    <path d="M 5.96470588235294 2.428571428571429  C 5.96470588235294 2.7714285714285714  5.682352941176471 3  5.258823529411764 3  C 4.835294117647058 3  4.552941176470588 2.7714285714285714  4.552941176470588 2.428571428571429  L 4.552941176470588 1.2857142857142856  C 4.552941176470588 1.1714285714285713  4.411764705882353 1.1714285714285713  4.411764705882353 1.1714285714285713  L 1.5882352941176472 1.1714285714285713  C 1.5882352941176472 1.1714285714285713  1.4470588235294124 1.1714285714285713  1.4470588235294124 1.2857142857142856  L 1.4470588235294124 2.428571428571429  C 1.4470588235294124 2.7714285714285714  1.1647058823529415 3  0.7411764705882358 3  C 0.31764705882353017 3  0.03529411764705932 2.7714285714285714  0.03529411764705932 2.428571428571429  L 0.03529411764705932 1.2857142857142856  C 0.03529411764705932 0.5999999999999999  0.7411764705882358 0.02857142857142847  1.5882352941176472 0.02857142857142847  L 4.411764705882353 0.02857142857142847  C 5.258823529411764 0.02857142857142847  5.96470588235294 0.5999999999999999  5.96470588235294 1.2857142857142856  L 5.96470588235294 2.428571428571429  Z " fill-rule="nonzero" fill="rgba(85, 85, 85, 1)" stroke="none" transform="matrix(1 0 0 1 48 278 )" class="fill" />
    <path d="M 5.96470588235294 2.428571428571429  C 5.96470588235294 2.7714285714285714  5.682352941176471 3  5.258823529411764 3  C 4.835294117647058 3  4.552941176470588 2.7714285714285714  4.552941176470588 2.428571428571429  L 4.552941176470588 1.2857142857142856  C 4.552941176470588 1.1714285714285713  4.411764705882353 1.1714285714285713  4.411764705882353 1.1714285714285713  L 1.5882352941176472 1.1714285714285713  C 1.5882352941176472 1.1714285714285713  1.4470588235294124 1.1714285714285713  1.4470588235294124 1.2857142857142856  L 1.4470588235294124 2.428571428571429  C 1.4470588235294124 2.7714285714285714  1.1647058823529415 3  0.7411764705882358 3  C 0.31764705882353017 3  0.03529411764705932 2.7714285714285714  0.03529411764705932 2.428571428571429  L 0.03529411764705932 1.2857142857142856  C 0.03529411764705932 0.5999999999999999  0.7411764705882358 0.02857142857142847  1.5882352941176472 0.02857142857142847  L 4.411764705882353 0.02857142857142847  C 5.258823529411764 0.02857142857142847  5.96470588235294 0.5999999999999999  5.96470588235294 1.2857142857142856  L 5.96470588235294 2.428571428571429  Z " stroke-width="0" stroke-dasharray="0" stroke="rgba(255, 255, 255, 0)" fill="none" transform="matrix(1 0 0 1 48 278 )" class="stroke" mask="url(#Clip472)" />
  </g>
</svg>