<?xml version="1.0" encoding="utf-8"?>
<svg version="1.1" xmlns:xlink="http://www.w3.org/1999/xlink" width="20px" height="20px" xmlns="http://www.w3.org/2000/svg">
  <defs>
    <pattern id="BGPattern" patternUnits="userSpaceOnUse" alignment="0 0" imageRepeat="None" />
    <mask fill="white" id="Clip194">
      <path d="M 19.859869385964913 10  C 19.859869385964913 4.554552368421053  15.445447631578947 0.1401306140350877  10 0.1401306140350877  C 4.554552368421053 0.1401306140350877  0.14013061403508736 4.554552368421053  0.14013061403508736 10  C 0.14013061403508736 15.445447631578947  4.554552368421053 19.859869385964913  10 19.859869385964913  C 15.445447631578947 19.859869385964913  19.859869385964913 15.445447631578947  19.859869385964913 10  Z M 17.844943574561405 13.313380197368419  C 17.41620971491228 14.326991907894737  16.802181096491225 15.237599780701757  16.01989043859649 16.01989043859649  C 15.237599780701757 16.80218109649123  14.326991907894737 17.416209692982456  13.31338019736842 17.844943574561405  C 12.264670877192982 18.28851089912281  11.149873026315788 18.513413859649127  9.999977565789473 18.513413859649127  C 8.850082105263159 18.513413859649127  7.735284254385966 18.28851089912281  6.686574934210526 17.844943574561405  C 5.672963223684211 17.416232127192984  4.762355350877193 16.80218109649123  3.980064692982457 16.01989043859649  C 3.19777403508772 15.237599780701757  2.583745438596492 14.326991907894737  2.155011557017544 13.31338019736842  C 1.7114442324561403 12.264670877192982  1.4865412719298245 11.149873026315788  1.4865412719298245 10  C 1.4865412719298245 8.850104539473683  1.7114442324561403 7.735306688596491  2.155011557017544 6.686597368421053  C 2.583723004385965 5.672985657894737  3.1977740350877193 4.762377785087719  3.9800646929824564 3.9800871271929825  C 4.762355350877193 3.197796469298246  5.67296322368421 2.5837678728070177  6.686574934210526 2.15503399122807  C 7.735284254385966 1.7114666666666658  8.850059671052632 1.4865637061403503  9.999977565789473 1.4865637061403503  C 11.149873026315788 1.4865637061403503  12.264648442982455 1.7114666666666658  13.31338019736842 2.15503399122807  C 14.326991907894737 2.583745438596491  15.237599780701757 3.197796469298245  16.01989043859649 3.9800871271929816  C 16.80218109649123 4.762377785087719  17.416209692982456 5.672985657894736  17.844943574561405 6.686597368421051  C 18.28851089912281 7.7353066885964905  18.513413859649127 8.850104539473683  18.513413859649127 9.999999999999998  C 18.513413859649127 11.149895460526313  18.28851089912281 12.26467087719298  17.844943574561405 13.313380197368419  Z M 14.727158486842107 10.110184956140353  C 14.81198519736842 10.061218837719297  14.81198519736842 9.938781162280701  14.727158486842107 9.889815065789474  L 7.394810526315791 4.3439442982456145  C 7.309983837719299 4.294978201754386  7.203972894736842 4.356197039473685  7.203972894736842 4.454129232456141  L 7.203972894736842 15.545848355263159  C 7.203972894736842 15.643780548245614  7.309983815789474 15.70499940789474  7.394810526315791 15.656033289473687  L 14.727158486842107 10.110184956140353  Z " fill-rule="evenodd" />
    </mask>
  </defs>
  <g transform="matrix(1 0 0 1 -1290 -1080 )">
    <path d="M 19.859869385964913 10  C 19.859869385964913 4.554552368421053  15.445447631578947 0.1401306140350877  10 0.1401306140350877  C 4.554552368421053 0.1401306140350877  0.14013061403508736 4.554552368421053  0.14013061403508736 10  C 0.14013061403508736 15.445447631578947  4.554552368421053 19.859869385964913  10 19.859869385964913  C 15.445447631578947 19.859869385964913  19.859869385964913 15.445447631578947  19.859869385964913 10  Z M 17.844943574561405 13.313380197368419  C 17.41620971491228 14.326991907894737  16.802181096491225 15.237599780701757  16.01989043859649 16.01989043859649  C 15.237599780701757 16.80218109649123  14.326991907894737 17.416209692982456  13.31338019736842 17.844943574561405  C 12.264670877192982 18.28851089912281  11.149873026315788 18.513413859649127  9.999977565789473 18.513413859649127  C 8.850082105263159 18.513413859649127  7.735284254385966 18.28851089912281  6.686574934210526 17.844943574561405  C 5.672963223684211 17.416232127192984  4.762355350877193 16.80218109649123  3.980064692982457 16.01989043859649  C 3.19777403508772 15.237599780701757  2.583745438596492 14.326991907894737  2.155011557017544 13.31338019736842  C 1.7114442324561403 12.264670877192982  1.4865412719298245 11.149873026315788  1.4865412719298245 10  C 1.4865412719298245 8.850104539473683  1.7114442324561403 7.735306688596491  2.155011557017544 6.686597368421053  C 2.583723004385965 5.672985657894737  3.1977740350877193 4.762377785087719  3.9800646929824564 3.9800871271929825  C 4.762355350877193 3.197796469298246  5.67296322368421 2.5837678728070177  6.686574934210526 2.15503399122807  C 7.735284254385966 1.7114666666666658  8.850059671052632 1.4865637061403503  9.999977565789473 1.4865637061403503  C 11.149873026315788 1.4865637061403503  12.264648442982455 1.7114666666666658  13.31338019736842 2.15503399122807  C 14.326991907894737 2.583745438596491  15.237599780701757 3.197796469298245  16.01989043859649 3.9800871271929816  C 16.80218109649123 4.762377785087719  17.416209692982456 5.672985657894736  17.844943574561405 6.686597368421051  C 18.28851089912281 7.7353066885964905  18.513413859649127 8.850104539473683  18.513413859649127 9.999999999999998  C 18.513413859649127 11.149895460526313  18.28851089912281 12.26467087719298  17.844943574561405 13.313380197368419  Z M 14.727158486842107 10.110184956140353  C 14.81198519736842 10.061218837719297  14.81198519736842 9.938781162280701  14.727158486842107 9.889815065789474  L 7.394810526315791 4.3439442982456145  C 7.309983837719299 4.294978201754386  7.203972894736842 4.356197039473685  7.203972894736842 4.454129232456141  L 7.203972894736842 15.545848355263159  C 7.203972894736842 15.643780548245614  7.309983815789474 15.70499940789474  7.394810526315791 15.656033289473687  L 14.727158486842107 10.110184956140353  Z " fill-rule="nonzero" fill="rgba(0, 168, 112, 1)" stroke="none" transform="matrix(1 0 0 1 1290 1080 )" class="fill" />
    <path d="M 19.859869385964913 10  C 19.859869385964913 4.554552368421053  15.445447631578947 0.1401306140350877  10 0.1401306140350877  C 4.554552368421053 0.1401306140350877  0.14013061403508736 4.554552368421053  0.14013061403508736 10  C 0.14013061403508736 15.445447631578947  4.554552368421053 19.859869385964913  10 19.859869385964913  C 15.445447631578947 19.859869385964913  19.859869385964913 15.445447631578947  19.859869385964913 10  Z " stroke-width="0" stroke-dasharray="0" stroke="rgba(255, 255, 255, 0)" fill="none" transform="matrix(1 0 0 1 1290 1080 )" class="stroke" mask="url(#Clip194)" />
    <path d="M 17.844943574561405 13.313380197368419  C 17.41620971491228 14.326991907894737  16.802181096491225 15.237599780701757  16.01989043859649 16.01989043859649  C 15.237599780701757 16.80218109649123  14.326991907894737 17.416209692982456  13.31338019736842 17.844943574561405  C 12.264670877192982 18.28851089912281  11.149873026315788 18.513413859649127  9.999977565789473 18.513413859649127  C 8.850082105263159 18.513413859649127  7.735284254385966 18.28851089912281  6.686574934210526 17.844943574561405  C 5.672963223684211 17.416232127192984  4.762355350877193 16.80218109649123  3.980064692982457 16.01989043859649  C 3.19777403508772 15.237599780701757  2.583745438596492 14.326991907894737  2.155011557017544 13.31338019736842  C 1.7114442324561403 12.264670877192982  1.4865412719298245 11.149873026315788  1.4865412719298245 10  C 1.4865412719298245 8.850104539473683  1.7114442324561403 7.735306688596491  2.155011557017544 6.686597368421053  C 2.583723004385965 5.672985657894737  3.1977740350877193 4.762377785087719  3.9800646929824564 3.9800871271929825  C 4.762355350877193 3.197796469298246  5.67296322368421 2.5837678728070177  6.686574934210526 2.15503399122807  C 7.735284254385966 1.7114666666666658  8.850059671052632 1.4865637061403503  9.999977565789473 1.4865637061403503  C 11.149873026315788 1.4865637061403503  12.264648442982455 1.7114666666666658  13.31338019736842 2.15503399122807  C 14.326991907894737 2.583745438596491  15.237599780701757 3.197796469298245  16.01989043859649 3.9800871271929816  C 16.80218109649123 4.762377785087719  17.416209692982456 5.672985657894736  17.844943574561405 6.686597368421051  C 18.28851089912281 7.7353066885964905  18.513413859649127 8.850104539473683  18.513413859649127 9.999999999999998  C 18.513413859649127 11.149895460526313  18.28851089912281 12.26467087719298  17.844943574561405 13.313380197368419  Z " stroke-width="0" stroke-dasharray="0" stroke="rgba(255, 255, 255, 0)" fill="none" transform="matrix(1 0 0 1 1290 1080 )" class="stroke" mask="url(#Clip194)" />
    <path d="M 14.727158486842107 10.110184956140353  C 14.81198519736842 10.061218837719297  14.81198519736842 9.938781162280701  14.727158486842107 9.889815065789474  L 7.394810526315791 4.3439442982456145  C 7.309983837719299 4.294978201754386  7.203972894736842 4.356197039473685  7.203972894736842 4.454129232456141  L 7.203972894736842 15.545848355263159  C 7.203972894736842 15.643780548245614  7.309983815789474 15.70499940789474  7.394810526315791 15.656033289473687  L 14.727158486842107 10.110184956140353  Z " stroke-width="0" stroke-dasharray="0" stroke="rgba(255, 255, 255, 0)" fill="none" transform="matrix(1 0 0 1 1290 1080 )" class="stroke" mask="url(#Clip194)" />
  </g>
</svg>