<?xml version="1.0" encoding="utf-8"?>
<svg version="1.1" xmlns:xlink="http://www.w3.org/1999/xlink" width="20px" height="9px" xmlns="http://www.w3.org/2000/svg">
  <defs>
    <pattern id="BGPattern" patternUnits="userSpaceOnUse" alignment="0 0" imageRepeat="None" />
    <mask fill="white" id="Clip529">
      <path d="M 19.886967741935482 0.021333333333330984  L 10 8.906666666666666  L 0.11303225806451629 0.017066666666664787  C 0.11303225806451629 0.017066666666664787  3.8270967741935475 3.146666666666666  10 3.146666666666666  C 16.040774193548387 3.146666666666666  19.886967741935482 0.021333333333330984  19.886967741935482 0.021333333333330984  Z " fill-rule="evenodd" />
    </mask>
  </defs>
  <g transform="matrix(1 0 0 1 -1044 -507 )">
    <path d="M 19.886967741935482 0.021333333333330984  L 10 8.906666666666666  L 0.11303225806451629 0.017066666666664787  C 0.11303225806451629 0.017066666666664787  3.8270967741935475 3.146666666666666  10 3.146666666666666  C 16.040774193548387 3.146666666666666  19.886967741935482 0.021333333333330984  19.886967741935482 0.021333333333330984  Z " fill-rule="nonzero" fill="rgba(227, 77, 89, 1)" stroke="none" transform="matrix(1 0 0 1 1044 507 )" class="fill" />
    <path d="M 19.886967741935482 0.021333333333330984  L 10 8.906666666666666  L 0.11303225806451629 0.017066666666664787  C 0.11303225806451629 0.017066666666664787  3.8270967741935475 3.146666666666666  10 3.146666666666666  C 16.040774193548387 3.146666666666666  19.886967741935482 0.021333333333330984  19.886967741935482 0.021333333333330984  Z " stroke-width="0" stroke-dasharray="0" stroke="rgba(255, 255, 255, 0)" fill="none" transform="matrix(1 0 0 1 1044 507 )" class="stroke" mask="url(#Clip529)" />
  </g>
</svg>