<?xml version="1.0" encoding="utf-8"?>
<svg version="1.1" xmlns:xlink="http://www.w3.org/1999/xlink" width="34px" height="34px" xmlns="http://www.w3.org/2000/svg">
  <defs>
    <pattern id="BGPattern" patternUnits="userSpaceOnUse" alignment="0 0" imageRepeat="None" />
    <mask fill="white" id="Clip516">
      <path d="M 0.16679245283018798 16.923019118758866  C 0.16679245283018798 26.219742937797367  7.7032761809614945 33.75622666592867  16.999999999999996 33.75622666592867  C 26.2967238190385 33.75622666592867  33.83320754716981 26.219742937797367  33.83320754716981 16.923019118758866  C 33.833207547169806 7.626294798051685  26.296723819038498 0.08981106992037825  16.999999999999996 0.08981106992037825  C 7.703276180961492 0.08981106992037825  0.16679245283018396 7.626294798051685  0.16679245283018396 16.92301861709019  Z " fill-rule="evenodd" />
    </mask>
  </defs>
  <g transform="matrix(1 0 0 1 -1037 -476 )">
    <path d="M 0.16679245283018798 16.923019118758866  C 0.16679245283018798 26.219742937797367  7.7032761809614945 33.75622666592867  16.999999999999996 33.75622666592867  C 26.2967238190385 33.75622666592867  33.83320754716981 26.219742937797367  33.83320754716981 16.923019118758866  C 33.833207547169806 7.626294798051685  26.296723819038498 0.08981106992037825  16.999999999999996 0.08981106992037825  C 7.703276180961492 0.08981106992037825  0.16679245283018396 7.626294798051685  0.16679245283018396 16.92301861709019  Z " fill-rule="nonzero" fill="rgba(255, 17, 0, 1)" stroke="none" transform="matrix(1 0 0 1 1037 476 )" class="fill" />
    <path d="M 0.16679245283018798 16.923019118758866  C 0.16679245283018798 26.219742937797367  7.7032761809614945 33.75622666592867  16.999999999999996 33.75622666592867  C 26.2967238190385 33.75622666592867  33.83320754716981 26.219742937797367  33.83320754716981 16.923019118758866  C 33.833207547169806 7.626294798051685  26.296723819038498 0.08981106992037825  16.999999999999996 0.08981106992037825  C 7.703276180961492 0.08981106992037825  0.16679245283018396 7.626294798051685  0.16679245283018396 16.92301861709019  Z " stroke-width="0" stroke-dasharray="0" stroke="rgba(255, 255, 255, 0)" fill="none" transform="matrix(1 0 0 1 1037 476 )" class="stroke" mask="url(#Clip516)" />
  </g>
</svg>