<?xml version="1.0" encoding="utf-8"?>
<svg version="1.1" xmlns:xlink="http://www.w3.org/1999/xlink" width="22px" height="25px" xmlns="http://www.w3.org/2000/svg">
  <defs>
    <pattern id="BGPattern" patternUnits="userSpaceOnUse" alignment="0 0" imageRepeat="None" />
    <mask fill="white" id="Clip219">
      <path d="M 16.553554285714284 4.887500000000005  L 16.553554285714284 4.8774999999999995  C 17.142902857142857 6.1775  17.23542857142857 8.3375  16.008457142857146 9.3635  C 14.01714285714286 1.7755  9.058971428571432 0.29349999999999987  9.058971428571432 0.29349999999999987  C 9.650331428571427 4.1515  6.977142857142858 8.3735  4.362285714285715 11.5555  C 4.273782857142859 10.0315  4.179245714285715 8.999500000000001  3.3264000000000014 7.427500000000001  C 3.155428571428571 10.2535  0.9830857142857143 12.4995  0.35149714285714323 15.3255  C -0.4148571428571429 19.2295  0.9830857142857143 21.9675  6.305325714285713 24.9755  C 4.63584 21.5235  5.540982857142855 19.5475  6.848411428571428 17.7535  C 7.683926229248251 16.52833029351087  8.282173204392057 15.158891526972795  8.612434285714285 13.7155  C 8.612434285714285 13.7155  9.738834285714287 15.1035  9.292297142857144 17.3015  C 11.183040000000002 15.1515  11.549120000000002 11.701500000000001  11.281600000000001 10.435500000000001  C 15.610194285714288 13.435500000000003  17.549211428571432 20.0875  15.02486857142857 24.887500000000003  C 28.37472 17.305500000000006  18.311542857142854 6.039500000000005  16.553554285714284 4.887500000000005  Z " fill-rule="evenodd" />
    </mask>
  </defs>
  <g transform="matrix(1 0 0 1 -1043 -480 )">
    <path d="M 16.553554285714284 4.887500000000005  L 16.553554285714284 4.8774999999999995  C 17.142902857142857 6.1775  17.23542857142857 8.3375  16.008457142857146 9.3635  C 14.01714285714286 1.7755  9.058971428571432 0.29349999999999987  9.058971428571432 0.29349999999999987  C 9.650331428571427 4.1515  6.977142857142858 8.3735  4.362285714285715 11.5555  C 4.273782857142859 10.0315  4.179245714285715 8.999500000000001  3.3264000000000014 7.427500000000001  C 3.155428571428571 10.2535  0.9830857142857143 12.4995  0.35149714285714323 15.3255  C -0.4148571428571429 19.2295  0.9830857142857143 21.9675  6.305325714285713 24.9755  C 4.63584 21.5235  5.540982857142855 19.5475  6.848411428571428 17.7535  C 7.683926229248251 16.52833029351087  8.282173204392057 15.158891526972795  8.612434285714285 13.7155  C 8.612434285714285 13.7155  9.738834285714287 15.1035  9.292297142857144 17.3015  C 11.183040000000002 15.1515  11.549120000000002 11.701500000000001  11.281600000000001 10.435500000000001  C 15.610194285714288 13.435500000000003  17.549211428571432 20.0875  15.02486857142857 24.887500000000003  C 28.37472 17.305500000000006  18.311542857142854 6.039500000000005  16.553554285714284 4.887500000000005  Z " fill-rule="nonzero" fill="rgba(244, 234, 42, 1)" stroke="none" transform="matrix(1 0 0 1 1043 480 )" class="fill" />
    <path d="M 16.553554285714284 4.887500000000005  L 16.553554285714284 4.8774999999999995  C 17.142902857142857 6.1775  17.23542857142857 8.3375  16.008457142857146 9.3635  C 14.01714285714286 1.7755  9.058971428571432 0.29349999999999987  9.058971428571432 0.29349999999999987  C 9.650331428571427 4.1515  6.977142857142858 8.3735  4.362285714285715 11.5555  C 4.273782857142859 10.0315  4.179245714285715 8.999500000000001  3.3264000000000014 7.427500000000001  C 3.155428571428571 10.2535  0.9830857142857143 12.4995  0.35149714285714323 15.3255  C -0.4148571428571429 19.2295  0.9830857142857143 21.9675  6.305325714285713 24.9755  C 4.63584 21.5235  5.540982857142855 19.5475  6.848411428571428 17.7535  C 7.683926229248251 16.52833029351087  8.282173204392057 15.158891526972795  8.612434285714285 13.7155  C 8.612434285714285 13.7155  9.738834285714287 15.1035  9.292297142857144 17.3015  C 11.183040000000002 15.1515  11.549120000000002 11.701500000000001  11.281600000000001 10.435500000000001  C 15.610194285714288 13.435500000000003  17.549211428571432 20.0875  15.02486857142857 24.887500000000003  C 28.37472 17.305500000000006  18.311542857142854 6.039500000000005  16.553554285714284 4.887500000000005  Z " stroke-width="0" stroke-dasharray="0" stroke="rgba(255, 255, 255, 0)" fill="none" transform="matrix(1 0 0 1 1043 480 )" class="stroke" mask="url(#Clip219)" />
  </g>
</svg>