<?xml version="1.0" encoding="utf-8"?>
<svg version="1.1" xmlns:xlink="http://www.w3.org/1999/xlink" width="17px" height="20px" xmlns="http://www.w3.org/2000/svg">
  <defs>
    <pattern id="BGPattern" patternUnits="userSpaceOnUse" alignment="0 0" imageRepeat="None" />
    <mask fill="white" id="Clip13">
      <path d="M 16.676072727272725 16.93887378640776  C 16.03849566860452 18.693049546394274  14.420612383168777 19.89521415668491  12.565163636363637 19.99347572815534  L 12.319127272727272 19.99968932038835  L 8.747272727272726 19.99968932038835  C 8.235265152875206 19.999531582418154  7.820284210950226 19.582289805782594  7.820284210950226 19.06765052921638  C 7.820284210950226 18.601992005004437  8.162210220367797 18.20778296417586  8.621163636363637 18.14431067961165  L 8.747272727272726 18.135611650485437  L 12.320363636363636 18.135611650485437  C 13.198181818181816 18.135611650485437  13.9808 17.726757281553397  14.49141818181818 17.087999999999997  L 15.686981818181819 17.087999999999997  C 16.030690909090907 17.087999999999997  16.363272727272726 17.03704854368932  16.676072727272725 16.93887378640776  Z M 8.036363636363637 0.0776699029126204  L 8.963636363636365 0.07766990291262142  C 13.265866040964449 0.07755971518833066  16.796133747175997 3.5007346092686946  16.950545454545455 7.822291262135922  L 16.95549090909091 8.110601941747573  L 16.95672727272727 8.533126213592231  C 16.553794380561495 8.365368908340491  16.121876386313367 8.27921700589517  15.685745454545453 8.279611650485437  L 15.100945454545455 8.278368932038836  L 15.100945454545451 8.110601941747573  C 15.101381228498916 4.807233663748874  12.51284660598827 2.0897933945997895  9.229454545454548 1.9467184466019427  L 8.963636363636365 1.941747572815535  L 8.036363636363637 1.941747572815535  C 4.749887582513793 1.9413095590187908  2.0463433147410397 4.54314904252464  1.9040000000000017 7.843417475728156  L 1.8990545454545469 8.110601941747573  L 1.8990545454545469 8.278368932038836  L 1.3130181818181834 8.279611650485435  C 0.8768872500502656 8.27921700589517  0.4449692558021405 8.365368908340491  0.04203636363636518 8.533126213592233  L 0.044509090909092185 8.110601941747573  C 0.044399466644753804 3.7862591478598313  3.4500694891076598 0.2378461478984796  7.749527272727272 0.0826407766990283  L 8.036363636363637 0.0776699029126204  Z " fill-rule="evenodd" />
    </mask>
  </defs>
  <g transform="matrix(1 0 0 1 -1252 -33 )">
    <path d="M 16.676072727272725 16.93887378640776  C 16.03849566860452 18.693049546394274  14.420612383168777 19.89521415668491  12.565163636363637 19.99347572815534  L 12.319127272727272 19.99968932038835  L 8.747272727272726 19.99968932038835  C 8.235265152875206 19.999531582418154  7.820284210950226 19.582289805782594  7.820284210950226 19.06765052921638  C 7.820284210950226 18.601992005004437  8.162210220367797 18.20778296417586  8.621163636363637 18.14431067961165  L 8.747272727272726 18.135611650485437  L 12.320363636363636 18.135611650485437  C 13.198181818181816 18.135611650485437  13.9808 17.726757281553397  14.49141818181818 17.087999999999997  L 15.686981818181819 17.087999999999997  C 16.030690909090907 17.087999999999997  16.363272727272726 17.03704854368932  16.676072727272725 16.93887378640776  Z M 8.036363636363637 0.0776699029126204  L 8.963636363636365 0.07766990291262142  C 13.265866040964449 0.07755971518833066  16.796133747175997 3.5007346092686946  16.950545454545455 7.822291262135922  L 16.95549090909091 8.110601941747573  L 16.95672727272727 8.533126213592231  C 16.553794380561495 8.365368908340491  16.121876386313367 8.27921700589517  15.685745454545453 8.279611650485437  L 15.100945454545455 8.278368932038836  L 15.100945454545451 8.110601941747573  C 15.101381228498916 4.807233663748874  12.51284660598827 2.0897933945997895  9.229454545454548 1.9467184466019427  L 8.963636363636365 1.941747572815535  L 8.036363636363637 1.941747572815535  C 4.749887582513793 1.9413095590187908  2.0463433147410397 4.54314904252464  1.9040000000000017 7.843417475728156  L 1.8990545454545469 8.110601941747573  L 1.8990545454545469 8.278368932038836  L 1.3130181818181834 8.279611650485435  C 0.8768872500502656 8.27921700589517  0.4449692558021405 8.365368908340491  0.04203636363636518 8.533126213592233  L 0.044509090909092185 8.110601941747573  C 0.044399466644753804 3.7862591478598313  3.4500694891076598 0.2378461478984796  7.749527272727272 0.0826407766990283  L 8.036363636363637 0.0776699029126204  Z " fill-rule="nonzero" fill="rgba(0, 82, 217, 1)" stroke="none" transform="matrix(1 0 0 1 1252 33 )" class="fill" />
    <path d="M 16.676072727272725 16.93887378640776  C 16.03849566860452 18.693049546394274  14.420612383168777 19.89521415668491  12.565163636363637 19.99347572815534  L 12.319127272727272 19.99968932038835  L 8.747272727272726 19.99968932038835  C 8.235265152875206 19.999531582418154  7.820284210950226 19.582289805782594  7.820284210950226 19.06765052921638  C 7.820284210950226 18.601992005004437  8.162210220367797 18.20778296417586  8.621163636363637 18.14431067961165  L 8.747272727272726 18.135611650485437  L 12.320363636363636 18.135611650485437  C 13.198181818181816 18.135611650485437  13.9808 17.726757281553397  14.49141818181818 17.087999999999997  L 15.686981818181819 17.087999999999997  C 16.030690909090907 17.087999999999997  16.363272727272726 17.03704854368932  16.676072727272725 16.93887378640776  Z " stroke-width="0" stroke-dasharray="0" stroke="rgba(255, 255, 255, 0)" fill="none" transform="matrix(1 0 0 1 1252 33 )" class="stroke" mask="url(#Clip13)" />
    <path d="M 8.036363636363637 0.0776699029126204  L 8.963636363636365 0.07766990291262142  C 13.265866040964449 0.07755971518833066  16.796133747175997 3.5007346092686946  16.950545454545455 7.822291262135922  L 16.95549090909091 8.110601941747573  L 16.95672727272727 8.533126213592231  C 16.553794380561495 8.365368908340491  16.121876386313367 8.27921700589517  15.685745454545453 8.279611650485437  L 15.100945454545455 8.278368932038836  L 15.100945454545451 8.110601941747573  C 15.101381228498916 4.807233663748874  12.51284660598827 2.0897933945997895  9.229454545454548 1.9467184466019427  L 8.963636363636365 1.941747572815535  L 8.036363636363637 1.941747572815535  C 4.749887582513793 1.9413095590187908  2.0463433147410397 4.54314904252464  1.9040000000000017 7.843417475728156  L 1.8990545454545469 8.110601941747573  L 1.8990545454545469 8.278368932038836  L 1.3130181818181834 8.279611650485435  C 0.8768872500502656 8.27921700589517  0.4449692558021405 8.365368908340491  0.04203636363636518 8.533126213592233  L 0.044509090909092185 8.110601941747573  C 0.044399466644753804 3.7862591478598313  3.4500694891076598 0.2378461478984796  7.749527272727272 0.0826407766990283  L 8.036363636363637 0.0776699029126204  Z " stroke-width="0" stroke-dasharray="0" stroke="rgba(255, 255, 255, 0)" fill="none" transform="matrix(1 0 0 1 1252 33 )" class="stroke" mask="url(#Clip13)" />
  </g>
</svg>