<?xml version="1.0" encoding="utf-8"?>
<svg version="1.1" xmlns:xlink="http://www.w3.org/1999/xlink" width="17px" height="20px" xmlns="http://www.w3.org/2000/svg">
  <defs>
    <pattern id="BGPattern" patternUnits="userSpaceOnUse" alignment="0 0" imageRepeat="None" />
    <mask fill="white" id="Clip18">
      <path d="M 7.093827160493826 17.69333333333333  C 7.354074074074074 18.152499999999996  7.839308641975308 18.461666666666666  8.395061728395062 18.461666666666666  C 8.950814814814814 18.461666666666666  9.436049382716048 18.153333333333332  9.696296296296296 17.69333333333333  L 11.30646913580247 17.69333333333333  C 10.972345679012346 19.01833333333333  9.795358024691357 20  8.395061728395062 20  C 6.994765432098766 20  5.817777777777778 19.019166666666667  5.483654320987655 17.692500000000003  L 7.093827160493826 17.692500000000003  Z M 7.642864197530865 0  L 9.14641975308642 0  L 9.14641975308642 1.5783333333333336  C 12.603506172839506 1.9466666666666668  15.358765432098767 4.823333333333333  15.580395061728392 8.448333333333334  L 15.909481481481478 13.845833333333335  L 16.350222222222218 14.296666666666669  C 16.937037037037033 14.8975  16.937037037037033 15.871666666666668  16.350222222222218 16.472500000000004  C 16.068148148148147 16.760833333333338  15.686172839506169 16.922500000000003  15.287407407407402 17  L 1.502716049382716 17  C 0.6732839506172836 16.922500000000003  0 16.234166666666667  0 15.385000000000002  C 0 14.976666666666672  0.1586666666666667 14.585  0.43990123456790126 14.296666666666669  L 0.8806419753086423 13.84666666666667  L 1.209728395061729 8.448333333333336  C 1.4313580246913589 4.823333333333337  4.186617283950618 1.9466666666666699  7.642864197530865 1.5783333333333363  L 7.642864197530865 0  Z M 8.395061728395062 3.076666666666667  C 5.387111111111111 3.076666666666667  2.8979753086419753 5.470833333333335  2.7099259259259254 8.543333333333333  L 2.34474074074074 14.5225  L 1.5027160493827154 15  L 15.287407407407409 15  L 14.445382716049384 14.5225  L 14.0801975308642 8.544166666666667  C 13.892148148148149 5.470833333333332  11.403012345679013 3.0775  8.395061728395062 3.0775  Z " fill-rule="evenodd" />
    </mask>
  </defs>
  <g transform="matrix(1 0 0 1 -1749 -32 )">
    <path d="M 7.093827160493826 17.69333333333333  C 7.354074074074074 18.152499999999996  7.839308641975308 18.461666666666666  8.395061728395062 18.461666666666666  C 8.950814814814814 18.461666666666666  9.436049382716048 18.153333333333332  9.696296296296296 17.69333333333333  L 11.30646913580247 17.69333333333333  C 10.972345679012346 19.01833333333333  9.795358024691357 20  8.395061728395062 20  C 6.994765432098766 20  5.817777777777778 19.019166666666667  5.483654320987655 17.692500000000003  L 7.093827160493826 17.692500000000003  Z M 7.642864197530865 0  L 9.14641975308642 0  L 9.14641975308642 1.5783333333333336  C 12.603506172839506 1.9466666666666668  15.358765432098767 4.823333333333333  15.580395061728392 8.448333333333334  L 15.909481481481478 13.845833333333335  L 16.350222222222218 14.296666666666669  C 16.937037037037033 14.8975  16.937037037037033 15.871666666666668  16.350222222222218 16.472500000000004  C 16.068148148148147 16.760833333333338  15.686172839506169 16.922500000000003  15.287407407407402 17  L 1.502716049382716 17  C 0.6732839506172836 16.922500000000003  0 16.234166666666667  0 15.385000000000002  C 0 14.976666666666672  0.1586666666666667 14.585  0.43990123456790126 14.296666666666669  L 0.8806419753086423 13.84666666666667  L 1.209728395061729 8.448333333333336  C 1.4313580246913589 4.823333333333337  4.186617283950618 1.9466666666666699  7.642864197530865 1.5783333333333363  L 7.642864197530865 0  Z M 8.395061728395062 3.076666666666667  C 5.387111111111111 3.076666666666667  2.8979753086419753 5.470833333333335  2.7099259259259254 8.543333333333333  L 2.34474074074074 14.5225  L 1.5027160493827154 15  L 15.287407407407409 15  L 14.445382716049384 14.5225  L 14.0801975308642 8.544166666666667  C 13.892148148148149 5.470833333333332  11.403012345679013 3.0775  8.395061728395062 3.0775  Z " fill-rule="nonzero" fill="rgba(0, 82, 217, 1)" stroke="none" transform="matrix(1 0 0 1 1749 32 )" class="fill" />
    <path d="M 7.093827160493826 17.69333333333333  C 7.354074074074074 18.152499999999996  7.839308641975308 18.461666666666666  8.395061728395062 18.461666666666666  C 8.950814814814814 18.461666666666666  9.436049382716048 18.153333333333332  9.696296296296296 17.69333333333333  L 11.30646913580247 17.69333333333333  C 10.972345679012346 19.01833333333333  9.795358024691357 20  8.395061728395062 20  C 6.994765432098766 20  5.817777777777778 19.019166666666667  5.483654320987655 17.692500000000003  L 7.093827160493826 17.692500000000003  Z " stroke-width="0" stroke-dasharray="0" stroke="rgba(255, 255, 255, 0)" fill="none" transform="matrix(1 0 0 1 1749 32 )" class="stroke" mask="url(#Clip18)" />
    <path d="M 7.642864197530865 0  L 9.14641975308642 0  L 9.14641975308642 1.5783333333333336  C 12.603506172839506 1.9466666666666668  15.358765432098767 4.823333333333333  15.580395061728392 8.448333333333334  L 15.909481481481478 13.845833333333335  L 16.350222222222218 14.296666666666669  C 16.937037037037033 14.8975  16.937037037037033 15.871666666666668  16.350222222222218 16.472500000000004  C 16.068148148148147 16.760833333333338  15.686172839506169 16.922500000000003  15.287407407407402 17  L 1.502716049382716 17  C 0.6732839506172836 16.922500000000003  0 16.234166666666667  0 15.385000000000002  C 0 14.976666666666672  0.1586666666666667 14.585  0.43990123456790126 14.296666666666669  L 0.8806419753086423 13.84666666666667  L 1.209728395061729 8.448333333333336  C 1.4313580246913589 4.823333333333337  4.186617283950618 1.9466666666666699  7.642864197530865 1.5783333333333363  L 7.642864197530865 0  Z " stroke-width="0" stroke-dasharray="0" stroke="rgba(255, 255, 255, 0)" fill="none" transform="matrix(1 0 0 1 1749 32 )" class="stroke" mask="url(#Clip18)" />
    <path d="M 8.395061728395062 3.076666666666667  C 5.387111111111111 3.076666666666667  2.8979753086419753 5.470833333333335  2.7099259259259254 8.543333333333333  L 2.34474074074074 14.5225  L 1.5027160493827154 15  L 15.287407407407409 15  L 14.445382716049384 14.5225  L 14.0801975308642 8.544166666666667  C 13.892148148148149 5.470833333333332  11.403012345679013 3.0775  8.395061728395062 3.0775  Z " stroke-width="0" stroke-dasharray="0" stroke="rgba(255, 255, 255, 0)" fill="none" transform="matrix(1 0 0 1 1749 32 )" class="stroke" mask="url(#Clip18)" />
  </g>
</svg>