<?xml version="1.0" encoding="utf-8"?>
<svg version="1.1" xmlns:xlink="http://www.w3.org/1999/xlink" width="21px" height="9px" xmlns="http://www.w3.org/2000/svg">
  <defs>
    <pattern id="BGPattern" patternUnits="userSpaceOnUse" alignment="0 0" imageRepeat="None" />
    <mask fill="white" id="Clip168">
      <path d="M 4.543636363636363 0.1225531914893618  L 3.3975709090909083 0.1225531914893618  C 1.5844057898818278 0.12255319148935365  0.11454522718813644 1.596881415467828  0.11454522718813644 3.415557446808502  C 0.11454522718813644 3.4159659574601284  0.11454530297390969 3.4163744681000643  0.11454545454545448 3.416782978723403  L 0.11454545454545448 5.51611914893617  C 0.11454530291747525 5.5165277356015014  0.11454522710348293 5.516936322290708  0.11454522710348293 5.517344908984346  C 0.11454522710348293 7.33602094032502  1.5844057897971746 8.810349164303494  3.3975706816489373 8.810349164303494  C 3.3979780302036904 8.810349164303494  3.3983853787461937 8.810349088259064  3.3987927272727267 8.810348936170211  L 4.543636363636363 8.810348936170207  C 5.72452157418366 8.810348936170207  6.681818181818182 7.85014261240306  6.681818181818182 6.665668085106378  L 6.681818181818182 2.2672340425531923  C 6.681818181818182 1.0827595152565106  5.72452157418366 0.12255319148936045  4.543636363636364 0.12255319148936045  Z M 3.398792727272727 1.9596255319148927  L 3.3975709090909083 1.9608510638297862  L 4.543636363636364 1.9608510638297862  C 4.7123342508574035 1.9608510638297862  4.849090909090909 2.0980233957965213  4.849090909090909 2.2672340425531896  L 4.849090909090909 6.665668085106381  C 4.849090909090909 6.834878731863049  4.712334250857405 6.972051063829785  4.543636363636363 6.972051063829785  L 3.3975709090909083 6.972051063829787  C 2.5963957398129285 6.971374908836454  1.947272212606812 6.319730300918593  1.947272212606812 5.516119664298074  C 1.947272212606812 5.515710981818229  1.9472723841621324 5.5153022993562155  1.9472727272727273 5.514893617021276  L 1.9472727272727273 3.4155574468085104  C 1.9472727272727273 2.611608510638296  2.5972799999999996 1.9596255319148927  3.398792727272727 1.9596255319148927  Z M 14.318181818181822 2.2672340425531923  C 14.318181818181822 1.083370212765958  15.276087272727276 0.1225531914893618  16.456363636363637 0.1225531914893618  L 17.602429090909094 0.1225531914893618  C 19.415594210118172 0.12255319148935365  20.885454772811865 1.596881415467828  20.885454772811865 3.415557446808502  C 20.885454772811865 3.4159659574627486  20.885454697026088 3.416374468097449  20.885454545454547 3.416782978723403  L 20.885454545454543 5.51611914893617  C 20.885454697082523 5.516527735598883  20.885454772896516 5.5169363222933265  20.885454772896516 5.517344908984346  C 20.885454772896516 7.33602094032502  19.415594210202826 8.810349164303494  17.602429318351064 8.810349164303494  C 17.602021969796308 8.810349164303494  17.60161462125381 8.810349088259064  17.601207272727276 8.810348936170211  L 16.45636363636364 8.810348936170207  C 15.275478425816342 8.810348936170207  14.318181818181822 7.85014261240306  14.318181818181822 6.665668085106381  L 14.318181818181822 2.2672340425531923  Z M 17.601207272727276 1.9608510638297836  L 17.602429090909094 1.9608510638297862  L 16.45636363636364 1.9608510638297862  C 16.287665749142604 1.9608510638297862  16.150909090909096 2.0980233957965213  16.150909090909096 2.2672340425531896  L 16.150909090909096 6.665668085106381  C 16.150909090909096 6.834791489361701  16.287752727272732 6.972051063829785  16.45636363636364 6.972051063829785  L 17.602429090909094 6.972051063829785  C 18.402720000000002 6.972051063829785  19.052727272727275 6.320068085106381  19.052727272727275 5.516119148936166  L 19.052727272727275 3.416782978723401  C 19.052727272727275 2.6128340425531866  18.402720000000002 1.9608510638297836  17.601207272727276 1.9608510638297836  Z " fill-rule="evenodd" />
    </mask>
  </defs>
  <g transform="matrix(1 0 0 1 -1236 -41 )">
    <path d="M 4.543636363636363 0.1225531914893618  L 3.3975709090909083 0.1225531914893618  C 1.5844057898818278 0.12255319148935365  0.11454522718813644 1.596881415467828  0.11454522718813644 3.415557446808502  C 0.11454522718813644 3.4159659574601284  0.11454530297390969 3.4163744681000643  0.11454545454545448 3.416782978723403  L 0.11454545454545448 5.51611914893617  C 0.11454530291747525 5.5165277356015014  0.11454522710348293 5.516936322290708  0.11454522710348293 5.517344908984346  C 0.11454522710348293 7.33602094032502  1.5844057897971746 8.810349164303494  3.3975706816489373 8.810349164303494  C 3.3979780302036904 8.810349164303494  3.3983853787461937 8.810349088259064  3.3987927272727267 8.810348936170211  L 4.543636363636363 8.810348936170207  C 5.72452157418366 8.810348936170207  6.681818181818182 7.85014261240306  6.681818181818182 6.665668085106378  L 6.681818181818182 2.2672340425531923  C 6.681818181818182 1.0827595152565106  5.72452157418366 0.12255319148936045  4.543636363636364 0.12255319148936045  Z M 3.398792727272727 1.9596255319148927  L 3.3975709090909083 1.9608510638297862  L 4.543636363636364 1.9608510638297862  C 4.7123342508574035 1.9608510638297862  4.849090909090909 2.0980233957965213  4.849090909090909 2.2672340425531896  L 4.849090909090909 6.665668085106381  C 4.849090909090909 6.834878731863049  4.712334250857405 6.972051063829785  4.543636363636363 6.972051063829785  L 3.3975709090909083 6.972051063829787  C 2.5963957398129285 6.971374908836454  1.947272212606812 6.319730300918593  1.947272212606812 5.516119664298074  C 1.947272212606812 5.515710981818229  1.9472723841621324 5.5153022993562155  1.9472727272727273 5.514893617021276  L 1.9472727272727273 3.4155574468085104  C 1.9472727272727273 2.611608510638296  2.5972799999999996 1.9596255319148927  3.398792727272727 1.9596255319148927  Z M 14.318181818181822 2.2672340425531923  C 14.318181818181822 1.083370212765958  15.276087272727276 0.1225531914893618  16.456363636363637 0.1225531914893618  L 17.602429090909094 0.1225531914893618  C 19.415594210118172 0.12255319148935365  20.885454772811865 1.596881415467828  20.885454772811865 3.415557446808502  C 20.885454772811865 3.4159659574627486  20.885454697026088 3.416374468097449  20.885454545454547 3.416782978723403  L 20.885454545454543 5.51611914893617  C 20.885454697082523 5.516527735598883  20.885454772896516 5.5169363222933265  20.885454772896516 5.517344908984346  C 20.885454772896516 7.33602094032502  19.415594210202826 8.810349164303494  17.602429318351064 8.810349164303494  C 17.602021969796308 8.810349164303494  17.60161462125381 8.810349088259064  17.601207272727276 8.810348936170211  L 16.45636363636364 8.810348936170207  C 15.275478425816342 8.810348936170207  14.318181818181822 7.85014261240306  14.318181818181822 6.665668085106381  L 14.318181818181822 2.2672340425531923  Z M 17.601207272727276 1.9608510638297836  L 17.602429090909094 1.9608510638297862  L 16.45636363636364 1.9608510638297862  C 16.287665749142604 1.9608510638297862  16.150909090909096 2.0980233957965213  16.150909090909096 2.2672340425531896  L 16.150909090909096 6.665668085106381  C 16.150909090909096 6.834791489361701  16.287752727272732 6.972051063829785  16.45636363636364 6.972051063829785  L 17.602429090909094 6.972051063829785  C 18.402720000000002 6.972051063829785  19.052727272727275 6.320068085106381  19.052727272727275 5.516119148936166  L 19.052727272727275 3.416782978723401  C 19.052727272727275 2.6128340425531866  18.402720000000002 1.9608510638297836  17.601207272727276 1.9608510638297836  Z " fill-rule="nonzero" fill="rgba(0, 82, 217, 1)" stroke="none" transform="matrix(1 0 0 1 1236 41 )" class="fill" />
    <path d="M 4.543636363636363 0.1225531914893618  L 3.3975709090909083 0.1225531914893618  C 1.5844057898818278 0.12255319148935365  0.11454522718813644 1.596881415467828  0.11454522718813644 3.415557446808502  C 0.11454522718813644 3.4159659574601284  0.11454530297390969 3.4163744681000643  0.11454545454545448 3.416782978723403  L 0.11454545454545448 5.51611914893617  C 0.11454530291747525 5.5165277356015014  0.11454522710348293 5.516936322290708  0.11454522710348293 5.517344908984346  C 0.11454522710348293 7.33602094032502  1.5844057897971746 8.810349164303494  3.3975706816489373 8.810349164303494  C 3.3979780302036904 8.810349164303494  3.3983853787461937 8.810349088259064  3.3987927272727267 8.810348936170211  L 4.543636363636363 8.810348936170207  C 5.72452157418366 8.810348936170207  6.681818181818182 7.85014261240306  6.681818181818182 6.665668085106378  L 6.681818181818182 2.2672340425531923  C 6.681818181818182 1.0827595152565106  5.72452157418366 0.12255319148936045  4.543636363636364 0.12255319148936045  Z " stroke-width="0" stroke-dasharray="0" stroke="rgba(255, 255, 255, 0)" fill="none" transform="matrix(1 0 0 1 1236 41 )" class="stroke" mask="url(#Clip168)" />
    <path d="M 3.398792727272727 1.9596255319148927  L 3.3975709090909083 1.9608510638297862  L 4.543636363636364 1.9608510638297862  C 4.7123342508574035 1.9608510638297862  4.849090909090909 2.0980233957965213  4.849090909090909 2.2672340425531896  L 4.849090909090909 6.665668085106381  C 4.849090909090909 6.834878731863049  4.712334250857405 6.972051063829785  4.543636363636363 6.972051063829785  L 3.3975709090909083 6.972051063829787  C 2.5963957398129285 6.971374908836454  1.947272212606812 6.319730300918593  1.947272212606812 5.516119664298074  C 1.947272212606812 5.515710981818229  1.9472723841621324 5.5153022993562155  1.9472727272727273 5.514893617021276  L 1.9472727272727273 3.4155574468085104  C 1.9472727272727273 2.611608510638296  2.5972799999999996 1.9596255319148927  3.398792727272727 1.9596255319148927  Z " stroke-width="0" stroke-dasharray="0" stroke="rgba(255, 255, 255, 0)" fill="none" transform="matrix(1 0 0 1 1236 41 )" class="stroke" mask="url(#Clip168)" />
    <path d="M 14.318181818181822 2.2672340425531923  C 14.318181818181822 1.083370212765958  15.276087272727276 0.1225531914893618  16.456363636363637 0.1225531914893618  L 17.602429090909094 0.1225531914893618  C 19.415594210118172 0.12255319148935365  20.885454772811865 1.596881415467828  20.885454772811865 3.415557446808502  C 20.885454772811865 3.4159659574627486  20.885454697026088 3.416374468097449  20.885454545454547 3.416782978723403  L 20.885454545454543 5.51611914893617  C 20.885454697082523 5.516527735598883  20.885454772896516 5.5169363222933265  20.885454772896516 5.517344908984346  C 20.885454772896516 7.33602094032502  19.415594210202826 8.810349164303494  17.602429318351064 8.810349164303494  C 17.602021969796308 8.810349164303494  17.60161462125381 8.810349088259064  17.601207272727276 8.810348936170211  L 16.45636363636364 8.810348936170207  C 15.275478425816342 8.810348936170207  14.318181818181822 7.85014261240306  14.318181818181822 6.665668085106381  L 14.318181818181822 2.2672340425531923  Z " stroke-width="0" stroke-dasharray="0" stroke="rgba(255, 255, 255, 0)" fill="none" transform="matrix(1 0 0 1 1236 41 )" class="stroke" mask="url(#Clip168)" />
    <path d="M 17.601207272727276 1.9608510638297836  L 17.602429090909094 1.9608510638297862  L 16.45636363636364 1.9608510638297862  C 16.287665749142604 1.9608510638297862  16.150909090909096 2.0980233957965213  16.150909090909096 2.2672340425531896  L 16.150909090909096 6.665668085106381  C 16.150909090909096 6.834791489361701  16.287752727272732 6.972051063829785  16.45636363636364 6.972051063829785  L 17.602429090909094 6.972051063829785  C 18.402720000000002 6.972051063829785  19.052727272727275 6.320068085106381  19.052727272727275 5.516119148936166  L 19.052727272727275 3.416782978723401  C 19.052727272727275 2.6128340425531866  18.402720000000002 1.9608510638297836  17.601207272727276 1.9608510638297836  Z " stroke-width="0" stroke-dasharray="0" stroke="rgba(255, 255, 255, 0)" fill="none" transform="matrix(1 0 0 1 1236 41 )" class="stroke" mask="url(#Clip168)" />
  </g>
</svg>