<?xml version="1.0" encoding="utf-8"?>
<svg version="1.1" xmlns:xlink="http://www.w3.org/1999/xlink" width="18px" height="16px" xmlns="http://www.w3.org/2000/svg">
  <defs>
    <pattern id="BGPattern" patternUnits="userSpaceOnUse" alignment="0 0" imageRepeat="None" />
    <mask fill="white" id="Clip479">
      <path d="M 18 15.384615384615385  C 18 15.040000000000001  17.736 14.76923076923077  17.4 14.76923076923077  L 16.8 14.76923076923077  L 16.8 6.153846153846154  C 16.8 4.800000000000001  15.719999999999999 3.6923076923076925  14.4 3.6923076923076925  L 10.799999999999999 3.6923076923076925  L 10.799999999999999 2.4615384615384617  C 10.799999999999999 1.1076923076923075  9.719999999999999 0  8.4 0  L 3.6 0  C 2.28 0  1.2 1.1076923076923075  1.2 2.4615384615384617  L 1.2 14.76923076923077  L 0.6000000000000001 14.76923076923077  C 0.2640000000000001 14.76923076923077  0 15.040000000000001  0 15.384615384615385  C 0 15.72923076923077  0.2640000000000001 16  0.6000000000000001 16  L 17.4 16  C 17.736 16  18 15.72923076923077  18 15.384615384615385  Z M 9.6 2.4615384615384617  L 9.6 3.6923076923076925  L 9.6 4.923076923076923  L 9.6 14.76923076923077  L 2.4 14.76923076923077  L 2.4 2.4615384615384617  C 2.4 1.784615384615385  2.9400000000000004 1.2307692307692308  3.6 1.2307692307692308  L 8.4 1.2307692307692308  C 9.059999999999999 1.2307692307692308  9.6 1.784615384615385  9.6 2.4615384615384617  Z M 15.600000000000001 6.153846153846154  L 15.600000000000001 14.76923076923077  L 10.799999999999999 14.76923076923077  L 10.799999999999999 4.923076923076923  L 14.4 4.923076923076923  C 15.06 4.923076923076923  15.600000000000001 5.476923076923077  15.600000000000001 6.153846153846154  Z M 8.4 4.3076923076923075  C 8.4 3.963076923076923  8.136000000000001 3.6923076923076925  7.800000000000001 3.6923076923076925  L 4.2 3.6923076923076925  C 3.864 3.6923076923076925  3.6 3.963076923076923  3.6 4.3076923076923075  C 3.6 4.6523076923076925  3.864 4.923076923076923  4.2 4.923076923076923  L 7.800000000000001 4.923076923076923  C 8.136000000000001 4.923076923076923  8.4 4.6523076923076925  8.4 4.3076923076923075  Z M 8.4 8  C 8.4 7.655384615384615  8.136000000000001 7.384615384615385  7.800000000000001 7.384615384615385  L 4.2 7.384615384615385  C 3.864 7.384615384615385  3.6 7.655384615384615  3.6 8  C 3.6 8.344615384615384  3.864 8.615384615384615  4.2 8.615384615384615  L 7.800000000000001 8.615384615384615  C 8.136000000000001 8.615384615384615  8.4 8.344615384615384  8.4 8  Z M 8.4 11.692307692307692  C 8.4 11.34769230769231  8.136000000000001 11.076923076923077  7.800000000000001 11.076923076923077  L 4.2 11.076923076923077  C 3.864 11.076923076923077  3.6 11.34769230769231  3.6 11.692307692307692  C 3.6 12.036923076923076  3.864 12.307692307692308  4.2 12.307692307692308  L 7.800000000000001 12.307692307692308  C 8.136000000000001 12.307692307692308  8.4 12.036923076923076  8.4 11.692307692307692  Z M 14.4 8  C 14.4 7.655384615384615  14.136 7.384615384615385  13.8 7.384615384615385  L 12.6 7.384615384615385  C 12.264 7.384615384615385  12 7.655384615384615  12 8  C 12 8.344615384615384  12.264 8.615384615384615  12.6 8.615384615384615  L 13.8 8.615384615384615  C 14.136 8.615384615384615  14.4 8.344615384615384  14.4 8  Z M 14.4 11.692307692307692  C 14.4 11.34769230769231  14.136 11.076923076923077  13.8 11.076923076923077  L 12.6 11.076923076923077  C 12.264 11.076923076923077  12 11.34769230769231  12 11.692307692307692  C 12 12.036923076923076  12.264 12.307692307692308  12.6 12.307692307692308  L 13.8 12.307692307692308  C 14.136 12.307692307692308  14.4 12.036923076923076  14.4 11.692307692307692  Z " fill-rule="evenodd" />
    </mask>
  </defs>
  <g transform="matrix(1 0 0 1 -42 -58 )">
    <path d="M 18 15.384615384615385  C 18 15.040000000000001  17.736 14.76923076923077  17.4 14.76923076923077  L 16.8 14.76923076923077  L 16.8 6.153846153846154  C 16.8 4.800000000000001  15.719999999999999 3.6923076923076925  14.4 3.6923076923076925  L 10.799999999999999 3.6923076923076925  L 10.799999999999999 2.4615384615384617  C 10.799999999999999 1.1076923076923075  9.719999999999999 0  8.4 0  L 3.6 0  C 2.28 0  1.2 1.1076923076923075  1.2 2.4615384615384617  L 1.2 14.76923076923077  L 0.6000000000000001 14.76923076923077  C 0.2640000000000001 14.76923076923077  0 15.040000000000001  0 15.384615384615385  C 0 15.72923076923077  0.2640000000000001 16  0.6000000000000001 16  L 17.4 16  C 17.736 16  18 15.72923076923077  18 15.384615384615385  Z M 9.6 2.4615384615384617  L 9.6 3.6923076923076925  L 9.6 4.923076923076923  L 9.6 14.76923076923077  L 2.4 14.76923076923077  L 2.4 2.4615384615384617  C 2.4 1.784615384615385  2.9400000000000004 1.2307692307692308  3.6 1.2307692307692308  L 8.4 1.2307692307692308  C 9.059999999999999 1.2307692307692308  9.6 1.784615384615385  9.6 2.4615384615384617  Z M 15.600000000000001 6.153846153846154  L 15.600000000000001 14.76923076923077  L 10.799999999999999 14.76923076923077  L 10.799999999999999 4.923076923076923  L 14.4 4.923076923076923  C 15.06 4.923076923076923  15.600000000000001 5.476923076923077  15.600000000000001 6.153846153846154  Z M 8.4 4.3076923076923075  C 8.4 3.963076923076923  8.136000000000001 3.6923076923076925  7.800000000000001 3.6923076923076925  L 4.2 3.6923076923076925  C 3.864 3.6923076923076925  3.6 3.963076923076923  3.6 4.3076923076923075  C 3.6 4.6523076923076925  3.864 4.923076923076923  4.2 4.923076923076923  L 7.800000000000001 4.923076923076923  C 8.136000000000001 4.923076923076923  8.4 4.6523076923076925  8.4 4.3076923076923075  Z M 8.4 8  C 8.4 7.655384615384615  8.136000000000001 7.384615384615385  7.800000000000001 7.384615384615385  L 4.2 7.384615384615385  C 3.864 7.384615384615385  3.6 7.655384615384615  3.6 8  C 3.6 8.344615384615384  3.864 8.615384615384615  4.2 8.615384615384615  L 7.800000000000001 8.615384615384615  C 8.136000000000001 8.615384615384615  8.4 8.344615384615384  8.4 8  Z M 8.4 11.692307692307692  C 8.4 11.34769230769231  8.136000000000001 11.076923076923077  7.800000000000001 11.076923076923077  L 4.2 11.076923076923077  C 3.864 11.076923076923077  3.6 11.34769230769231  3.6 11.692307692307692  C 3.6 12.036923076923076  3.864 12.307692307692308  4.2 12.307692307692308  L 7.800000000000001 12.307692307692308  C 8.136000000000001 12.307692307692308  8.4 12.036923076923076  8.4 11.692307692307692  Z M 14.4 8  C 14.4 7.655384615384615  14.136 7.384615384615385  13.8 7.384615384615385  L 12.6 7.384615384615385  C 12.264 7.384615384615385  12 7.655384615384615  12 8  C 12 8.344615384615384  12.264 8.615384615384615  12.6 8.615384615384615  L 13.8 8.615384615384615  C 14.136 8.615384615384615  14.4 8.344615384615384  14.4 8  Z M 14.4 11.692307692307692  C 14.4 11.34769230769231  14.136 11.076923076923077  13.8 11.076923076923077  L 12.6 11.076923076923077  C 12.264 11.076923076923077  12 11.34769230769231  12 11.692307692307692  C 12 12.036923076923076  12.264 12.307692307692308  12.6 12.307692307692308  L 13.8 12.307692307692308  C 14.136 12.307692307692308  14.4 12.036923076923076  14.4 11.692307692307692  Z " fill-rule="nonzero" fill="rgba(85, 85, 85, 1)" stroke="none" transform="matrix(1 0 0 1 42 58 )" class="fill" />
    <path d="M 18 15.384615384615385  C 18 15.040000000000001  17.736 14.76923076923077  17.4 14.76923076923077  L 16.8 14.76923076923077  L 16.8 6.153846153846154  C 16.8 4.800000000000001  15.719999999999999 3.6923076923076925  14.4 3.6923076923076925  L 10.799999999999999 3.6923076923076925  L 10.799999999999999 2.4615384615384617  C 10.799999999999999 1.1076923076923075  9.719999999999999 0  8.4 0  L 3.6 0  C 2.28 0  1.2 1.1076923076923075  1.2 2.4615384615384617  L 1.2 14.76923076923077  L 0.6000000000000001 14.76923076923077  C 0.2640000000000001 14.76923076923077  0 15.040000000000001  0 15.384615384615385  C 0 15.72923076923077  0.2640000000000001 16  0.6000000000000001 16  L 17.4 16  C 17.736 16  18 15.72923076923077  18 15.384615384615385  Z " stroke-width="0" stroke-dasharray="0" stroke="rgba(255, 255, 255, 0)" fill="none" transform="matrix(1 0 0 1 42 58 )" class="stroke" mask="url(#Clip479)" />
    <path d="M 9.6 2.4615384615384617  L 9.6 3.6923076923076925  L 9.6 4.923076923076923  L 9.6 14.76923076923077  L 2.4 14.76923076923077  L 2.4 2.4615384615384617  C 2.4 1.784615384615385  2.9400000000000004 1.2307692307692308  3.6 1.2307692307692308  L 8.4 1.2307692307692308  C 9.059999999999999 1.2307692307692308  9.6 1.784615384615385  9.6 2.4615384615384617  Z " stroke-width="0" stroke-dasharray="0" stroke="rgba(255, 255, 255, 0)" fill="none" transform="matrix(1 0 0 1 42 58 )" class="stroke" mask="url(#Clip479)" />
    <path d="M 15.600000000000001 6.153846153846154  L 15.600000000000001 14.76923076923077  L 10.799999999999999 14.76923076923077  L 10.799999999999999 4.923076923076923  L 14.4 4.923076923076923  C 15.06 4.923076923076923  15.600000000000001 5.476923076923077  15.600000000000001 6.153846153846154  Z " stroke-width="0" stroke-dasharray="0" stroke="rgba(255, 255, 255, 0)" fill="none" transform="matrix(1 0 0 1 42 58 )" class="stroke" mask="url(#Clip479)" />
    <path d="M 8.4 4.3076923076923075  C 8.4 3.963076923076923  8.136000000000001 3.6923076923076925  7.800000000000001 3.6923076923076925  L 4.2 3.6923076923076925  C 3.864 3.6923076923076925  3.6 3.963076923076923  3.6 4.3076923076923075  C 3.6 4.6523076923076925  3.864 4.923076923076923  4.2 4.923076923076923  L 7.800000000000001 4.923076923076923  C 8.136000000000001 4.923076923076923  8.4 4.6523076923076925  8.4 4.3076923076923075  Z " stroke-width="0" stroke-dasharray="0" stroke="rgba(255, 255, 255, 0)" fill="none" transform="matrix(1 0 0 1 42 58 )" class="stroke" mask="url(#Clip479)" />
    <path d="M 8.4 8  C 8.4 7.655384615384615  8.136000000000001 7.384615384615385  7.800000000000001 7.384615384615385  L 4.2 7.384615384615385  C 3.864 7.384615384615385  3.6 7.655384615384615  3.6 8  C 3.6 8.344615384615384  3.864 8.615384615384615  4.2 8.615384615384615  L 7.800000000000001 8.615384615384615  C 8.136000000000001 8.615384615384615  8.4 8.344615384615384  8.4 8  Z " stroke-width="0" stroke-dasharray="0" stroke="rgba(255, 255, 255, 0)" fill="none" transform="matrix(1 0 0 1 42 58 )" class="stroke" mask="url(#Clip479)" />
    <path d="M 8.4 11.692307692307692  C 8.4 11.34769230769231  8.136000000000001 11.076923076923077  7.800000000000001 11.076923076923077  L 4.2 11.076923076923077  C 3.864 11.076923076923077  3.6 11.34769230769231  3.6 11.692307692307692  C 3.6 12.036923076923076  3.864 12.307692307692308  4.2 12.307692307692308  L 7.800000000000001 12.307692307692308  C 8.136000000000001 12.307692307692308  8.4 12.036923076923076  8.4 11.692307692307692  Z " stroke-width="0" stroke-dasharray="0" stroke="rgba(255, 255, 255, 0)" fill="none" transform="matrix(1 0 0 1 42 58 )" class="stroke" mask="url(#Clip479)" />
    <path d="M 14.4 8  C 14.4 7.655384615384615  14.136 7.384615384615385  13.8 7.384615384615385  L 12.6 7.384615384615385  C 12.264 7.384615384615385  12 7.655384615384615  12 8  C 12 8.344615384615384  12.264 8.615384615384615  12.6 8.615384615384615  L 13.8 8.615384615384615  C 14.136 8.615384615384615  14.4 8.344615384615384  14.4 8  Z " stroke-width="0" stroke-dasharray="0" stroke="rgba(255, 255, 255, 0)" fill="none" transform="matrix(1 0 0 1 42 58 )" class="stroke" mask="url(#Clip479)" />
    <path d="M 14.4 11.692307692307692  C 14.4 11.34769230769231  14.136 11.076923076923077  13.8 11.076923076923077  L 12.6 11.076923076923077  C 12.264 11.076923076923077  12 11.34769230769231  12 11.692307692307692  C 12 12.036923076923076  12.264 12.307692307692308  12.6 12.307692307692308  L 13.8 12.307692307692308  C 14.136 12.307692307692308  14.4 12.036923076923076  14.4 11.692307692307692  Z " stroke-width="0" stroke-dasharray="0" stroke="rgba(255, 255, 255, 0)" fill="none" transform="matrix(1 0 0 1 42 58 )" class="stroke" mask="url(#Clip479)" />
  </g>
</svg>