<?xml version="1.0" encoding="utf-8"?>
<svg version="1.1" xmlns:xlink="http://www.w3.org/1999/xlink" width="18px" height="20px" xmlns="http://www.w3.org/2000/svg">
  <defs>
    <pattern id="BGPattern" patternUnits="userSpaceOnUse" alignment="0 0" imageRepeat="None" />
    <mask fill="white" id="Clip25">
      <path d="M 17.34622373394495 19.903370342741937  C 17.729715405963304 19.879897822580645  18.011944176605503 19.548704294354838  17.95761460321101 19.18444050403226  C 17.668597252293576 17.24653673387097  16.70470325917431 15.463322278225808  15.199420314220182 14.10609181451613  C 14.35017781651376 13.340380705645163  13.369375238532108 12.747981391129034  12.308974493119266 12.348396290322583  C 12.907353963302752 12.043622116935486  13.461251490825687 11.648293588709679  13.952103254587156 11.168877439516132  C 15.215972697247706 9.934432520161291  15.912032243119267 8.29317860887097  15.912032243119267 6.547413750000002  C 15.912032243119267 4.801648891129034  15.215972717889908 3.160395000000002  13.952103254587156 1.9259500604838724  C 12.688212860091744 0.6915256249999999  11.00778884174312 0.011682540322580611  9.220402837155962 0.011682540322580611  C 7.433016832568806 0.011682540322580611  5.7525928142201845 0.6915256249999999  4.488702399082569 1.9259705443548385  C 3.2248329564220186 3.160395  2.5287734105504587 4.801669375  2.5287734105504587 6.547434233870968  C 2.5287734105504587 8.293199092741936  3.224832935779816 9.934452983870969  4.488702399082569 11.168897923387098  C 4.928136997706423 11.59807433467742  5.418004004587155 11.960046108870968  5.945124364678899 12.249881391129032  C 4.779291178899083 12.647686088709678  3.70212851146789 13.274956491935484  2.780013591743119 14.10648066532258  C 1.2746258876146785 15.463956713709678  0.31083663302752257 17.247437197580645  0.02207072477064189 19.185586532258064  C -0.032195972477064405 19.549850302419355  0.2500537499999997 19.881002923387097  0.6335663944954127 19.904414032258067  L 0.6759111880733945 19.90699252016129  C 1.0206619059633029 19.928029778225806  1.3222087844036698 19.690644395161293  1.3713630894495412 19.363257197580644  C 1.618035646788991 17.719915947580645  2.436457169724771 16.207586875  3.713757089449541 15.055776612903227  C 5.063782788990825 13.838357943548388  6.805157325688072 13.136515786290325  8.649135763761468 13.05934506048387  C 8.838105419724771 13.074856975806453  9.02858364908257 13.083165463709678  9.220402837155962 13.083165463709678  C 9.34075339678899 13.083165463709678  9.460559188073393 13.079829798387099  9.579841183486236 13.073710967741937  C 11.33097954357798 13.201060040322583  12.976748298165136 13.89324308467742  14.26576062385321 15.055469637096778  C 15.542997708715594 16.207075241935488  16.361503038990822 17.719158750000002  16.608385114678896 19.36229536290323  C 16.657581344036693 19.689682560483874  16.959149174311925 19.927027016129035  17.303899892201834 19.905948830645166  L 17.34622373394495 19.903370342741937  Z M 5.451737366972478 10.22829925403226  C 4.44507952293578 9.245094012096773  3.890679130733945 7.9378577217741935  3.890679130733945 6.547413770161291  C 3.890679130733945 5.1569698185483865  4.445058571100917 3.849733528225807  5.451716415137614 2.8665282862903227  C 6.458374259174311 1.8833435080645167  7.7967713807339445 1.3418592540322585  9.220402837155962 1.3418592540322585  C 10.644034293577981 1.3418592540322585  11.982431415137613 1.8833230443548392  12.989089259174312 2.8665282862903227  C 13.995747103211007 3.8497335282258067  14.550126543577981 5.1569698185483865  14.550126543577981 6.547413770161291  C 14.550126543577981 7.937857721774194  13.99574710321101 9.245094012096773  12.989089259174314 10.22829925403226  C 11.995400951834862 11.198816653225807  10.678396231651377 11.738561431451613  9.275340013761468 11.752313427419356  C 9.180635181192661 11.749489354838708  9.085741782110091 11.747934072580646  8.9906388646789 11.747934072580646  C 7.653268403669725 11.692885221774194  6.404023733944954 11.158399758064517  5.451737366972478 10.22829925403226  Z " fill-rule="evenodd" />
    </mask>
  </defs>
  <g transform="matrix(1 0 0 1 -1376 -32 )">
    <path d="M 17.34622373394495 19.903370342741937  C 17.729715405963304 19.879897822580645  18.011944176605503 19.548704294354838  17.95761460321101 19.18444050403226  C 17.668597252293576 17.24653673387097  16.70470325917431 15.463322278225808  15.199420314220182 14.10609181451613  C 14.35017781651376 13.340380705645163  13.369375238532108 12.747981391129034  12.308974493119266 12.348396290322583  C 12.907353963302752 12.043622116935486  13.461251490825687 11.648293588709679  13.952103254587156 11.168877439516132  C 15.215972697247706 9.934432520161291  15.912032243119267 8.29317860887097  15.912032243119267 6.547413750000002  C 15.912032243119267 4.801648891129034  15.215972717889908 3.160395000000002  13.952103254587156 1.9259500604838724  C 12.688212860091744 0.6915256249999999  11.00778884174312 0.011682540322580611  9.220402837155962 0.011682540322580611  C 7.433016832568806 0.011682540322580611  5.7525928142201845 0.6915256249999999  4.488702399082569 1.9259705443548385  C 3.2248329564220186 3.160395  2.5287734105504587 4.801669375  2.5287734105504587 6.547434233870968  C 2.5287734105504587 8.293199092741936  3.224832935779816 9.934452983870969  4.488702399082569 11.168897923387098  C 4.928136997706423 11.59807433467742  5.418004004587155 11.960046108870968  5.945124364678899 12.249881391129032  C 4.779291178899083 12.647686088709678  3.70212851146789 13.274956491935484  2.780013591743119 14.10648066532258  C 1.2746258876146785 15.463956713709678  0.31083663302752257 17.247437197580645  0.02207072477064189 19.185586532258064  C -0.032195972477064405 19.549850302419355  0.2500537499999997 19.881002923387097  0.6335663944954127 19.904414032258067  L 0.6759111880733945 19.90699252016129  C 1.0206619059633029 19.928029778225806  1.3222087844036698 19.690644395161293  1.3713630894495412 19.363257197580644  C 1.618035646788991 17.719915947580645  2.436457169724771 16.207586875  3.713757089449541 15.055776612903227  C 5.063782788990825 13.838357943548388  6.805157325688072 13.136515786290325  8.649135763761468 13.05934506048387  C 8.838105419724771 13.074856975806453  9.02858364908257 13.083165463709678  9.220402837155962 13.083165463709678  C 9.34075339678899 13.083165463709678  9.460559188073393 13.079829798387099  9.579841183486236 13.073710967741937  C 11.33097954357798 13.201060040322583  12.976748298165136 13.89324308467742  14.26576062385321 15.055469637096778  C 15.542997708715594 16.207075241935488  16.361503038990822 17.719158750000002  16.608385114678896 19.36229536290323  C 16.657581344036693 19.689682560483874  16.959149174311925 19.927027016129035  17.303899892201834 19.905948830645166  L 17.34622373394495 19.903370342741937  Z M 5.451737366972478 10.22829925403226  C 4.44507952293578 9.245094012096773  3.890679130733945 7.9378577217741935  3.890679130733945 6.547413770161291  C 3.890679130733945 5.1569698185483865  4.445058571100917 3.849733528225807  5.451716415137614 2.8665282862903227  C 6.458374259174311 1.8833435080645167  7.7967713807339445 1.3418592540322585  9.220402837155962 1.3418592540322585  C 10.644034293577981 1.3418592540322585  11.982431415137613 1.8833230443548392  12.989089259174312 2.8665282862903227  C 13.995747103211007 3.8497335282258067  14.550126543577981 5.1569698185483865  14.550126543577981 6.547413770161291  C 14.550126543577981 7.937857721774194  13.99574710321101 9.245094012096773  12.989089259174314 10.22829925403226  C 11.995400951834862 11.198816653225807  10.678396231651377 11.738561431451613  9.275340013761468 11.752313427419356  C 9.180635181192661 11.749489354838708  9.085741782110091 11.747934072580646  8.9906388646789 11.747934072580646  C 7.653268403669725 11.692885221774194  6.404023733944954 11.158399758064517  5.451737366972478 10.22829925403226  Z " fill-rule="nonzero" fill="rgba(0, 82, 217, 1)" stroke="none" transform="matrix(1 0 0 1 1376 32 )" class="fill" />
    <path d="M 17.34622373394495 19.903370342741937  C 17.729715405963304 19.879897822580645  18.011944176605503 19.548704294354838  17.95761460321101 19.18444050403226  C 17.668597252293576 17.24653673387097  16.70470325917431 15.463322278225808  15.199420314220182 14.10609181451613  C 14.35017781651376 13.340380705645163  13.369375238532108 12.747981391129034  12.308974493119266 12.348396290322583  C 12.907353963302752 12.043622116935486  13.461251490825687 11.648293588709679  13.952103254587156 11.168877439516132  C 15.215972697247706 9.934432520161291  15.912032243119267 8.29317860887097  15.912032243119267 6.547413750000002  C 15.912032243119267 4.801648891129034  15.215972717889908 3.160395000000002  13.952103254587156 1.9259500604838724  C 12.688212860091744 0.6915256249999999  11.00778884174312 0.011682540322580611  9.220402837155962 0.011682540322580611  C 7.433016832568806 0.011682540322580611  5.7525928142201845 0.6915256249999999  4.488702399082569 1.9259705443548385  C 3.2248329564220186 3.160395  2.5287734105504587 4.801669375  2.5287734105504587 6.547434233870968  C 2.5287734105504587 8.293199092741936  3.224832935779816 9.934452983870969  4.488702399082569 11.168897923387098  C 4.928136997706423 11.59807433467742  5.418004004587155 11.960046108870968  5.945124364678899 12.249881391129032  C 4.779291178899083 12.647686088709678  3.70212851146789 13.274956491935484  2.780013591743119 14.10648066532258  C 1.2746258876146785 15.463956713709678  0.31083663302752257 17.247437197580645  0.02207072477064189 19.185586532258064  C -0.032195972477064405 19.549850302419355  0.2500537499999997 19.881002923387097  0.6335663944954127 19.904414032258067  L 0.6759111880733945 19.90699252016129  C 1.0206619059633029 19.928029778225806  1.3222087844036698 19.690644395161293  1.3713630894495412 19.363257197580644  C 1.618035646788991 17.719915947580645  2.436457169724771 16.207586875  3.713757089449541 15.055776612903227  C 5.063782788990825 13.838357943548388  6.805157325688072 13.136515786290325  8.649135763761468 13.05934506048387  C 8.838105419724771 13.074856975806453  9.02858364908257 13.083165463709678  9.220402837155962 13.083165463709678  C 9.34075339678899 13.083165463709678  9.460559188073393 13.079829798387099  9.579841183486236 13.073710967741937  C 11.33097954357798 13.201060040322583  12.976748298165136 13.89324308467742  14.26576062385321 15.055469637096778  C 15.542997708715594 16.207075241935488  16.361503038990822 17.719158750000002  16.608385114678896 19.36229536290323  C 16.657581344036693 19.689682560483874  16.959149174311925 19.927027016129035  17.303899892201834 19.905948830645166  L 17.34622373394495 19.903370342741937  Z " stroke-width="0" stroke-dasharray="0" stroke="rgba(255, 255, 255, 0)" fill="none" transform="matrix(1 0 0 1 1376 32 )" class="stroke" mask="url(#Clip25)" />
    <path d="M 5.451737366972478 10.22829925403226  C 4.44507952293578 9.245094012096773  3.890679130733945 7.9378577217741935  3.890679130733945 6.547413770161291  C 3.890679130733945 5.1569698185483865  4.445058571100917 3.849733528225807  5.451716415137614 2.8665282862903227  C 6.458374259174311 1.8833435080645167  7.7967713807339445 1.3418592540322585  9.220402837155962 1.3418592540322585  C 10.644034293577981 1.3418592540322585  11.982431415137613 1.8833230443548392  12.989089259174312 2.8665282862903227  C 13.995747103211007 3.8497335282258067  14.550126543577981 5.1569698185483865  14.550126543577981 6.547413770161291  C 14.550126543577981 7.937857721774194  13.99574710321101 9.245094012096773  12.989089259174314 10.22829925403226  C 11.995400951834862 11.198816653225807  10.678396231651377 11.738561431451613  9.275340013761468 11.752313427419356  C 9.180635181192661 11.749489354838708  9.085741782110091 11.747934072580646  8.9906388646789 11.747934072580646  C 7.653268403669725 11.692885221774194  6.404023733944954 11.158399758064517  5.451737366972478 10.22829925403226  Z " stroke-width="0" stroke-dasharray="0" stroke="rgba(255, 255, 255, 0)" fill="none" transform="matrix(1 0 0 1 1376 32 )" class="stroke" mask="url(#Clip25)" />
  </g>
</svg>