<?xml version="1.0" encoding="utf-8"?>
<svg version="1.1" xmlns:xlink="http://www.w3.org/1999/xlink" width="22px" height="20px" xmlns="http://www.w3.org/2000/svg">
  <defs>
    <pattern id="BGPattern" patternUnits="userSpaceOnUse" alignment="0 0" imageRepeat="None" />
    <mask fill="white" id="Clip372">
      <path d="M 22 17.48538011695906  C 22 18.863400545386774  20.905584944030828 19.980506822612085  19.555555555555554 20  L 2.444444444444444 20  C 1.0944150559691714 19.980506822612085  0 18.863400545386774  0 17.48538011695906  L 0 5.009746588693957  C 0 3.6317261602662465  1.0944150559691714 2.514619883040936  2.444444444444444 2.514619883040936  L 3.6666666666666665 2.514619883040936  L 3.6666666666666665 5.009746588693957  L 2.444444444444444 5.009746588693957  L 2.444444444444444 17.48538011695906  L 19.555555555555554 17.48538011695906  L 19.555555555555554 5.009746588693957  L 18.333333333333332 5.009746588693957  L 18.333333333333332 2.514619883040936  L 19.555555555555554 2.514619883040936  C 20.905584944030828 2.514619883040936  22 3.6317261602662465  22 5.009746588693957  L 22 17.48538011695906  Z M 17.111111111111107 5.009746588693957  C 17.111111111111107 5.698756802907813  16.563903583126525 6.257309941520469  15.88888888888889 6.257309941520469  C 15.213874194651252 6.257309941520469  14.666666666666666 5.698756802907813  14.666666666666666 5.009746588693957  L 14.666666666666666 1.2670565302144254  C 14.666666666666666 0.5780463160005701  15.213874194651252 0.019493177387914784  15.88888888888889 0.019493177387914784  C 16.563903583126525 0.019493177387914784  17.111111111111107 0.5780463160005701  17.111111111111107 1.2670565302144254  L 17.111111111111107 5.009746588693957  Z M 15.88888888888889 11.24756335282651  L 15.88888888888889 14.990253411306043  C 15.88888888888889 15.6792636255199  15.341681360904303 16.237816764132553  14.666666666666666 16.237816764132553  C 13.991651972429029 16.237816764132553  13.444444444444443 15.6792636255199  13.444444444444443 14.990253411306043  L 13.444444444444443 11.24756335282651  C 13.444444444444443 10.558553138612655  13.991651972429029 10  14.666666666666666 10  C 15.341681360904303 10  15.88888888888889 10.558553138612655  15.88888888888889 11.24756335282651  Z M 12.222222222222223 7.504873294346979  L 12.222222222222223 14.990253411306043  C 12.222222222222223 15.6792636255199  11.675014694237637 16.237816764132553  11 16.237816764132553  C 10.324985305762363 16.237816764132553  9.777777777777777 15.6792636255199  9.777777777777777 14.990253411306043  L 9.777777777777777 7.504873294346979  C 9.777777777777777 6.8158630801331235  10.324985305762363 6.257309941520469  11 6.257309941520469  C 11.675014694237637 6.257309941520469  12.222222222222223 6.8158630801331235  12.222222222222223 7.504873294346979  Z M 8.555555555555554 5.009746588693957  L 8.555555555555554 2.514619883040936  L 13.444444444444443 2.514619883040936  L 13.444444444444443 5.009746588693957  L 8.555555555555554 5.009746588693957  Z M 8.555555555555554 12.495126705653023  L 8.555555555555554 14.990253411306043  C 8.555555555555554 15.6792636255199  8.00834802757097 16.237816764132553  7.333333333333333 16.237816764132553  C 6.658318639095696 16.237816764132553  6.111111111111112 15.6792636255199  6.111111111111112 14.990253411306043  L 6.111111111111112 12.495126705653023  C 6.111111111111112 11.806116491439166  6.658318639095696 11.24756335282651  7.333333333333333 11.24756335282651  C 8.00834802757097 11.24756335282651  8.555555555555554 11.806116491439166  8.555555555555554 12.495126705653023  Z M 7.333333333333333 5.009746588693957  C 7.333333333333333 5.698756802907813  6.786125805348747 6.257309941520469  6.111111111111112 6.257309941520469  C 5.4360964168734744 6.257309941520469  4.888888888888888 5.698756802907813  4.888888888888888 5.009746588693957  L 4.888888888888888 1.2670565302144254  C 4.888888888888888 0.5780463160005701  5.4360964168734744 0.019493177387914784  6.111111111111112 0.019493177387914784  C 6.786125805348747 0.019493177387914784  7.333333333333333 0.5780463160005701  7.333333333333333 1.2670565302144254  L 7.333333333333333 5.009746588693957  Z " fill-rule="evenodd" />
    </mask>
  </defs>
  <g transform="matrix(1 0 0 1 -1524 -31 )">
    <path d="M 22 17.48538011695906  C 22 18.863400545386774  20.905584944030828 19.980506822612085  19.555555555555554 20  L 2.444444444444444 20  C 1.0944150559691714 19.980506822612085  0 18.863400545386774  0 17.48538011695906  L 0 5.009746588693957  C 0 3.6317261602662465  1.0944150559691714 2.514619883040936  2.444444444444444 2.514619883040936  L 3.6666666666666665 2.514619883040936  L 3.6666666666666665 5.009746588693957  L 2.444444444444444 5.009746588693957  L 2.444444444444444 17.48538011695906  L 19.555555555555554 17.48538011695906  L 19.555555555555554 5.009746588693957  L 18.333333333333332 5.009746588693957  L 18.333333333333332 2.514619883040936  L 19.555555555555554 2.514619883040936  C 20.905584944030828 2.514619883040936  22 3.6317261602662465  22 5.009746588693957  L 22 17.48538011695906  Z M 17.111111111111107 5.009746588693957  C 17.111111111111107 5.698756802907813  16.563903583126525 6.257309941520469  15.88888888888889 6.257309941520469  C 15.213874194651252 6.257309941520469  14.666666666666666 5.698756802907813  14.666666666666666 5.009746588693957  L 14.666666666666666 1.2670565302144254  C 14.666666666666666 0.5780463160005701  15.213874194651252 0.019493177387914784  15.88888888888889 0.019493177387914784  C 16.563903583126525 0.019493177387914784  17.111111111111107 0.5780463160005701  17.111111111111107 1.2670565302144254  L 17.111111111111107 5.009746588693957  Z M 15.88888888888889 11.24756335282651  L 15.88888888888889 14.990253411306043  C 15.88888888888889 15.6792636255199  15.341681360904303 16.237816764132553  14.666666666666666 16.237816764132553  C 13.991651972429029 16.237816764132553  13.444444444444443 15.6792636255199  13.444444444444443 14.990253411306043  L 13.444444444444443 11.24756335282651  C 13.444444444444443 10.558553138612655  13.991651972429029 10  14.666666666666666 10  C 15.341681360904303 10  15.88888888888889 10.558553138612655  15.88888888888889 11.24756335282651  Z M 12.222222222222223 7.504873294346979  L 12.222222222222223 14.990253411306043  C 12.222222222222223 15.6792636255199  11.675014694237637 16.237816764132553  11 16.237816764132553  C 10.324985305762363 16.237816764132553  9.777777777777777 15.6792636255199  9.777777777777777 14.990253411306043  L 9.777777777777777 7.504873294346979  C 9.777777777777777 6.8158630801331235  10.324985305762363 6.257309941520469  11 6.257309941520469  C 11.675014694237637 6.257309941520469  12.222222222222223 6.8158630801331235  12.222222222222223 7.504873294346979  Z M 8.555555555555554 5.009746588693957  L 8.555555555555554 2.514619883040936  L 13.444444444444443 2.514619883040936  L 13.444444444444443 5.009746588693957  L 8.555555555555554 5.009746588693957  Z M 8.555555555555554 12.495126705653023  L 8.555555555555554 14.990253411306043  C 8.555555555555554 15.6792636255199  8.00834802757097 16.237816764132553  7.333333333333333 16.237816764132553  C 6.658318639095696 16.237816764132553  6.111111111111112 15.6792636255199  6.111111111111112 14.990253411306043  L 6.111111111111112 12.495126705653023  C 6.111111111111112 11.806116491439166  6.658318639095696 11.24756335282651  7.333333333333333 11.24756335282651  C 8.00834802757097 11.24756335282651  8.555555555555554 11.806116491439166  8.555555555555554 12.495126705653023  Z M 7.333333333333333 5.009746588693957  C 7.333333333333333 5.698756802907813  6.786125805348747 6.257309941520469  6.111111111111112 6.257309941520469  C 5.4360964168734744 6.257309941520469  4.888888888888888 5.698756802907813  4.888888888888888 5.009746588693957  L 4.888888888888888 1.2670565302144254  C 4.888888888888888 0.5780463160005701  5.4360964168734744 0.019493177387914784  6.111111111111112 0.019493177387914784  C 6.786125805348747 0.019493177387914784  7.333333333333333 0.5780463160005701  7.333333333333333 1.2670565302144254  L 7.333333333333333 5.009746588693957  Z " fill-rule="nonzero" fill="rgba(0, 82, 217, 1)" stroke="none" transform="matrix(1 0 0 1 1524 31 )" class="fill" />
    <path d="M 22 17.48538011695906  C 22 18.863400545386774  20.905584944030828 19.980506822612085  19.555555555555554 20  L 2.444444444444444 20  C 1.0944150559691714 19.980506822612085  0 18.863400545386774  0 17.48538011695906  L 0 5.009746588693957  C 0 3.6317261602662465  1.0944150559691714 2.514619883040936  2.444444444444444 2.514619883040936  L 3.6666666666666665 2.514619883040936  L 3.6666666666666665 5.009746588693957  L 2.444444444444444 5.009746588693957  L 2.444444444444444 17.48538011695906  L 19.555555555555554 17.48538011695906  L 19.555555555555554 5.009746588693957  L 18.333333333333332 5.009746588693957  L 18.333333333333332 2.514619883040936  L 19.555555555555554 2.514619883040936  C 20.905584944030828 2.514619883040936  22 3.6317261602662465  22 5.009746588693957  L 22 17.48538011695906  Z " stroke-width="0" stroke-dasharray="0" stroke="rgba(255, 255, 255, 0)" fill="none" transform="matrix(1 0 0 1 1524 31 )" class="stroke" mask="url(#Clip372)" />
    <path d="M 17.111111111111107 5.009746588693957  C 17.111111111111107 5.698756802907813  16.563903583126525 6.257309941520469  15.88888888888889 6.257309941520469  C 15.213874194651252 6.257309941520469  14.666666666666666 5.698756802907813  14.666666666666666 5.009746588693957  L 14.666666666666666 1.2670565302144254  C 14.666666666666666 0.5780463160005701  15.213874194651252 0.019493177387914784  15.88888888888889 0.019493177387914784  C 16.563903583126525 0.019493177387914784  17.111111111111107 0.5780463160005701  17.111111111111107 1.2670565302144254  L 17.111111111111107 5.009746588693957  Z " stroke-width="0" stroke-dasharray="0" stroke="rgba(255, 255, 255, 0)" fill="none" transform="matrix(1 0 0 1 1524 31 )" class="stroke" mask="url(#Clip372)" />
    <path d="M 15.88888888888889 11.24756335282651  L 15.88888888888889 14.990253411306043  C 15.88888888888889 15.6792636255199  15.341681360904303 16.237816764132553  14.666666666666666 16.237816764132553  C 13.991651972429029 16.237816764132553  13.444444444444443 15.6792636255199  13.444444444444443 14.990253411306043  L 13.444444444444443 11.24756335282651  C 13.444444444444443 10.558553138612655  13.991651972429029 10  14.666666666666666 10  C 15.341681360904303 10  15.88888888888889 10.558553138612655  15.88888888888889 11.24756335282651  Z " stroke-width="0" stroke-dasharray="0" stroke="rgba(255, 255, 255, 0)" fill="none" transform="matrix(1 0 0 1 1524 31 )" class="stroke" mask="url(#Clip372)" />
    <path d="M 12.222222222222223 7.504873294346979  L 12.222222222222223 14.990253411306043  C 12.222222222222223 15.6792636255199  11.675014694237637 16.237816764132553  11 16.237816764132553  C 10.324985305762363 16.237816764132553  9.777777777777777 15.6792636255199  9.777777777777777 14.990253411306043  L 9.777777777777777 7.504873294346979  C 9.777777777777777 6.8158630801331235  10.324985305762363 6.257309941520469  11 6.257309941520469  C 11.675014694237637 6.257309941520469  12.222222222222223 6.8158630801331235  12.222222222222223 7.504873294346979  Z " stroke-width="0" stroke-dasharray="0" stroke="rgba(255, 255, 255, 0)" fill="none" transform="matrix(1 0 0 1 1524 31 )" class="stroke" mask="url(#Clip372)" />
    <path d="M 8.555555555555554 5.009746588693957  L 8.555555555555554 2.514619883040936  L 13.444444444444443 2.514619883040936  L 13.444444444444443 5.009746588693957  L 8.555555555555554 5.009746588693957  Z " stroke-width="0" stroke-dasharray="0" stroke="rgba(255, 255, 255, 0)" fill="none" transform="matrix(1 0 0 1 1524 31 )" class="stroke" mask="url(#Clip372)" />
    <path d="M 8.555555555555554 12.495126705653023  L 8.555555555555554 14.990253411306043  C 8.555555555555554 15.6792636255199  8.00834802757097 16.237816764132553  7.333333333333333 16.237816764132553  C 6.658318639095696 16.237816764132553  6.111111111111112 15.6792636255199  6.111111111111112 14.990253411306043  L 6.111111111111112 12.495126705653023  C 6.111111111111112 11.806116491439166  6.658318639095696 11.24756335282651  7.333333333333333 11.24756335282651  C 8.00834802757097 11.24756335282651  8.555555555555554 11.806116491439166  8.555555555555554 12.495126705653023  Z " stroke-width="0" stroke-dasharray="0" stroke="rgba(255, 255, 255, 0)" fill="none" transform="matrix(1 0 0 1 1524 31 )" class="stroke" mask="url(#Clip372)" />
    <path d="M 7.333333333333333 5.009746588693957  C 7.333333333333333 5.698756802907813  6.786125805348747 6.257309941520469  6.111111111111112 6.257309941520469  C 5.4360964168734744 6.257309941520469  4.888888888888888 5.698756802907813  4.888888888888888 5.009746588693957  L 4.888888888888888 1.2670565302144254  C 4.888888888888888 0.5780463160005701  5.4360964168734744 0.019493177387914784  6.111111111111112 0.019493177387914784  C 6.786125805348747 0.019493177387914784  7.333333333333333 0.5780463160005701  7.333333333333333 1.2670565302144254  L 7.333333333333333 5.009746588693957  Z " stroke-width="0" stroke-dasharray="0" stroke="rgba(255, 255, 255, 0)" fill="none" transform="matrix(1 0 0 1 1524 31 )" class="stroke" mask="url(#Clip372)" />
  </g>
</svg>