<?xml version="1.0" encoding="utf-8"?>
<svg version="1.1" xmlns:xlink="http://www.w3.org/1999/xlink" width="6px" height="11px" xmlns="http://www.w3.org/2000/svg">
  <defs>
    <pattern id="BGPattern" patternUnits="userSpaceOnUse" alignment="0 0" imageRepeat="None" />
    <mask fill="white" id="Clip506">
      <path d="M 1.5483870967741935 5.996571428571428  L 1.5483870967741935 0  L 0 0  L 0 6.285714285714286  C 0 6.47847619047619  0.08670967741935492 6.653079365079365  0.22683870967741876 6.780190476190475  L 4.872 10.969968253968252  L 5.966709677419356 9.982412698412695  L 1.5483870967741935 5.996571428571428  Z " fill-rule="evenodd" />
    </mask>
  </defs>
  <g transform="matrix(1 0 0 1 -804 -34 )">
    <path d="M 1.5483870967741935 5.996571428571428  L 1.5483870967741935 0  L 0 0  L 0 6.285714285714286  C 0 6.47847619047619  0.08670967741935492 6.653079365079365  0.22683870967741876 6.780190476190475  L 4.872 10.969968253968252  L 5.966709677419356 9.982412698412695  L 1.5483870967741935 5.996571428571428  Z " fill-rule="nonzero" fill="rgba(0, 82, 217, 1)" stroke="none" transform="matrix(1 0 0 1 804 34 )" class="fill" />
    <path d="M 1.5483870967741935 5.996571428571428  L 1.5483870967741935 0  L 0 0  L 0 6.285714285714286  C 0 6.47847619047619  0.08670967741935492 6.653079365079365  0.22683870967741876 6.780190476190475  L 4.872 10.969968253968252  L 5.966709677419356 9.982412698412695  L 1.5483870967741935 5.996571428571428  Z " stroke-width="0" stroke-dasharray="0" stroke="rgba(255, 255, 255, 0)" fill="none" transform="matrix(1 0 0 1 804 34 )" class="stroke" mask="url(#Clip506)" />
  </g>
</svg>