<?xml version="1.0" encoding="utf-8"?>
<svg version="1.1" xmlns:xlink="http://www.w3.org/1999/xlink" width="20px" height="20px" xmlns="http://www.w3.org/2000/svg">
  <defs>
    <pattern id="BGPattern" patternUnits="userSpaceOnUse" alignment="0 0" imageRepeat="None" />
    <mask fill="white" id="Clip376">
      <path d="M 18.571428571428573 10  C 18.571428571428573 14.72642857142857  14.72642857142857 18.571428571428573  10 18.571428571428573  C 5.273571428571428 18.571428571428573  1.4285714285714284 14.72642857142857  1.4285714285714284 10  C 1.4285714285714284 5.273571428571428  5.273571428571428 1.4285714285714284  10 1.4285714285714284  C 14.72642857142857 1.4285714285714284  18.571428571428573 5.273571428571428  18.571428571428573 10  Z M 20 10  C 20 4.477142857142858  15.522857142857143 0  10 0  C 4.477142857142858 0  0 4.477142857142858  0 10  C 0 15.522857142857143  4.477142857142858 20  10 20  C 15.522857142857143 20  20 15.522857142857143  20 10  Z " fill-rule="evenodd" />
    </mask>
  </defs>
  <g transform="matrix(1 0 0 1 -795 -30 )">
    <path d="M 18.571428571428573 10  C 18.571428571428573 14.72642857142857  14.72642857142857 18.571428571428573  10 18.571428571428573  C 5.273571428571428 18.571428571428573  1.4285714285714284 14.72642857142857  1.4285714285714284 10  C 1.4285714285714284 5.273571428571428  5.273571428571428 1.4285714285714284  10 1.4285714285714284  C 14.72642857142857 1.4285714285714284  18.571428571428573 5.273571428571428  18.571428571428573 10  Z M 20 10  C 20 4.477142857142858  15.522857142857143 0  10 0  C 4.477142857142858 0  0 4.477142857142858  0 10  C 0 15.522857142857143  4.477142857142858 20  10 20  C 15.522857142857143 20  20 15.522857142857143  20 10  Z " fill-rule="nonzero" fill="rgba(0, 82, 217, 1)" stroke="none" transform="matrix(1 0 0 1 795 30 )" class="fill" />
    <path d="M 18.571428571428573 10  C 18.571428571428573 14.72642857142857  14.72642857142857 18.571428571428573  10 18.571428571428573  C 5.273571428571428 18.571428571428573  1.4285714285714284 14.72642857142857  1.4285714285714284 10  C 1.4285714285714284 5.273571428571428  5.273571428571428 1.4285714285714284  10 1.4285714285714284  C 14.72642857142857 1.4285714285714284  18.571428571428573 5.273571428571428  18.571428571428573 10  Z " stroke-width="0" stroke-dasharray="0" stroke="rgba(255, 255, 255, 0)" fill="none" transform="matrix(1 0 0 1 795 30 )" class="stroke" mask="url(#Clip376)" />
    <path d="M 20 10  C 20 4.477142857142858  15.522857142857143 0  10 0  C 4.477142857142858 0  0 4.477142857142858  0 10  C 0 15.522857142857143  4.477142857142858 20  10 20  C 15.522857142857143 20  20 15.522857142857143  20 10  Z " stroke-width="0" stroke-dasharray="0" stroke="rgba(255, 255, 255, 0)" fill="none" transform="matrix(1 0 0 1 795 30 )" class="stroke" mask="url(#Clip376)" />
  </g>
</svg>