<?xml version="1.0" encoding="utf-8"?>
<svg version="1.1" xmlns:xlink="http://www.w3.org/1999/xlink" width="14px" height="14px" xmlns="http://www.w3.org/2000/svg">
  <defs>
    <pattern id="BGPattern" patternUnits="userSpaceOnUse" alignment="0 0" imageRepeat="None" />
    <mask fill="white" id="Clip105">
      <path d="M 7 14  C 3.133999999999986 14  0 10.866  0 7  C 0 3.1340000000000003  3.133999999999986 0  7 0  C 10.865999999999985 0  14 3.1340000000000003  14 7  C 14 10.866  10.865999999999985 14  7 14  Z M 7 1  C 3.686000000000007 1  1 3.686300000000003  1 7  C 1 10.313699999999997  3.686000000000007 13  7 13  C 10.313999999999965 13  13 10.313699999999997  13 7  C 13 3.686300000000003  10.313999999999965 1  7 1  Z M 9.706999999999994 9.292900000000003  L 7.5 6.974699999999999  L 7.5 3  L 6.5 3  L 6.5 7.388900000000007  L 9 10  L 9.706999999999994 9.292900000000003  Z " fill-rule="evenodd" />
    </mask>
  </defs>
  <g transform="matrix(1 0 0 1 -338 -130 )">
    <path d="M 7 14  C 3.133999999999986 14  0 10.866  0 7  C 0 3.1340000000000003  3.133999999999986 0  7 0  C 10.865999999999985 0  14 3.1340000000000003  14 7  C 14 10.866  10.865999999999985 14  7 14  Z M 7 1  C 3.686000000000007 1  1 3.686300000000003  1 7  C 1 10.313699999999997  3.686000000000007 13  7 13  C 10.313999999999965 13  13 10.313699999999997  13 7  C 13 3.686300000000003  10.313999999999965 1  7 1  Z M 9.706999999999994 9.292900000000003  L 7.5 6.974699999999999  L 7.5 3  L 6.5 3  L 6.5 7.388900000000007  L 9 10  L 9.706999999999994 9.292900000000003  Z " fill-rule="nonzero" fill="rgba(170, 170, 170, 1)" stroke="none" transform="matrix(1 0 0 1 338 130 )" class="fill" />
    <path d="M 7 14  C 3.133999999999986 14  0 10.866  0 7  C 0 3.1340000000000003  3.133999999999986 0  7 0  C 10.865999999999985 0  14 3.1340000000000003  14 7  C 14 10.866  10.865999999999985 14  7 14  Z " stroke-width="2" stroke-dasharray="0" stroke="rgba(170, 170, 170, 1)" fill="none" transform="matrix(1 0 0 1 338 130 )" class="stroke" mask="url(#Clip105)" />
    <path d="M 7 1  C 3.686000000000007 1  1 3.686300000000003  1 7  C 1 10.313699999999997  3.686000000000007 13  7 13  C 10.313999999999965 13  13 10.313699999999997  13 7  C 13 3.686300000000003  10.313999999999965 1  7 1  Z " stroke-width="2" stroke-dasharray="0" stroke="rgba(170, 170, 170, 1)" fill="none" transform="matrix(1 0 0 1 338 130 )" class="stroke" mask="url(#Clip105)" />
    <path d="M 9.706999999999994 9.292900000000003  L 7.5 6.974699999999999  L 7.5 3  L 6.5 3  L 6.5 7.388900000000007  L 9 10  L 9.706999999999994 9.292900000000003  Z " stroke-width="2" stroke-dasharray="0" stroke="rgba(170, 170, 170, 1)" fill="none" transform="matrix(1 0 0 1 338 130 )" class="stroke" mask="url(#Clip105)" />
  </g>
</svg>