<?xml version="1.0" encoding="utf-8"?>
<svg version="1.1" xmlns:xlink="http://www.w3.org/1999/xlink" width="13px" height="17px" xmlns="http://www.w3.org/2000/svg">
  <defs>
    <pattern id="BGPattern" patternUnits="userSpaceOnUse" alignment="0 0" imageRepeat="None" />
    <mask fill="white" id="Clip1255">
      <path d="M 0.3410468750000029 11.40584090909091  L 5.784129464285714 16.55684090909091  C 6.179635370658013 16.932526697013056  6.820364629341987 16.932526697013056  7.215870535714285 16.55684090909091  L 12.618415178571428 11.418701298701299  C 12.757702064983553 11.249265691218357  12.833371209078006 11.040377165579331  12.833371209078006 10.825304230093137  C 12.833371209078006 10.293219115674173  12.379829664470215 9.86187890541781  11.820357816220861 9.86187890541781  C 11.607432601030512 9.86187890541781  11.399920907406273 9.925687282072282  11.22729910714286 10.04424025974026  L 7.513013392857146 13.55104220779221  L 7.513013392857146 1.0974383116883117  C 7.513013392857146 0.5653531972693496  7.059471848249352 0.13401298701298728  6.500000000000003 0.13401298701298728  C 5.9405281517506525 0.13401298701298728  5.4869866071428595 0.5653531972693496  5.4869866071428595 1.0974383116883117  L 5.4869866071428595 13.550987012987013  L 1.7727008928571453 10.044212662337662  C 1.5852559406221025 9.878383303634434  1.3387444017375887 9.786199658449616  1.082739213503494 9.786199658449616  C 0.5232673652541432 9.786199658449616  0.0697258206463504 10.21753986870598  0.0697258206463504 10.749624983124942  C 0.0697258206463504 10.993111934578762  0.16666492511539666 11.227568432446231  0.3410468750000029 11.40584090909091  Z " fill-rule="evenodd" />
    </mask>
  </defs>
  <g transform="matrix(1 0 0 1 -659 -934 )">
    <path d="M 0.3410468750000029 11.40584090909091  L 5.784129464285714 16.55684090909091  C 6.179635370658013 16.932526697013056  6.820364629341987 16.932526697013056  7.215870535714285 16.55684090909091  L 12.618415178571428 11.418701298701299  C 12.757702064983553 11.249265691218357  12.833371209078006 11.040377165579331  12.833371209078006 10.825304230093137  C 12.833371209078006 10.293219115674173  12.379829664470215 9.86187890541781  11.820357816220861 9.86187890541781  C 11.607432601030512 9.86187890541781  11.399920907406273 9.925687282072282  11.22729910714286 10.04424025974026  L 7.513013392857146 13.55104220779221  L 7.513013392857146 1.0974383116883117  C 7.513013392857146 0.5653531972693496  7.059471848249352 0.13401298701298728  6.500000000000003 0.13401298701298728  C 5.9405281517506525 0.13401298701298728  5.4869866071428595 0.5653531972693496  5.4869866071428595 1.0974383116883117  L 5.4869866071428595 13.550987012987013  L 1.7727008928571453 10.044212662337662  C 1.5852559406221025 9.878383303634434  1.3387444017375887 9.786199658449616  1.082739213503494 9.786199658449616  C 0.5232673652541432 9.786199658449616  0.0697258206463504 10.21753986870598  0.0697258206463504 10.749624983124942  C 0.0697258206463504 10.993111934578762  0.16666492511539666 11.227568432446231  0.3410468750000029 11.40584090909091  Z " fill-rule="nonzero" fill="rgba(0, 82, 217, 1)" stroke="none" transform="matrix(1 0 0 1 659 934 )" class="fill" />
    <path d="M 0.3410468750000029 11.40584090909091  L 5.784129464285714 16.55684090909091  C 6.179635370658013 16.932526697013056  6.820364629341987 16.932526697013056  7.215870535714285 16.55684090909091  L 12.618415178571428 11.418701298701299  C 12.757702064983553 11.249265691218357  12.833371209078006 11.040377165579331  12.833371209078006 10.825304230093137  C 12.833371209078006 10.293219115674173  12.379829664470215 9.86187890541781  11.820357816220861 9.86187890541781  C 11.607432601030512 9.86187890541781  11.399920907406273 9.925687282072282  11.22729910714286 10.04424025974026  L 7.513013392857146 13.55104220779221  L 7.513013392857146 1.0974383116883117  C 7.513013392857146 0.5653531972693496  7.059471848249352 0.13401298701298728  6.500000000000003 0.13401298701298728  C 5.9405281517506525 0.13401298701298728  5.4869866071428595 0.5653531972693496  5.4869866071428595 1.0974383116883117  L 5.4869866071428595 13.550987012987013  L 1.7727008928571453 10.044212662337662  C 1.5852559406221025 9.878383303634434  1.3387444017375887 9.786199658449616  1.082739213503494 9.786199658449616  C 0.5232673652541432 9.786199658449616  0.0697258206463504 10.21753986870598  0.0697258206463504 10.749624983124942  C 0.0697258206463504 10.993111934578762  0.16666492511539666 11.227568432446231  0.3410468750000029 11.40584090909091  Z " stroke-width="0" stroke-dasharray="0" stroke="rgba(255, 255, 255, 0)" fill="none" transform="matrix(1 0 0 1 659 934 )" class="stroke" mask="url(#Clip1255)" />
  </g>
</svg>