<?xml version="1.0" encoding="utf-8"?>
<svg version="1.1" xmlns:xlink="http://www.w3.org/1999/xlink" width="24px" height="7px" xmlns="http://www.w3.org/2000/svg">
  <defs>
    <pattern id="BGPattern" patternUnits="userSpaceOnUse" alignment="0 0" imageRepeat="None" />
    <mask fill="white" id="Clip1738">
      <path d="M 23.855915094339622 1.0027500000000027  C 23.855883835062073 0.4915620327527005  23.413559124741482 0.0771737330942109  22.867924528301888 0.07715909090909308  C 22.322278879386353 0.07715909007017294  21.87993692051193 0.4915516782438098  21.87990566037736 1.0027499999999996  L 21.87990566037736 5  L 2.1200943396226415 5  L 2.1200943396226415 1.0027500000000027  C 2.1200943396226415 0.4915309684994288  1.6777432249979147 0.07710606060606101  1.1320754716981134 0.07710606060606101  C 0.5864077183983117 0.07710606060606101  0.144056603773585 0.4915309684994288  0.144056603773585 1.0027500000000027  L 0.144056603773585 5.680208333333334  C 0.144056603773585 6.377530303030303  0.8027547169811322 6.865011363636364  1.790745283018868 6.865011363636364  L 22.20925471698113 6.865011363636364  C 23.19727358490566 6.865011363636364  23.855915094339622 6.377530303030303  23.855915094339622 5.680208333333334  L 23.855915094339622 1.0027500000000027  Z " fill-rule="evenodd" />
    </mask>
  </defs>
  <g transform="matrix(1 0 0 1 -653 -951 )">
    <path d="M 23.855915094339622 1.0027500000000027  C 23.855883835062073 0.4915620327527005  23.413559124741482 0.0771737330942109  22.867924528301888 0.07715909090909308  C 22.322278879386353 0.07715909007017294  21.87993692051193 0.4915516782438098  21.87990566037736 1.0027499999999996  L 21.87990566037736 5  L 2.1200943396226415 5  L 2.1200943396226415 1.0027500000000027  C 2.1200943396226415 0.4915309684994288  1.6777432249979147 0.07710606060606101  1.1320754716981134 0.07710606060606101  C 0.5864077183983117 0.07710606060606101  0.144056603773585 0.4915309684994288  0.144056603773585 1.0027500000000027  L 0.144056603773585 5.680208333333334  C 0.144056603773585 6.377530303030303  0.8027547169811322 6.865011363636364  1.790745283018868 6.865011363636364  L 22.20925471698113 6.865011363636364  C 23.19727358490566 6.865011363636364  23.855915094339622 6.377530303030303  23.855915094339622 5.680208333333334  L 23.855915094339622 1.0027500000000027  Z " fill-rule="nonzero" fill="rgba(0, 82, 217, 1)" stroke="none" transform="matrix(1 0 0 1 653 951 )" class="fill" />
    <path d="M 23.855915094339622 1.0027500000000027  C 23.855883835062073 0.4915620327527005  23.413559124741482 0.0771737330942109  22.867924528301888 0.07715909090909308  C 22.322278879386353 0.07715909007017294  21.87993692051193 0.4915516782438098  21.87990566037736 1.0027499999999996  L 21.87990566037736 5  L 2.1200943396226415 5  L 2.1200943396226415 1.0027500000000027  C 2.1200943396226415 0.4915309684994288  1.6777432249979147 0.07710606060606101  1.1320754716981134 0.07710606060606101  C 0.5864077183983117 0.07710606060606101  0.144056603773585 0.4915309684994288  0.144056603773585 1.0027500000000027  L 0.144056603773585 5.680208333333334  C 0.144056603773585 6.377530303030303  0.8027547169811322 6.865011363636364  1.790745283018868 6.865011363636364  L 22.20925471698113 6.865011363636364  C 23.19727358490566 6.865011363636364  23.855915094339622 6.377530303030303  23.855915094339622 5.680208333333334  L 23.855915094339622 1.0027500000000027  Z " stroke-width="0" stroke-dasharray="0" stroke="rgba(255, 255, 255, 0)" fill="none" transform="matrix(1 0 0 1 653 951 )" class="stroke" mask="url(#Clip1738)" />
  </g>
</svg>