<?xml version="1.0" encoding="utf-8"?>
<svg version="1.1" xmlns:xlink="http://www.w3.org/1999/xlink" width="80px" height="80px" xmlns="http://www.w3.org/2000/svg">
  <g transform="matrix(1 0 0 1 -1009 -10 )">
    <path d="M 1009 10  L 1089 10  L 1089 90  L 1009 90  L 1009 10  " fill-rule="nonzero" fill="rgba(204, 204, 204, 1)" stroke="none" class="fill" />
    <path d="M 1015 16  L 1083 16  L 1083 84  L 1015 84  L 1015 16  " fill-rule="nonzero" fill="rgba(255, 255, 255, 1)" stroke="none" class="fill" />
    <path d="M 1056.6 34  C 1053.24 34  1050.6 31.36  1050.6 28  C 1050.6 24.64  1053.24 22  1056.6 22  C 1059.9599999999998 22  1062.6 24.64  1062.6 28  C 1062.6 31.36  1059.9599999999998 34  1056.6 34  " fill-rule="nonzero" fill="rgba(204, 204, 204, 1)" stroke="none" class="fill" />
    <path d="M 1017 82  L 1017 46.8  L 1033 30.799999999999997  L 1055.4 43.6  L 1068.2 40.4  L 1081 43.6  L 1081 82  L 1017 82  " fill-rule="nonzero" fill="rgba(22, 155, 213, 1)" stroke="none" class="fill" />
  </g>
</svg>