<?xml version="1.0" encoding="utf-8"?>
<svg version="1.1" xmlns:xlink="http://www.w3.org/1999/xlink" width="60px" height="60px" xmlns="http://www.w3.org/2000/svg">
  <g transform="matrix(1 0 0 1 -14 -15 )">
    <path d="M 14 15  L 74 15  L 74 75  L 14 75  L 14 15  " fill-rule="nonzero" fill="rgba(204, 204, 204, 1)" stroke="none" class="fill" />
    <path d="M 18 19  L 70 19  L 70 71  L 18 71  L 18 19  " fill-rule="nonzero" fill="rgba(255, 255, 255, 1)" stroke="none" class="fill" />
    <path d="M 49.7 33  C 47.18 33  45.2 31.02  45.2 28.5  C 45.2 25.98  47.18 24  49.7 24  C 52.220000000000006 24  54.2 25.98  54.2 28.5  C 54.2 31.02  52.220000000000006 33  49.7 33  " fill-rule="nonzero" fill="rgba(204, 204, 204, 1)" stroke="none" class="fill" />
    <path d="M 20 70  L 20 43.05  L 32.25 30.799999999999997  L 49.4 40.6  L 59.2 38.15  L 69 40.6  L 69 70  L 20 70  " fill-rule="nonzero" fill="rgba(22, 155, 213, 1)" stroke="none" class="fill" />
  </g>
</svg>